<svg width="226" height="146" viewBox="0 0 226 146" fill="none" xmlns="http://www.w3.org/2000/svg">
<g filter="url(#filter0_d)">
<g clip-path="url(#clip0)">
<rect x="13" y="9" width="200" height="120" rx="10" fill="white"/>
<path d="M13 19C13 13.4772 17.4772 9 23 9H113V129H23C17.4772 129 13 124.523 13 119V19Z" fill="#D8D36D"/>
<path fill-rule="evenodd" clip-rule="evenodd" d="M134.54 185.377L134.202 179.311C134.024 173.376 133.507 161.375 126.556 152.753C119.446 143.999 106.06 138.756 102.326 128.444C98.5922 118.133 104.511 102.753 103.994 90.7525C103.478 78.7517 96.3674 69.998 85.1264 63.6281C73.8854 57.2583 58.3546 53.1409 44.9686 47.8972C31.5827 42.6536 20.3417 36.2837 10.0136 29.2193C-0.154885 22.2864 -9.25094 14.7903 -13.7192 11.1081L-18.347 7.2943L-56.9558 27.5658L-52.328 31.3796C-47.8598 35.0618 -38.7637 42.5579 -29.6677 50.0539C-20.412 57.6814 -11.316 65.1775 -2.21995 72.6735C6.87611 80.1695 15.9722 87.6655 25.0682 95.1616C34.1643 102.658 43.4199 110.285 52.5159 117.781C61.612 125.277 70.708 132.773 79.8041 140.269C88.9001 147.765 97.9962 155.261 107.252 162.889C116.348 170.385 125.444 177.881 129.912 181.563L134.54 185.377Z" fill="#D8D14D"/>
<path fill-rule="evenodd" clip-rule="evenodd" d="M111.335 227.967L112.279 220.964C113.389 214.097 115.442 200.227 108.844 190.899C102.079 181.433 86.8302 176.648 84.5577 165.049C82.2853 153.449 92.9898 135.037 95.043 121.166C97.0962 107.296 90.3319 97.8309 77.9663 91.5311C65.6008 85.2313 47.4677 81.9597 32.2184 77.174C16.9691 72.3883 4.60359 66.0885 -6.48643 58.8945C-17.4101 51.8376 -26.8919 44.0237 -31.5496 40.1853L-36.3737 36.2098L-88.2812 63.4638L-83.4571 67.4393C-78.7994 71.2777 -69.3176 79.0916 -59.8358 86.9055C-50.1877 94.8565 -40.7059 102.67 -31.2241 110.484C-21.7423 118.298 -12.2605 126.112 -2.77875 133.926C6.70305 141.74 16.3512 149.691 25.833 157.505C35.3148 165.319 44.7966 173.133 54.2784 180.947C63.7601 188.761 73.2419 196.575 82.8901 204.526C92.3719 212.339 101.854 220.153 106.511 223.992L111.335 227.967Z" fill="#F1EC82"/>
<path d="M136.701 27.7734H133.127L132.324 30H131.164L134.422 21.4688H135.406L138.67 30H137.516L136.701 27.7734ZM133.467 26.8477H136.367L134.914 22.8574L133.467 26.8477ZM150.38 26.9004C150.38 27.8652 150.16 28.6426 149.718 29.2324C149.277 29.8223 148.679 30.1172 147.925 30.1172C147.156 30.1172 146.55 29.873 146.109 29.3848V32.4375H145.025V23.6602H146.015L146.068 24.3633C146.509 23.8164 147.123 23.543 147.908 23.543C148.67 23.543 149.271 23.8301 149.712 24.4043C150.158 24.9785 150.38 25.7773 150.38 26.8008V26.9004ZM149.296 26.7773C149.296 26.0625 149.144 25.498 148.839 25.084C148.535 24.6699 148.117 24.4629 147.586 24.4629C146.929 24.4629 146.437 24.7539 146.109 25.3359V28.3652C146.433 28.9434 146.929 29.2324 147.597 29.2324C148.117 29.2324 148.529 29.0273 148.834 28.6172C149.142 28.2031 149.296 27.5898 149.296 26.7773ZM154.967 28.4121L156.444 23.6602H157.604L155.055 30.9785C154.661 32.0332 154.034 32.5605 153.174 32.5605L152.969 32.543L152.565 32.4668V31.5879L152.858 31.6113C153.225 31.6113 153.51 31.5371 153.713 31.3887C153.92 31.2402 154.09 30.9688 154.223 30.5742L154.463 29.9297L152.202 23.6602H153.385L154.967 28.4121ZM161.247 22.125V23.6602H162.431V24.498H161.247V28.4297C161.247 28.6836 161.3 28.875 161.405 29.0039C161.511 29.1289 161.691 29.1914 161.945 29.1914C162.07 29.1914 162.241 29.168 162.46 29.1211V30C162.175 30.0781 161.898 30.1172 161.628 30.1172C161.144 30.1172 160.779 29.9707 160.532 29.6777C160.286 29.3848 160.163 28.9688 160.163 28.4297V24.498H159.009V23.6602H160.163V22.125H161.247ZM165.986 24.4277C166.467 23.8379 167.092 23.543 167.861 23.543C169.201 23.543 169.877 24.2988 169.889 25.8105V30H168.805V25.8047C168.801 25.3477 168.695 25.0098 168.488 24.791C168.285 24.5723 167.967 24.4629 167.533 24.4629C167.182 24.4629 166.873 24.5566 166.607 24.7441C166.342 24.9316 166.135 25.1777 165.986 25.4824V30H164.902V21H165.986V24.4277ZM172.425 26.7715C172.425 26.1504 172.546 25.5918 172.788 25.0957C173.034 24.5996 173.374 24.2168 173.807 23.9473C174.245 23.6777 174.743 23.543 175.302 23.543C176.165 23.543 176.862 23.8418 177.393 24.4395C177.929 25.0371 178.196 25.832 178.196 26.8242V26.9004C178.196 27.5176 178.077 28.0723 177.839 28.5645C177.604 29.0527 177.266 29.4336 176.825 29.707C176.388 29.9805 175.884 30.1172 175.313 30.1172C174.454 30.1172 173.757 29.8184 173.221 29.2207C172.69 28.623 172.425 27.832 172.425 26.8477V26.7715ZM173.514 26.9004C173.514 27.6035 173.677 28.168 174.001 28.5938C174.329 29.0195 174.766 29.2324 175.313 29.2324C175.864 29.2324 176.302 29.0176 176.626 28.5879C176.95 28.1543 177.112 27.5488 177.112 26.7715C177.112 26.0762 176.946 25.5137 176.614 25.084C176.286 24.6504 175.848 24.4336 175.302 24.4336C174.766 24.4336 174.335 24.6465 174.007 25.0723C173.679 25.498 173.514 26.1074 173.514 26.9004ZM181.781 23.6602L181.816 24.457C182.3 23.8477 182.933 23.543 183.714 23.543C185.054 23.543 185.73 24.2988 185.742 25.8105V30H184.658V25.8047C184.654 25.3477 184.548 25.0098 184.341 24.791C184.138 24.5723 183.82 24.4629 183.386 24.4629C183.035 24.4629 182.726 24.5566 182.461 24.7441C182.195 24.9316 181.988 25.1777 181.839 25.4824V30H180.755V23.6602H181.781ZM134.363 43.2324C134.75 43.2324 135.088 43.1152 135.377 42.8809C135.666 42.6465 135.826 42.3535 135.857 42.002H136.883C136.863 42.3652 136.738 42.7109 136.508 43.0391C136.277 43.3672 135.969 43.6289 135.582 43.8242C135.199 44.0195 134.793 44.1172 134.363 44.1172C133.5 44.1172 132.812 43.8301 132.301 43.2559C131.793 42.6777 131.539 41.8887 131.539 40.8887V40.707C131.539 40.0898 131.652 39.541 131.879 39.0605C132.105 38.5801 132.43 38.207 132.852 37.9414C133.277 37.6758 133.779 37.543 134.357 37.543C135.068 37.543 135.658 37.7559 136.127 38.1816C136.6 38.6074 136.852 39.1602 136.883 39.8398H135.857C135.826 39.4297 135.67 39.0938 135.389 38.832C135.111 38.5664 134.768 38.4336 134.357 38.4336C133.807 38.4336 133.379 38.6328 133.074 39.0312C132.773 39.4258 132.623 39.998 132.623 40.748V40.9531C132.623 41.6836 132.773 42.2461 133.074 42.6406C133.375 43.0352 133.805 43.2324 134.363 43.2324ZM139.014 40.7715C139.014 40.1504 139.136 39.5918 139.378 39.0957C139.624 38.5996 139.964 38.2168 140.397 37.9473C140.835 37.6777 141.333 37.543 141.891 37.543C142.755 37.543 143.452 37.8418 143.983 38.4395C144.518 39.0371 144.786 39.832 144.786 40.8242V40.9004C144.786 41.5176 144.667 42.0723 144.429 42.5645C144.194 43.0527 143.856 43.4336 143.415 43.707C142.977 43.9805 142.473 44.1172 141.903 44.1172C141.044 44.1172 140.346 43.8184 139.811 43.2207C139.28 42.623 139.014 41.832 139.014 40.8477V40.7715ZM140.104 40.9004C140.104 41.6035 140.266 42.168 140.591 42.5938C140.919 43.0195 141.356 43.2324 141.903 43.2324C142.454 43.2324 142.891 43.0176 143.216 42.5879C143.54 42.1543 143.702 41.5488 143.702 40.7715C143.702 40.0762 143.536 39.5137 143.204 39.084C142.876 38.6504 142.438 38.4336 141.891 38.4336C141.356 38.4336 140.925 38.6465 140.596 39.0723C140.268 39.498 140.104 40.1074 140.104 40.9004ZM147.082 40.7773C147.082 39.8047 147.312 39.0234 147.773 38.4336C148.234 37.8398 148.837 37.543 149.584 37.543C150.326 37.543 150.914 37.7969 151.347 38.3047V35H152.431V44H151.435L151.382 43.3203C150.949 43.8516 150.345 44.1172 149.572 44.1172C148.837 44.1172 148.238 43.8164 147.773 43.2148C147.312 42.6133 147.082 41.8281 147.082 40.8594V40.7773ZM148.166 40.9004C148.166 41.6191 148.314 42.1816 148.611 42.5879C148.908 42.9941 149.318 43.1973 149.841 43.1973C150.529 43.1973 151.031 42.8887 151.347 42.2715V39.3594C151.023 38.7617 150.525 38.4629 149.853 38.4629C149.322 38.4629 148.908 38.668 148.611 39.0781C148.314 39.4883 148.166 40.0957 148.166 40.9004ZM157.95 44.1172C157.09 44.1172 156.391 43.8359 155.852 43.2734C155.313 42.707 155.043 41.9512 155.043 41.0059V40.8066C155.043 40.1777 155.163 39.6172 155.401 39.125C155.643 38.6289 155.979 38.2422 156.409 37.9648C156.842 37.6836 157.311 37.543 157.815 37.543C158.639 37.543 159.28 37.8145 159.737 38.3574C160.194 38.9004 160.422 39.6777 160.422 40.6895V41.1406H156.127C156.143 41.7656 156.325 42.2715 156.672 42.6582C157.024 43.041 157.469 43.2324 158.008 43.2324C158.391 43.2324 158.715 43.1543 158.981 42.998C159.246 42.8418 159.479 42.6348 159.678 42.377L160.34 42.8926C159.809 43.709 159.012 44.1172 157.95 44.1172ZM157.815 38.4336C157.377 38.4336 157.01 38.5938 156.713 38.9141C156.416 39.2305 156.233 39.6758 156.163 40.25H159.338V40.168C159.307 39.6172 159.159 39.1914 158.893 38.8906C158.627 38.5859 158.268 38.4336 157.815 38.4336ZM168.529 36.125V37.6602H169.713V38.498H168.529V42.4297C168.529 42.6836 168.582 42.875 168.688 43.0039C168.793 43.1289 168.973 43.1914 169.227 43.1914C169.352 43.1914 169.523 43.168 169.742 43.1211V44C169.457 44.0781 169.18 44.1172 168.91 44.1172C168.426 44.1172 168.061 43.9707 167.814 43.6777C167.568 43.3848 167.445 42.9688 167.445 42.4297V38.498H166.291V37.6602H167.445V36.125H168.529ZM171.78 40.7715C171.78 40.1504 171.901 39.5918 172.143 39.0957C172.389 38.5996 172.729 38.2168 173.163 37.9473C173.6 37.6777 174.098 37.543 174.657 37.543C175.52 37.543 176.218 37.8418 176.749 38.4395C177.284 39.0371 177.552 39.832 177.552 40.8242V40.9004C177.552 41.5176 177.432 42.0723 177.194 42.5645C176.96 43.0527 176.622 43.4336 176.18 43.707C175.743 43.9805 175.239 44.1172 174.669 44.1172C173.809 44.1172 173.112 43.8184 172.577 43.2207C172.046 42.623 171.78 41.832 171.78 40.8477V40.7715ZM172.87 40.9004C172.87 41.6035 173.032 42.168 173.356 42.5938C173.684 43.0195 174.122 43.2324 174.669 43.2324C175.22 43.2324 175.657 43.0176 175.981 42.5879C176.305 42.1543 176.468 41.5488 176.468 40.7715C176.468 40.0762 176.302 39.5137 175.97 39.084C175.641 38.6504 175.204 38.4336 174.657 38.4336C174.122 38.4336 173.69 38.6465 173.362 39.0723C173.034 39.498 172.87 40.1074 172.87 40.9004ZM134.363 57.2324C134.75 57.2324 135.088 57.1152 135.377 56.8809C135.666 56.6465 135.826 56.3535 135.857 56.002H136.883C136.863 56.3652 136.738 56.7109 136.508 57.0391C136.277 57.3672 135.969 57.6289 135.582 57.8242C135.199 58.0195 134.793 58.1172 134.363 58.1172C133.5 58.1172 132.812 57.8301 132.301 57.2559C131.793 56.6777 131.539 55.8887 131.539 54.8887V54.707C131.539 54.0898 131.652 53.541 131.879 53.0605C132.105 52.5801 132.43 52.207 132.852 51.9414C133.277 51.6758 133.779 51.543 134.357 51.543C135.068 51.543 135.658 51.7559 136.127 52.1816C136.6 52.6074 136.852 53.1602 136.883 53.8398H135.857C135.826 53.4297 135.67 53.0938 135.389 52.832C135.111 52.5664 134.768 52.4336 134.357 52.4336C133.807 52.4336 133.379 52.6328 133.074 53.0312C132.773 53.4258 132.623 53.998 132.623 54.748V54.9531C132.623 55.6836 132.773 56.2461 133.074 56.6406C133.375 57.0352 133.805 57.2324 134.363 57.2324ZM139.014 54.7715C139.014 54.1504 139.136 53.5918 139.378 53.0957C139.624 52.5996 139.964 52.2168 140.397 51.9473C140.835 51.6777 141.333 51.543 141.891 51.543C142.755 51.543 143.452 51.8418 143.983 52.4395C144.518 53.0371 144.786 53.832 144.786 54.8242V54.9004C144.786 55.5176 144.667 56.0723 144.429 56.5645C144.194 57.0527 143.856 57.4336 143.415 57.707C142.977 57.9805 142.473 58.1172 141.903 58.1172C141.044 58.1172 140.346 57.8184 139.811 57.2207C139.28 56.623 139.014 55.832 139.014 54.8477V54.7715ZM140.104 54.9004C140.104 55.6035 140.266 56.168 140.591 56.5938C140.919 57.0195 141.356 57.2324 141.903 57.2324C142.454 57.2324 142.891 57.0176 143.216 56.5879C143.54 56.1543 143.702 55.5488 143.702 54.7715C143.702 54.0762 143.536 53.5137 143.204 53.084C142.876 52.6504 142.438 52.4336 141.891 52.4336C141.356 52.4336 140.925 52.6465 140.596 53.0723C140.268 53.498 140.104 54.1074 140.104 54.9004ZM148.371 51.6602L148.406 52.457C148.89 51.8477 149.523 51.543 150.304 51.543C151.644 51.543 152.32 52.2988 152.332 53.8105V58H151.248V53.8047C151.244 53.3477 151.138 53.0098 150.931 52.791C150.728 52.5723 150.41 52.4629 149.976 52.4629C149.625 52.4629 149.316 52.5566 149.05 52.7441C148.785 52.9316 148.578 53.1777 148.429 53.4824V58H147.345V51.6602H148.371ZM157.258 56.5293L158.829 51.6602H159.936L157.663 58H156.836L154.539 51.6602H155.647L157.258 56.5293ZM164.728 58.1172C163.868 58.1172 163.169 57.8359 162.63 57.2734C162.091 56.707 161.821 55.9512 161.821 55.0059V54.8066C161.821 54.1777 161.941 53.6172 162.179 53.125C162.421 52.6289 162.757 52.2422 163.187 51.9648C163.62 51.6836 164.089 51.543 164.593 51.543C165.417 51.543 166.058 51.8145 166.515 52.3574C166.972 52.9004 167.2 53.6777 167.2 54.6895V55.1406H162.905C162.921 55.7656 163.103 56.2715 163.45 56.6582C163.802 57.041 164.247 57.2324 164.786 57.2324C165.169 57.2324 165.493 57.1543 165.759 56.998C166.025 56.8418 166.257 56.6348 166.456 56.377L167.118 56.8926C166.587 57.709 165.79 58.1172 164.728 58.1172ZM164.593 52.4336C164.155 52.4336 163.788 52.5938 163.491 52.9141C163.195 53.2305 163.011 53.6758 162.941 54.25H166.116V54.168C166.085 53.6172 165.937 53.1914 165.671 52.8906C165.405 52.5859 165.046 52.4336 164.593 52.4336ZM172.725 52.6328C172.561 52.6055 172.383 52.5918 172.191 52.5918C171.48 52.5918 170.998 52.8945 170.744 53.5V58H169.66V51.6602H170.715L170.732 52.3926C171.088 51.8262 171.592 51.543 172.244 51.543C172.455 51.543 172.615 51.5703 172.725 51.625V52.6328ZM176.69 50.125V51.6602H177.874V52.498H176.69V56.4297C176.69 56.6836 176.743 56.875 176.848 57.0039C176.954 57.1289 177.134 57.1914 177.388 57.1914C177.513 57.1914 177.684 57.168 177.903 57.1211V58C177.618 58.0781 177.341 58.1172 177.071 58.1172C176.587 58.1172 176.221 57.9707 175.975 57.6777C175.729 57.3848 175.606 56.9688 175.606 56.4297V52.498H174.452V51.6602H175.606V50.125H176.69ZM133.115 68.6602V72H131.99V63.4688H135.137C136.07 63.4688 136.801 63.707 137.328 64.1836C137.859 64.6602 138.125 65.291 138.125 66.0762C138.125 66.9043 137.865 67.543 137.346 67.9922C136.83 68.4375 136.09 68.6602 135.125 68.6602H133.115ZM133.115 67.7402H135.137C135.738 67.7402 136.199 67.5996 136.52 67.3184C136.84 67.0332 137 66.623 137 66.0879C137 65.5801 136.84 65.1738 136.52 64.8691C136.199 64.5645 135.76 64.4062 135.201 64.3945H133.115V67.7402ZM140.245 68.7773C140.245 67.8047 140.475 67.0234 140.936 66.4336C141.397 65.8398 142.001 65.543 142.747 65.543C143.489 65.543 144.077 65.7969 144.511 66.3047V63H145.595V72H144.598L144.546 71.3203C144.112 71.8516 143.509 72.1172 142.735 72.1172C142.001 72.1172 141.401 71.8164 140.936 71.2148C140.475 70.6133 140.245 69.8281 140.245 68.8594V68.7773ZM141.329 68.9004C141.329 69.6191 141.477 70.1816 141.774 70.5879C142.071 70.9941 142.481 71.1973 143.005 71.1973C143.692 71.1973 144.194 70.8887 144.511 70.2715V67.3594C144.186 66.7617 143.688 66.4629 143.016 66.4629C142.485 66.4629 142.071 66.668 141.774 67.0781C141.477 67.4883 141.329 68.0957 141.329 68.9004ZM149.015 72V66.498H148.013V65.6602H149.015V65.0098C149.015 64.3301 149.197 63.8047 149.56 63.4336C149.923 63.0625 150.437 62.877 151.101 62.877C151.351 62.877 151.599 62.9102 151.845 62.9766L151.787 63.8555C151.603 63.8203 151.408 63.8027 151.201 63.8027C150.849 63.8027 150.578 63.9062 150.386 64.1133C150.195 64.3164 150.099 64.6094 150.099 64.9922V65.6602H151.453V66.498H150.099V72H149.015ZM157.545 70.3184C157.545 70.0254 157.434 69.7988 157.211 69.6387C156.993 69.4746 156.608 69.334 156.057 69.2168C155.51 69.0996 155.075 68.959 154.75 68.7949C154.43 68.6309 154.192 68.4355 154.036 68.209C153.883 67.9824 153.807 67.7129 153.807 67.4004C153.807 66.8809 154.026 66.4414 154.463 66.082C154.905 65.7227 155.467 65.543 156.151 65.543C156.87 65.543 157.452 65.7285 157.897 66.0996C158.346 66.4707 158.571 66.9453 158.571 67.5234H157.481C157.481 67.2266 157.354 66.9707 157.1 66.7559C156.85 66.541 156.534 66.4336 156.151 66.4336C155.756 66.4336 155.448 66.5195 155.225 66.6914C155.002 66.8633 154.891 67.0879 154.891 67.3652C154.891 67.627 154.995 67.8242 155.202 67.957C155.409 68.0898 155.782 68.2168 156.321 68.3379C156.864 68.459 157.303 68.6035 157.639 68.7715C157.975 68.9395 158.223 69.1426 158.383 69.3809C158.547 69.6152 158.629 69.9023 158.629 70.2422C158.629 70.8086 158.403 71.2637 157.95 71.6074C157.496 71.9473 156.909 72.1172 156.186 72.1172C155.678 72.1172 155.229 72.0273 154.838 71.8477C154.448 71.668 154.141 71.418 153.918 71.0977C153.7 70.7734 153.59 70.4238 153.59 70.0488H154.674C154.694 70.4121 154.838 70.7012 155.108 70.916C155.381 71.127 155.741 71.2324 156.186 71.2324C156.596 71.2324 156.924 71.1504 157.17 70.9863C157.42 70.8184 157.545 70.5957 157.545 70.3184ZM165.131 68.7715C165.131 68.1504 165.252 67.5918 165.494 67.0957C165.74 66.5996 166.08 66.2168 166.514 65.9473C166.951 65.6777 167.449 65.543 168.008 65.543C168.871 65.543 169.568 65.8418 170.1 66.4395C170.635 67.0371 170.902 67.832 170.902 68.8242V68.9004C170.902 69.5176 170.783 70.0723 170.545 70.5645C170.311 71.0527 169.973 71.4336 169.531 71.707C169.094 71.9805 168.59 72.1172 168.02 72.1172C167.16 72.1172 166.463 71.8184 165.928 71.2207C165.396 70.623 165.131 69.832 165.131 68.8477V68.7715ZM166.221 68.9004C166.221 69.6035 166.383 70.168 166.707 70.5938C167.035 71.0195 167.473 71.2324 168.02 71.2324C168.57 71.2324 169.008 71.0176 169.332 70.5879C169.656 70.1543 169.818 69.5488 169.818 68.7715C169.818 68.0762 169.652 67.5137 169.32 67.084C168.992 66.6504 168.555 66.4336 168.008 66.4336C167.473 66.4336 167.041 66.6465 166.713 67.0723C166.385 67.498 166.221 68.1074 166.221 68.9004ZM176.526 66.6328C176.362 66.6055 176.184 66.5918 175.993 66.5918C175.282 66.5918 174.8 66.8945 174.546 67.5V72H173.462V65.6602H174.516L174.534 66.3926C174.889 65.8262 175.393 65.543 176.046 65.543C176.257 65.543 176.417 65.5703 176.526 65.625V66.6328ZM186.819 72C186.756 71.875 186.705 71.6523 186.666 71.332C186.162 71.8555 185.561 72.1172 184.862 72.1172C184.237 72.1172 183.723 71.9414 183.321 71.5898C182.922 71.2344 182.723 70.7852 182.723 70.2422C182.723 69.582 182.973 69.0703 183.473 68.707C183.977 68.3398 184.684 68.1562 185.594 68.1562H186.649V67.6582C186.649 67.2793 186.536 66.9785 186.309 66.7559C186.082 66.5293 185.748 66.416 185.307 66.416C184.92 66.416 184.596 66.5137 184.334 66.709C184.073 66.9043 183.942 67.1406 183.942 67.418H182.852C182.852 67.1016 182.963 66.7969 183.186 66.5039C183.412 66.207 183.717 65.9727 184.1 65.8008C184.487 65.6289 184.911 65.543 185.371 65.543C186.102 65.543 186.674 65.7266 187.088 66.0938C187.502 66.457 187.717 66.959 187.733 67.5996V70.5176C187.733 71.0996 187.807 71.5625 187.955 71.9062V72H186.819ZM185.02 71.1738C185.36 71.1738 185.682 71.0859 185.987 70.9102C186.291 70.7344 186.512 70.5059 186.649 70.2246V68.9238H185.799C184.471 68.9238 183.807 69.3125 183.807 70.0898C183.807 70.4297 183.92 70.6953 184.147 70.8867C184.373 71.0781 184.664 71.1738 185.02 71.1738ZM191.657 65.6602L191.693 66.457C192.177 65.8477 192.81 65.543 193.591 65.543C194.931 65.543 195.607 66.2988 195.618 67.8105V72H194.534V67.8047C194.53 67.3477 194.425 67.0098 194.218 66.791C194.015 66.5723 193.696 66.4629 193.263 66.4629C192.911 66.4629 192.603 66.5566 192.337 66.7441C192.071 66.9316 191.864 67.1777 191.716 67.4824V72H190.632V65.6602H191.657ZM200.527 70.4121L202.004 65.6602H203.164L200.615 72.9785C200.221 74.0332 199.594 74.5605 198.734 74.5605L198.529 74.543L198.125 74.4668V73.5879L198.418 73.6113C198.785 73.6113 199.07 73.5371 199.273 73.3887C199.48 73.2402 199.65 72.9688 199.783 72.5742L200.023 71.9297L197.762 65.6602H198.945L200.527 70.4121ZM131.557 82.7773C131.557 81.8047 131.787 81.0234 132.248 80.4336C132.709 79.8398 133.312 79.543 134.059 79.543C134.801 79.543 135.389 79.7969 135.822 80.3047V77H136.906V86H135.91L135.857 85.3203C135.424 85.8516 134.82 86.1172 134.047 86.1172C133.312 86.1172 132.713 85.8164 132.248 85.2148C131.787 84.6133 131.557 83.8281 131.557 82.8594V82.7773ZM132.641 82.9004C132.641 83.6191 132.789 84.1816 133.086 84.5879C133.383 84.9941 133.793 85.1973 134.316 85.1973C135.004 85.1973 135.506 84.8887 135.822 84.2715V81.3594C135.498 80.7617 135 80.4629 134.328 80.4629C133.797 80.4629 133.383 80.668 133.086 81.0781C132.789 81.4883 132.641 82.0957 132.641 82.9004ZM139.507 82.7715C139.507 82.1504 139.628 81.5918 139.87 81.0957C140.116 80.5996 140.456 80.2168 140.889 79.9473C141.327 79.6777 141.825 79.543 142.384 79.543C143.247 79.543 143.944 79.8418 144.475 80.4395C145.011 81.0371 145.278 81.832 145.278 82.8242V82.9004C145.278 83.5176 145.159 84.0723 144.921 84.5645C144.686 85.0527 144.348 85.4336 143.907 85.707C143.47 85.9805 142.966 86.1172 142.395 86.1172C141.536 86.1172 140.839 85.8184 140.304 85.2207C139.772 84.623 139.507 83.832 139.507 82.8477V82.7715ZM140.596 82.9004C140.596 83.6035 140.759 84.168 141.083 84.5938C141.411 85.0195 141.848 85.2324 142.395 85.2324C142.946 85.2324 143.384 85.0176 143.708 84.5879C144.032 84.1543 144.194 83.5488 144.194 82.7715C144.194 82.0762 144.028 81.5137 143.696 81.084C143.368 80.6504 142.93 80.4336 142.384 80.4336C141.848 80.4336 141.417 80.6465 141.089 81.0723C140.761 81.498 140.596 82.1074 140.596 82.9004ZM150.38 85.2324C150.767 85.2324 151.105 85.1152 151.394 84.8809C151.683 84.6465 151.843 84.3535 151.875 84.002H152.9C152.88 84.3652 152.755 84.7109 152.525 85.0391C152.295 85.3672 151.986 85.6289 151.599 85.8242C151.216 86.0195 150.81 86.1172 150.38 86.1172C149.517 86.1172 148.83 85.8301 148.318 85.2559C147.81 84.6777 147.556 83.8887 147.556 82.8887V82.707C147.556 82.0898 147.67 81.541 147.896 81.0605C148.123 80.5801 148.447 80.207 148.869 79.9414C149.295 79.6758 149.796 79.543 150.375 79.543C151.086 79.543 151.675 79.7559 152.144 80.1816C152.617 80.6074 152.869 81.1602 152.9 81.8398H151.875C151.843 81.4297 151.687 81.0938 151.406 80.832C151.129 80.5664 150.785 80.4336 150.375 80.4336C149.824 80.4336 149.396 80.6328 149.091 81.0312C148.791 81.4258 148.64 81.998 148.64 82.748V82.9531C148.64 83.6836 148.791 84.2461 149.091 84.6406C149.392 85.0352 149.822 85.2324 150.38 85.2324ZM159.233 85.373C158.811 85.8691 158.192 86.1172 157.375 86.1172C156.7 86.1172 156.184 85.9219 155.829 85.5312C155.477 85.1367 155.299 84.5547 155.295 83.7852V79.6602H156.379V83.7559C156.379 84.7168 156.77 85.1973 157.551 85.1973C158.379 85.1973 158.93 84.8887 159.204 84.2715V79.6602H160.288V86H159.256L159.233 85.373ZM164.159 79.6602L164.189 80.3633C164.654 79.8164 165.28 79.543 166.07 79.543C166.956 79.543 167.56 79.8828 167.88 80.5625C168.091 80.2578 168.364 80.0117 168.7 79.8242C169.04 79.6367 169.441 79.543 169.902 79.543C171.292 79.543 171.999 80.2793 172.023 81.752V86H170.939V81.8164C170.939 81.3633 170.835 81.0254 170.628 80.8027C170.421 80.5762 170.073 80.4629 169.585 80.4629C169.183 80.4629 168.849 80.584 168.583 80.8262C168.318 81.0645 168.163 81.3867 168.12 81.793V86H167.03V81.8457C167.03 80.9238 166.579 80.4629 165.677 80.4629C164.966 80.4629 164.48 80.7656 164.218 81.3711V86H163.134V79.6602H164.159ZM177.494 86.1172C176.635 86.1172 175.936 85.8359 175.396 85.2734C174.857 84.707 174.588 83.9512 174.588 83.0059V82.8066C174.588 82.1777 174.707 81.6172 174.945 81.125C175.188 80.6289 175.523 80.2422 175.953 79.9648C176.387 79.6836 176.855 79.543 177.359 79.543C178.184 79.543 178.824 79.8145 179.281 80.3574C179.738 80.9004 179.967 81.6777 179.967 82.6895V83.1406H175.672C175.688 83.7656 175.869 84.2715 176.217 84.6582C176.568 85.041 177.014 85.2324 177.553 85.2324C177.936 85.2324 178.26 85.1543 178.525 84.998C178.791 84.8418 179.023 84.6348 179.223 84.377L179.885 84.8926C179.354 85.709 178.557 86.1172 177.494 86.1172ZM177.359 80.4336C176.922 80.4336 176.555 80.5938 176.258 80.9141C175.961 81.2305 175.777 81.6758 175.707 82.25H178.883V82.168C178.852 81.6172 178.703 81.1914 178.438 80.8906C178.172 80.5859 177.812 80.4336 177.359 80.4336ZM183.452 79.6602L183.487 80.457C183.971 79.8477 184.604 79.543 185.386 79.543C186.725 79.543 187.401 80.2988 187.413 81.8105V86H186.329V81.8047C186.325 81.3477 186.22 81.0098 186.013 80.791C185.809 80.5723 185.491 80.4629 185.057 80.4629C184.706 80.4629 184.397 80.5566 184.132 80.7441C183.866 80.9316 183.659 81.1777 183.511 81.4824V86H182.427V79.6602H183.452ZM191.718 78.125V79.6602H192.902V80.498H191.718V84.4297C191.718 84.6836 191.771 84.875 191.877 85.0039C191.982 85.1289 192.162 85.1914 192.416 85.1914C192.541 85.1914 192.713 85.168 192.931 85.1211V86C192.646 86.0781 192.369 86.1172 192.099 86.1172C191.615 86.1172 191.25 85.9707 191.004 85.6777C190.757 85.3848 190.634 84.9688 190.634 84.4297V80.498H189.48V79.6602H190.634V78.125H191.718ZM132.998 100H131.914V93.6602H132.998V100ZM131.826 91.9785C131.826 91.8027 131.879 91.6543 131.984 91.5332C132.094 91.4121 132.254 91.3516 132.465 91.3516C132.676 91.3516 132.836 91.4121 132.945 91.5332C133.055 91.6543 133.109 91.8027 133.109 91.9785C133.109 92.1543 133.055 92.3008 132.945 92.418C132.836 92.5352 132.676 92.5938 132.465 92.5938C132.254 92.5938 132.094 92.5352 131.984 92.418C131.879 92.3008 131.826 92.1543 131.826 91.9785ZM136.964 93.6602L136.999 94.457C137.483 93.8477 138.116 93.543 138.897 93.543C140.237 93.543 140.913 94.2988 140.925 95.8105V100H139.841V95.8047C139.837 95.3477 139.731 95.0098 139.524 94.791C139.321 94.5723 139.003 94.4629 138.569 94.4629C138.218 94.4629 137.909 94.5566 137.643 94.7441C137.378 94.9316 137.171 95.1777 137.022 95.4824V100H135.938V93.6602H136.964ZM145.23 92.125V93.6602H146.414V94.498H145.23V98.4297C145.23 98.6836 145.283 98.875 145.388 99.0039C145.494 99.1289 145.673 99.1914 145.927 99.1914C146.052 99.1914 146.224 99.168 146.443 99.1211V100C146.158 100.078 145.88 100.117 145.611 100.117C145.127 100.117 144.761 99.9707 144.515 99.6777C144.269 99.3848 144.146 98.9688 144.146 98.4297V94.498H142.992V93.6602H144.146V92.125H145.23ZM148.481 96.7715C148.481 96.1504 148.602 95.5918 148.844 95.0957C149.09 94.5996 149.43 94.2168 149.864 93.9473C150.301 93.6777 150.799 93.543 151.358 93.543C152.221 93.543 152.918 93.8418 153.45 94.4395C153.985 95.0371 154.252 95.832 154.252 96.8242V96.9004C154.252 97.5176 154.133 98.0723 153.895 98.5645C153.661 99.0527 153.323 99.4336 152.881 99.707C152.444 99.9805 151.94 100.117 151.37 100.117C150.51 100.117 149.813 99.8184 149.278 99.2207C148.746 98.623 148.481 97.832 148.481 96.8477V96.7715ZM149.571 96.9004C149.571 97.6035 149.733 98.168 150.057 98.5938C150.385 99.0195 150.823 99.2324 151.37 99.2324C151.92 99.2324 152.358 99.0176 152.682 98.5879C153.006 98.1543 153.168 97.5488 153.168 96.7715C153.168 96.0762 153.002 95.5137 152.67 95.084C152.342 94.6504 151.905 94.4336 151.358 94.4336C150.823 94.4336 150.391 94.6465 150.063 95.0723C149.735 95.498 149.571 96.1074 149.571 96.9004ZM164.902 100C164.84 99.875 164.789 99.6523 164.75 99.332C164.246 99.8555 163.645 100.117 162.945 100.117C162.32 100.117 161.807 99.9414 161.404 99.5898C161.006 99.2344 160.807 98.7852 160.807 98.2422C160.807 97.582 161.057 97.0703 161.557 96.707C162.061 96.3398 162.768 96.1562 163.678 96.1562H164.732V95.6582C164.732 95.2793 164.619 94.9785 164.393 94.7559C164.166 94.5293 163.832 94.416 163.391 94.416C163.004 94.416 162.68 94.5137 162.418 94.709C162.156 94.9043 162.025 95.1406 162.025 95.418H160.936C160.936 95.1016 161.047 94.7969 161.27 94.5039C161.496 94.207 161.801 93.9727 162.184 93.8008C162.57 93.6289 162.994 93.543 163.455 93.543C164.186 93.543 164.758 93.7266 165.172 94.0938C165.586 94.457 165.801 94.959 165.816 95.5996V98.5176C165.816 99.0996 165.891 99.5625 166.039 99.9062V100H164.902ZM163.104 99.1738C163.443 99.1738 163.766 99.0859 164.07 98.9102C164.375 98.7344 164.596 98.5059 164.732 98.2246V96.9238H163.883C162.555 96.9238 161.891 97.3125 161.891 98.0898C161.891 98.4297 162.004 98.6953 162.23 98.8867C162.457 99.0781 162.748 99.1738 163.104 99.1738ZM169.741 93.6602L169.776 94.457C170.261 93.8477 170.893 93.543 171.675 93.543C173.014 93.543 173.69 94.2988 173.702 95.8105V100H172.618V95.8047C172.614 95.3477 172.509 95.0098 172.302 94.791C172.098 94.5723 171.78 94.4629 171.346 94.4629C170.995 94.4629 170.686 94.5566 170.421 94.7441C170.155 94.9316 169.948 95.1777 169.8 95.4824V100H168.716V93.6602H169.741ZM135.734 114C135.672 113.875 135.621 113.652 135.582 113.332C135.078 113.855 134.477 114.117 133.777 114.117C133.152 114.117 132.639 113.941 132.236 113.59C131.838 113.234 131.639 112.785 131.639 112.242C131.639 111.582 131.889 111.07 132.389 110.707C132.893 110.34 133.6 110.156 134.51 110.156H135.564V109.658C135.564 109.279 135.451 108.979 135.225 108.756C134.998 108.529 134.664 108.416 134.223 108.416C133.836 108.416 133.512 108.514 133.25 108.709C132.988 108.904 132.857 109.141 132.857 109.418H131.768C131.768 109.102 131.879 108.797 132.102 108.504C132.328 108.207 132.633 107.973 133.016 107.801C133.402 107.629 133.826 107.543 134.287 107.543C135.018 107.543 135.59 107.727 136.004 108.094C136.418 108.457 136.633 108.959 136.648 109.6V112.518C136.648 113.1 136.723 113.562 136.871 113.906V114H135.734ZM133.936 113.174C134.275 113.174 134.598 113.086 134.902 112.91C135.207 112.734 135.428 112.506 135.564 112.225V110.924H134.715C133.387 110.924 132.723 111.312 132.723 112.09C132.723 112.43 132.836 112.695 133.062 112.887C133.289 113.078 133.58 113.174 133.936 113.174ZM143.462 113.373C143.04 113.869 142.421 114.117 141.604 114.117C140.929 114.117 140.413 113.922 140.057 113.531C139.706 113.137 139.528 112.555 139.524 111.785V107.66H140.608V111.756C140.608 112.717 140.999 113.197 141.78 113.197C142.608 113.197 143.159 112.889 143.432 112.271V107.66H144.516V114H143.485L143.462 113.373ZM147.105 110.777C147.105 109.805 147.336 109.023 147.796 108.434C148.257 107.84 148.861 107.543 149.607 107.543C150.349 107.543 150.937 107.797 151.371 108.305V105H152.455V114H151.459L151.406 113.32C150.972 113.852 150.369 114.117 149.595 114.117C148.861 114.117 148.261 113.816 147.796 113.215C147.336 112.613 147.105 111.828 147.105 110.859V110.777ZM148.189 110.9C148.189 111.619 148.337 112.182 148.634 112.588C148.931 112.994 149.341 113.197 149.865 113.197C150.552 113.197 151.054 112.889 151.371 112.271V109.359C151.046 108.762 150.548 108.463 149.877 108.463C149.345 108.463 148.931 108.668 148.634 109.078C148.337 109.488 148.189 110.096 148.189 110.9ZM156.52 114H155.436V107.66H156.52V114ZM155.348 105.979C155.348 105.803 155.401 105.654 155.506 105.533C155.616 105.412 155.776 105.352 155.987 105.352C156.198 105.352 156.358 105.412 156.467 105.533C156.577 105.654 156.631 105.803 156.631 105.979C156.631 106.154 156.577 106.301 156.467 106.418C156.358 106.535 156.198 106.594 155.987 106.594C155.776 106.594 155.616 106.535 155.506 106.418C155.401 106.301 155.348 106.154 155.348 105.979ZM159.173 110.771C159.173 110.15 159.294 109.592 159.536 109.096C159.782 108.6 160.122 108.217 160.556 107.947C160.993 107.678 161.491 107.543 162.05 107.543C162.913 107.543 163.611 107.842 164.142 108.439C164.677 109.037 164.945 109.832 164.945 110.824V110.9C164.945 111.518 164.825 112.072 164.587 112.564C164.353 113.053 164.015 113.434 163.573 113.707C163.136 113.98 162.632 114.117 162.062 114.117C161.202 114.117 160.505 113.818 159.97 113.221C159.439 112.623 159.173 111.832 159.173 110.848V110.771ZM160.263 110.9C160.263 111.604 160.425 112.168 160.749 112.594C161.077 113.02 161.515 113.232 162.062 113.232C162.612 113.232 163.05 113.018 163.374 112.588C163.698 112.154 163.861 111.549 163.861 110.771C163.861 110.076 163.695 109.514 163.362 109.084C163.034 108.65 162.597 108.434 162.05 108.434C161.515 108.434 161.083 108.646 160.755 109.072C160.427 109.498 160.263 110.107 160.263 110.9ZM172.871 110.9C172.871 111.869 172.648 112.648 172.203 113.238C171.758 113.824 171.16 114.117 170.41 114.117C169.609 114.117 168.99 113.834 168.553 113.268L168.5 114H167.504V105H168.588V108.357C169.025 107.814 169.629 107.543 170.398 107.543C171.168 107.543 171.771 107.834 172.209 108.416C172.65 108.998 172.871 109.795 172.871 110.807V110.9ZM171.787 110.777C171.787 110.039 171.645 109.469 171.359 109.066C171.074 108.664 170.664 108.463 170.129 108.463C169.414 108.463 168.9 108.795 168.588 109.459V112.201C168.92 112.865 169.438 113.197 170.141 113.197C170.66 113.197 171.064 112.996 171.354 112.594C171.643 112.191 171.787 111.586 171.787 110.777ZM175.155 110.771C175.155 110.15 175.276 109.592 175.518 109.096C175.764 108.6 176.104 108.217 176.538 107.947C176.975 107.678 177.473 107.543 178.032 107.543C178.895 107.543 179.593 107.842 180.124 108.439C180.659 109.037 180.927 109.832 180.927 110.824V110.9C180.927 111.518 180.807 112.072 180.569 112.564C180.335 113.053 179.997 113.434 179.555 113.707C179.118 113.98 178.614 114.117 178.044 114.117C177.184 114.117 176.487 113.818 175.952 113.221C175.421 112.623 175.155 111.832 175.155 110.848V110.771ZM176.245 110.9C176.245 111.604 176.407 112.168 176.731 112.594C177.059 113.02 177.497 113.232 178.044 113.232C178.595 113.232 179.032 113.018 179.356 112.588C179.68 112.154 179.843 111.549 179.843 110.771C179.843 110.076 179.677 109.514 179.345 109.084C179.016 108.65 178.579 108.434 178.032 108.434C177.497 108.434 177.065 108.646 176.737 109.072C176.409 109.498 176.245 110.107 176.245 110.9ZM183.199 110.771C183.199 110.15 183.32 109.592 183.562 109.096C183.808 108.6 184.148 108.217 184.582 107.947C185.019 107.678 185.517 107.543 186.076 107.543C186.939 107.543 187.636 107.842 188.168 108.439C188.703 109.037 188.97 109.832 188.97 110.824V110.9C188.97 111.518 188.851 112.072 188.613 112.564C188.379 113.053 188.041 113.434 187.599 113.707C187.162 113.98 186.658 114.117 186.088 114.117C185.228 114.117 184.531 113.818 183.996 113.221C183.464 112.623 183.199 111.832 183.199 110.848V110.771ZM184.289 110.9C184.289 111.604 184.451 112.168 184.775 112.594C185.103 113.02 185.541 113.232 186.088 113.232C186.638 113.232 187.076 113.018 187.4 112.588C187.724 112.154 187.886 111.549 187.886 110.771C187.886 110.076 187.72 109.514 187.388 109.084C187.06 108.65 186.623 108.434 186.076 108.434C185.541 108.434 185.109 108.646 184.781 109.072C184.453 109.498 184.289 110.107 184.289 110.9ZM193.299 111.064L192.62 111.773V114H191.536V105H192.62V110.443L193.2 109.746L195.174 107.66H196.493L194.026 110.309L196.78 114H195.508L193.299 111.064Z" fill="#573B64"/>
<path d="M58.8333 82.0003H60.5V72.0003H58.8333V82.0003ZM62.1667 85.3337H63.8333V68.667H62.1667V85.3337ZM55.5 78.667H57.1667V75.3337H55.5V78.667ZM65.5 82.0003H67.1667V72.0003H65.5V82.0003ZM68.8333 75.3337V78.667H70.5V75.3337H68.8333Z" fill="#ECF6F3"/>
<path d="M40.1211 56.7734H36.5469L35.7441 59H34.584L37.8418 50.4688H38.8262L42.0898 59H40.9355L40.1211 56.7734ZM36.8867 55.8477H39.7871L38.334 51.8574L36.8867 55.8477ZM46.9121 58.373C46.4902 58.8691 45.8711 59.1172 45.0547 59.1172C44.3789 59.1172 43.8633 58.9219 43.5078 58.5312C43.1562 58.1367 42.9785 57.5547 42.9746 56.7852V52.6602H44.0586V56.7559C44.0586 57.7168 44.4492 58.1973 45.2305 58.1973C46.0586 58.1973 46.6094 57.8887 46.8828 57.2715V52.6602H47.9668V59H46.9355L46.9121 58.373ZM49.3555 55.7773C49.3555 54.8047 49.5859 54.0234 50.0469 53.4336C50.5078 52.8398 51.1113 52.543 51.8574 52.543C52.5996 52.543 53.1875 52.7969 53.6211 53.3047V50H54.7051V59H53.709L53.6562 58.3203C53.2227 58.8516 52.6191 59.1172 51.8457 59.1172C51.1113 59.1172 50.5117 58.8164 50.0469 58.2148C49.5859 57.6133 49.3555 56.8281 49.3555 55.8594V55.7773ZM50.4395 55.9004C50.4395 56.6191 50.5879 57.1816 50.8848 57.5879C51.1816 57.9941 51.5918 58.1973 52.1152 58.1973C52.8027 58.1973 53.3047 57.8887 53.6211 57.2715V54.3594C53.2969 53.7617 52.7988 53.4629 52.127 53.4629C51.5957 53.4629 51.1816 53.668 50.8848 54.0781C50.5879 54.4883 50.4395 55.0957 50.4395 55.9004ZM57.5703 59H56.4863V52.6602H57.5703V59ZM56.3984 50.9785C56.3984 50.8027 56.4512 50.6543 56.5566 50.5332C56.666 50.4121 56.8262 50.3516 57.0371 50.3516C57.248 50.3516 57.4082 50.4121 57.5176 50.5332C57.627 50.6543 57.6816 50.8027 57.6816 50.9785C57.6816 51.1543 57.627 51.3008 57.5176 51.418C57.4082 51.5352 57.248 51.5938 57.0371 51.5938C56.8262 51.5938 56.666 51.5352 56.5566 51.418C56.4512 51.3008 56.3984 51.1543 56.3984 50.9785ZM59.0234 55.7715C59.0234 55.1504 59.1445 54.5918 59.3867 54.0957C59.6328 53.5996 59.9727 53.2168 60.4062 52.9473C60.8438 52.6777 61.3418 52.543 61.9004 52.543C62.7637 52.543 63.4609 52.8418 63.9922 53.4395C64.5273 54.0371 64.7949 54.832 64.7949 55.8242V55.9004C64.7949 56.5176 64.6758 57.0723 64.4375 57.5645C64.2031 58.0527 63.8652 58.4336 63.4238 58.707C62.9863 58.9805 62.4824 59.1172 61.9121 59.1172C61.0527 59.1172 60.3555 58.8184 59.8203 58.2207C59.2891 57.623 59.0234 56.832 59.0234 55.8477V55.7715ZM60.1133 55.9004C60.1133 56.6035 60.2754 57.168 60.5996 57.5938C60.9277 58.0195 61.3652 58.2324 61.9121 58.2324C62.4629 58.2324 62.9004 58.0176 63.2246 57.5879C63.5488 57.1543 63.7109 56.5488 63.7109 55.7715C63.7109 55.0762 63.5449 54.5137 63.2129 54.084C62.8848 53.6504 62.4473 53.4336 61.9004 53.4336C61.3652 53.4336 60.9336 53.6465 60.6055 54.0723C60.2773 54.498 60.1133 55.1074 60.1133 55.9004ZM66.3242 59V50.4688H69.1133C70.0391 50.4688 70.7344 50.6602 71.1992 51.043C71.668 51.4258 71.9023 51.9922 71.9023 52.7422C71.9023 53.1406 71.7891 53.4941 71.5625 53.8027C71.3359 54.1074 71.0273 54.3438 70.6367 54.5117C71.0977 54.6406 71.4609 54.8867 71.7266 55.25C71.9961 55.6094 72.1309 56.0391 72.1309 56.5391C72.1309 57.3047 71.8828 57.9062 71.3867 58.3438C70.8906 58.7812 70.1895 59 69.2832 59H66.3242ZM67.4492 55.0098V58.0801H69.3066C69.8301 58.0801 70.2422 57.9453 70.543 57.6758C70.8477 57.4023 71 57.0273 71 56.5508C71 55.5234 70.4414 55.0098 69.3242 55.0098H67.4492ZM67.4492 54.1074H69.1484C69.6406 54.1074 70.0332 53.9844 70.3262 53.7383C70.623 53.4922 70.7715 53.1582 70.7715 52.7363C70.7715 52.2676 70.6348 51.9277 70.3613 51.7168C70.0879 51.502 69.6719 51.3945 69.1133 51.3945H67.4492V54.1074ZM73.3438 55.7715C73.3438 55.1504 73.4648 54.5918 73.707 54.0957C73.9531 53.5996 74.293 53.2168 74.7266 52.9473C75.1641 52.6777 75.6621 52.543 76.2207 52.543C77.084 52.543 77.7812 52.8418 78.3125 53.4395C78.8477 54.0371 79.1152 54.832 79.1152 55.8242V55.9004C79.1152 56.5176 78.9961 57.0723 78.7578 57.5645C78.5234 58.0527 78.1855 58.4336 77.7441 58.707C77.3066 58.9805 76.8027 59.1172 76.2324 59.1172C75.373 59.1172 74.6758 58.8184 74.1406 58.2207C73.6094 57.623 73.3438 56.832 73.3438 55.8477V55.7715ZM74.4336 55.9004C74.4336 56.6035 74.5957 57.168 74.9199 57.5938C75.248 58.0195 75.6855 58.2324 76.2324 58.2324C76.7832 58.2324 77.2207 58.0176 77.5449 57.5879C77.8691 57.1543 78.0312 56.5488 78.0312 55.7715C78.0312 55.0762 77.8652 54.5137 77.5332 54.084C77.2051 53.6504 76.7676 53.4336 76.2207 53.4336C75.6855 53.4336 75.2539 53.6465 74.9258 54.0723C74.5977 54.498 74.4336 55.1074 74.4336 55.9004ZM80.1875 55.7715C80.1875 55.1504 80.3086 54.5918 80.5508 54.0957C80.7969 53.5996 81.1367 53.2168 81.5703 52.9473C82.0078 52.6777 82.5059 52.543 83.0645 52.543C83.9277 52.543 84.625 52.8418 85.1562 53.4395C85.6914 54.0371 85.959 54.832 85.959 55.8242V55.9004C85.959 56.5176 85.8398 57.0723 85.6016 57.5645C85.3672 58.0527 85.0293 58.4336 84.5879 58.707C84.1504 58.9805 83.6465 59.1172 83.0762 59.1172C82.2168 59.1172 81.5195 58.8184 80.9844 58.2207C80.4531 57.623 80.1875 56.832 80.1875 55.8477V55.7715ZM81.2773 55.9004C81.2773 56.6035 81.4395 57.168 81.7637 57.5938C82.0918 58.0195 82.5293 58.2324 83.0762 58.2324C83.627 58.2324 84.0645 58.0176 84.3887 57.5879C84.7129 57.1543 84.875 56.5488 84.875 55.7715C84.875 55.0762 84.709 54.5137 84.377 54.084C84.0488 53.6504 83.6113 53.4336 83.0645 53.4336C82.5293 53.4336 82.0977 53.6465 81.7695 54.0723C81.4414 54.498 81.2773 55.1074 81.2773 55.9004ZM89.0879 56.0645L88.4082 56.7734V59H87.3242V50H88.4082V55.4434L88.9883 54.7461L90.9629 52.6602H92.2812L89.8145 55.3086L92.5684 59H91.2969L89.0879 56.0645Z" fill="#F5F2F8"/>
</g>
</g>
<defs>
<filter id="filter0_d" x="0" y="0" width="226" height="146" filterUnits="userSpaceOnUse" color-interpolation-filters="sRGB">
<feFlood flood-opacity="0" result="BackgroundImageFix"/>
<feColorMatrix in="SourceAlpha" type="matrix" values="0 0 0 0 0 0 0 0 0 0 0 0 0 0 0 0 0 0 127 0"/>
<feMorphology radius="5" operator="dilate" in="SourceAlpha" result="effect1_dropShadow"/>
<feOffset dy="4"/>
<feGaussianBlur stdDeviation="4"/>
<feColorMatrix type="matrix" values="0 0 0 0 0 0 0 0 0 0 0 0 0 0 0 0 0 0 0.3 0"/>
<feBlend mode="normal" in2="BackgroundImageFix" result="effect1_dropShadow"/>
<feBlend mode="normal" in="SourceGraphic" in2="effect1_dropShadow" result="shape"/>
</filter>
<clipPath id="clip0">
<rect x="13" y="9" width="200" height="120" rx="10" fill="white"/>
</clipPath>
</defs>
</svg>
