<svg width="226" height="146" viewBox="0 0 226 146" fill="none" xmlns="http://www.w3.org/2000/svg">
<g filter="url(#filter0_d)">
<g clip-path="url(#clip0)">
<rect x="13" y="9" width="200" height="120" rx="10" fill="white"/>
<path d="M13 19C13 13.4772 17.4772 9 23 9H113V129H23C17.4772 129 13 124.523 13 119V19Z" fill="#F0A13B"/>
<path d="M136.701 48.7734H133.127L132.324 51H131.164L134.422 42.4688H135.406L138.67 51H137.516L136.701 48.7734ZM133.467 47.8477H136.367L134.914 43.8574L133.467 47.8477ZM134.363 64.2324C134.75 64.2324 135.088 64.1152 135.377 63.8809C135.666 63.6465 135.826 63.3535 135.857 63.002H136.883C136.863 63.3652 136.738 63.7109 136.508 64.0391C136.277 64.3672 135.969 64.6289 135.582 64.8242C135.199 65.0195 134.793 65.1172 134.363 65.1172C133.5 65.1172 132.812 64.8301 132.301 64.2559C131.793 63.6777 131.539 62.8887 131.539 61.8887V61.707C131.539 61.0898 131.652 60.541 131.879 60.0605C132.105 59.5801 132.43 59.207 132.852 58.9414C133.277 58.6758 133.779 58.543 134.357 58.543C135.068 58.543 135.658 58.7559 136.127 59.1816C136.6 59.6074 136.852 60.1602 136.883 60.8398H135.857C135.826 60.4297 135.67 60.0938 135.389 59.832C135.111 59.5664 134.768 59.4336 134.357 59.4336C133.807 59.4336 133.379 59.6328 133.074 60.0312C132.773 60.4258 132.623 60.998 132.623 61.748V61.9531C132.623 62.6836 132.773 63.2461 133.074 63.6406C133.375 64.0352 133.805 64.2324 134.363 64.2324ZM139.014 61.7715C139.014 61.1504 139.136 60.5918 139.378 60.0957C139.624 59.5996 139.964 59.2168 140.397 58.9473C140.835 58.6777 141.333 58.543 141.891 58.543C142.755 58.543 143.452 58.8418 143.983 59.4395C144.518 60.0371 144.786 60.832 144.786 61.8242V61.9004C144.786 62.5176 144.667 63.0723 144.429 63.5645C144.194 64.0527 143.856 64.4336 143.415 64.707C142.977 64.9805 142.473 65.1172 141.903 65.1172C141.044 65.1172 140.346 64.8184 139.811 64.2207C139.28 63.623 139.014 62.832 139.014 61.8477V61.7715ZM140.104 61.9004C140.104 62.6035 140.266 63.168 140.591 63.5938C140.919 64.0195 141.356 64.2324 141.903 64.2324C142.454 64.2324 142.891 64.0176 143.216 63.5879C143.54 63.1543 143.702 62.5488 143.702 61.7715C143.702 61.0762 143.536 60.5137 143.204 60.084C142.876 59.6504 142.438 59.4336 141.891 59.4336C141.356 59.4336 140.925 59.6465 140.596 60.0723C140.268 60.498 140.104 61.1074 140.104 61.9004ZM151.259 64.373C150.837 64.8691 150.218 65.1172 149.402 65.1172C148.726 65.1172 148.211 64.9219 147.855 64.5312C147.504 64.1367 147.326 63.5547 147.322 62.7852V58.6602H148.406V62.7559C148.406 63.7168 148.796 64.1973 149.578 64.1973C150.406 64.1973 150.957 63.8887 151.23 63.2715V58.6602H152.314V65H151.283L151.259 64.373ZM156.192 58.6602L156.227 59.457C156.711 58.8477 157.344 58.543 158.125 58.543C159.465 58.543 160.141 59.2988 160.153 60.8105V65H159.069V60.8047C159.065 60.3477 158.959 60.0098 158.752 59.791C158.549 59.5723 158.231 59.4629 157.797 59.4629C157.446 59.4629 157.137 59.5566 156.871 59.7441C156.606 59.9316 156.399 60.1777 156.25 60.4824V65H155.166V58.6602H156.192ZM164.458 57.125V58.6602H165.642V59.498H164.458V63.4297C164.458 63.6836 164.511 63.875 164.616 64.0039C164.722 64.1289 164.902 64.1914 165.155 64.1914C165.28 64.1914 165.452 64.168 165.671 64.1211V65C165.386 65.0781 165.109 65.1172 164.839 65.1172C164.355 65.1172 163.989 64.9707 163.743 64.6777C163.497 64.3848 163.374 63.9688 163.374 63.4297V59.498H162.22V58.6602H163.374V57.125H164.458ZM167.85 61.7773C167.85 60.8047 168.08 60.0234 168.541 59.4336C169.002 58.8398 169.605 58.543 170.352 58.543C171.094 58.543 171.682 58.7969 172.115 59.3047V56H173.199V65H172.203L172.15 64.3203C171.717 64.8516 171.113 65.1172 170.34 65.1172C169.605 65.1172 169.006 64.8164 168.541 64.2148C168.08 63.6133 167.85 62.8281 167.85 61.8594V61.7773ZM168.934 61.9004C168.934 62.6191 169.082 63.1816 169.379 63.5879C169.676 63.9941 170.086 64.1973 170.609 64.1973C171.297 64.1973 171.799 63.8887 172.115 63.2715V60.3594C171.791 59.7617 171.293 59.4629 170.621 59.4629C170.09 59.4629 169.676 59.668 169.379 60.0781C169.082 60.4883 168.934 61.0957 168.934 61.9004ZM175.8 61.7715C175.8 61.1504 175.921 60.5918 176.163 60.0957C176.409 59.5996 176.749 59.2168 177.182 58.9473C177.62 58.6777 178.118 58.543 178.677 58.543C179.54 58.543 180.237 58.8418 180.768 59.4395C181.304 60.0371 181.571 60.832 181.571 61.8242V61.9004C181.571 62.5176 181.452 63.0723 181.214 63.5645C180.979 64.0527 180.641 64.4336 180.2 64.707C179.763 64.9805 179.259 65.1172 178.688 65.1172C177.829 65.1172 177.132 64.8184 176.596 64.2207C176.065 63.623 175.8 62.832 175.8 61.8477V61.7715ZM176.889 61.9004C176.889 62.6035 177.052 63.168 177.376 63.5938C177.704 64.0195 178.141 64.2324 178.688 64.2324C179.239 64.2324 179.677 64.0176 180.001 63.5879C180.325 63.1543 180.487 62.5488 180.487 61.7715C180.487 61.0762 180.321 60.5137 179.989 60.084C179.661 59.6504 179.223 59.4336 178.677 59.4336C178.141 59.4336 177.71 59.6465 177.382 60.0723C177.054 60.498 176.889 61.1074 176.889 61.9004ZM189.744 63.5059L190.963 58.6602H192.046L190.201 65H189.322L187.781 60.1953L186.281 65H185.402L183.562 58.6602H184.64L185.888 63.4062L187.365 58.6602H188.238L189.744 63.5059ZM195.379 58.6602L195.414 59.457C195.899 58.8477 196.532 58.543 197.313 58.543C198.653 58.543 199.329 59.2988 199.34 60.8105V65H198.256V60.8047C198.252 60.3477 198.147 60.0098 197.94 59.791C197.737 59.5723 197.418 59.4629 196.985 59.4629C196.633 59.4629 196.325 59.5566 196.059 59.7441C195.793 59.9316 195.586 60.1777 195.438 60.4824V65H194.354V58.6602H195.379ZM133.291 71.125V72.6602H134.475V73.498H133.291V77.4297C133.291 77.6836 133.344 77.875 133.449 78.0039C133.555 78.1289 133.734 78.1914 133.988 78.1914C134.113 78.1914 134.285 78.168 134.504 78.1211V79C134.219 79.0781 133.941 79.1172 133.672 79.1172C133.188 79.1172 132.822 78.9707 132.576 78.6777C132.33 78.3848 132.207 77.9688 132.207 77.4297V73.498H131.053V72.6602H132.207V71.125H133.291ZM138.124 79H137.04V72.6602H138.124V79ZM136.952 70.9785C136.952 70.8027 137.005 70.6543 137.11 70.5332C137.22 70.4121 137.38 70.3516 137.591 70.3516C137.802 70.3516 137.962 70.4121 138.071 70.5332C138.18 70.6543 138.235 70.8027 138.235 70.9785C138.235 71.1543 138.18 71.3008 138.071 71.418C137.962 71.5352 137.802 71.5938 137.591 71.5938C137.38 71.5938 137.22 71.5352 137.11 71.418C137.005 71.3008 136.952 71.1543 136.952 70.9785ZM142.084 72.6602L142.113 73.3633C142.578 72.8164 143.205 72.543 143.994 72.543C144.88 72.543 145.484 72.8828 145.804 73.5625C146.015 73.2578 146.289 73.0117 146.625 72.8242C146.964 72.6367 147.365 72.543 147.826 72.543C149.216 72.543 149.923 73.2793 149.947 74.752V79H148.863V74.8164C148.863 74.3633 148.759 74.0254 148.552 73.8027C148.345 73.5762 147.998 73.4629 147.509 73.4629C147.107 73.4629 146.773 73.584 146.507 73.8262C146.242 74.0645 146.087 74.3867 146.045 74.793V79H144.955V74.8457C144.955 73.9238 144.504 73.4629 143.601 73.4629C142.89 73.4629 142.404 73.7656 142.142 74.3711V79H141.058V72.6602H142.084ZM155.418 79.1172C154.559 79.1172 153.86 78.8359 153.321 78.2734C152.782 77.707 152.512 76.9512 152.512 76.0059V75.8066C152.512 75.1777 152.631 74.6172 152.87 74.125C153.112 73.6289 153.448 73.2422 153.877 72.9648C154.311 72.6836 154.78 72.543 155.284 72.543C156.108 72.543 156.748 72.8145 157.205 73.3574C157.663 73.9004 157.891 74.6777 157.891 75.6895V76.1406H153.596C153.612 76.7656 153.793 77.2715 154.141 77.6582C154.493 78.041 154.938 78.2324 155.477 78.2324C155.86 78.2324 156.184 78.1543 156.45 77.998C156.715 77.8418 156.948 77.6348 157.147 77.377L157.809 77.8926C157.278 78.709 156.481 79.1172 155.418 79.1172ZM155.284 73.4336C154.846 73.4336 154.479 73.5938 154.182 73.9141C153.885 74.2305 153.702 74.6758 153.631 75.25H156.807V75.168C156.776 74.6172 156.627 74.1914 156.362 73.8906C156.096 73.5859 155.737 73.4336 155.284 73.4336ZM163.415 73.6328C163.251 73.6055 163.073 73.5918 162.882 73.5918C162.171 73.5918 161.689 73.8945 161.435 74.5V79H160.351V72.6602H161.405L161.423 73.3926C161.779 72.8262 162.282 72.543 162.935 72.543C163.146 72.543 163.306 72.5703 163.415 72.625V73.6328ZM170.813 72.6602L170.843 73.3633C171.307 72.8164 171.934 72.543 172.723 72.543C173.61 72.543 174.214 72.8828 174.534 73.5625C174.745 73.2578 175.018 73.0117 175.354 72.8242C175.694 72.6367 176.095 72.543 176.555 72.543C177.946 72.543 178.653 73.2793 178.677 74.752V79H177.593V74.8164C177.593 74.3633 177.489 74.0254 177.282 73.8027C177.075 73.5762 176.727 73.4629 176.239 73.4629C175.837 73.4629 175.503 73.584 175.237 73.8262C174.971 74.0645 174.817 74.3867 174.774 74.793V79H173.684V74.8457C173.684 73.9238 173.233 73.4629 172.331 73.4629C171.62 73.4629 171.134 73.7656 170.872 74.3711V79H169.788V72.6602H170.813ZM185.431 79C185.369 78.875 185.318 78.6523 185.279 78.332C184.775 78.8555 184.173 79.1172 183.474 79.1172C182.849 79.1172 182.336 78.9414 181.933 78.5898C181.535 78.2344 181.336 77.7852 181.336 77.2422C181.336 76.582 181.586 76.0703 182.086 75.707C182.589 75.3398 183.296 75.1562 184.207 75.1562H185.261V74.6582C185.261 74.2793 185.148 73.9785 184.921 73.7559C184.695 73.5293 184.361 73.416 183.92 73.416C183.533 73.416 183.209 73.5137 182.947 73.709C182.685 73.9043 182.554 74.1406 182.554 74.418H181.464C181.464 74.1016 181.576 73.7969 181.798 73.5039C182.025 73.207 182.33 72.9727 182.713 72.8008C183.099 72.6289 183.523 72.543 183.984 72.543C184.714 72.543 185.287 72.7266 185.701 73.0938C186.115 73.457 186.33 73.959 186.345 74.5996V77.5176C186.345 78.0996 186.42 78.5625 186.568 78.9062V79H185.431ZM183.632 78.1738C183.972 78.1738 184.295 78.0859 184.599 77.9102C184.904 77.7344 185.125 77.5059 185.261 77.2246V75.9238H184.412C183.084 75.9238 182.42 76.3125 182.42 77.0898C182.42 77.4297 182.533 77.6953 182.759 77.8867C182.986 78.0781 183.277 78.1738 183.632 78.1738ZM188.981 75.7773C188.981 74.8047 189.211 74.0234 189.672 73.4336C190.133 72.8398 190.737 72.543 191.483 72.543C192.225 72.543 192.813 72.7969 193.246 73.3047V70H194.33V79H193.334L193.282 78.3203C192.848 78.8516 192.245 79.1172 191.471 79.1172C190.737 79.1172 190.137 78.8164 189.672 78.2148C189.211 77.6133 188.981 76.8281 188.981 75.8594V75.7773ZM190.065 75.9004C190.065 76.6191 190.213 77.1816 190.51 77.5879C190.807 77.9941 191.217 78.1973 191.741 78.1973C192.428 78.1973 192.93 77.8887 193.246 77.2715V74.3594C192.922 73.7617 192.424 73.4629 191.752 73.4629C191.221 73.4629 190.807 73.668 190.51 74.0781C190.213 74.4883 190.065 75.0957 190.065 75.9004ZM199.849 79.1172C198.989 79.1172 198.29 78.8359 197.751 78.2734C197.212 77.707 196.943 76.9512 196.943 76.0059V75.8066C196.943 75.1777 197.062 74.6172 197.3 74.125C197.542 73.6289 197.878 73.2422 198.308 72.9648C198.741 72.6836 199.21 72.543 199.714 72.543C200.538 72.543 201.179 72.8145 201.636 73.3574C202.093 73.9004 202.321 74.6777 202.321 75.6895V76.1406H198.027C198.042 76.7656 198.224 77.2715 198.571 77.6582C198.923 78.041 199.368 78.2324 199.907 78.2324C200.29 78.2324 200.614 78.1543 200.88 77.998C201.146 77.8418 201.378 77.6348 201.577 77.377L202.239 77.8926C201.708 78.709 200.911 79.1172 199.849 79.1172ZM199.714 73.4336C199.277 73.4336 198.909 73.5938 198.613 73.9141C198.316 74.2305 198.132 74.6758 198.062 75.25H201.238V75.168C201.206 74.6172 201.058 74.1914 200.792 73.8906C200.527 73.5859 200.167 73.4336 199.714 73.4336ZM132.998 93H131.914V86.6602H132.998V93ZM131.826 84.9785C131.826 84.8027 131.879 84.6543 131.984 84.5332C132.094 84.4121 132.254 84.3516 132.465 84.3516C132.676 84.3516 132.836 84.4121 132.945 84.5332C133.055 84.6543 133.109 84.8027 133.109 84.9785C133.109 85.1543 133.055 85.3008 132.945 85.418C132.836 85.5352 132.676 85.5938 132.465 85.5938C132.254 85.5938 132.094 85.5352 131.984 85.418C131.879 85.3008 131.826 85.1543 131.826 84.9785ZM136.964 86.6602L136.999 87.457C137.483 86.8477 138.116 86.543 138.897 86.543C140.237 86.543 140.913 87.2988 140.925 88.8105V93H139.841V88.8047C139.837 88.3477 139.731 88.0098 139.524 87.791C139.321 87.5723 139.003 87.4629 138.569 87.4629C138.218 87.4629 137.909 87.5566 137.643 87.7441C137.378 87.9316 137.171 88.1777 137.022 88.4824V93H135.938V86.6602H136.964ZM151 87.6328C150.836 87.6055 150.659 87.5918 150.467 87.5918C149.756 87.5918 149.274 87.8945 149.02 88.5V93H147.936V86.6602H148.991L149.008 87.3926C149.364 86.8262 149.868 86.543 150.52 86.543C150.731 86.543 150.891 86.5703 151 86.625V87.6328ZM155.716 93.1172C154.857 93.1172 154.157 92.8359 153.618 92.2734C153.079 91.707 152.81 90.9512 152.81 90.0059V89.8066C152.81 89.1777 152.929 88.6172 153.167 88.125C153.409 87.6289 153.745 87.2422 154.175 86.9648C154.609 86.6836 155.077 86.543 155.581 86.543C156.405 86.543 157.046 86.8145 157.503 87.3574C157.96 87.9004 158.189 88.6777 158.189 89.6895V90.1406H153.894C153.909 90.7656 154.091 91.2715 154.439 91.6582C154.79 92.041 155.236 92.2324 155.775 92.2324C156.157 92.2324 156.482 92.1543 156.747 91.998C157.013 91.8418 157.245 91.6348 157.445 91.377L158.107 91.8926C157.575 92.709 156.779 93.1172 155.716 93.1172ZM155.581 87.4336C155.144 87.4336 154.777 87.5938 154.48 87.9141C154.183 88.2305 153.999 88.6758 153.929 89.25H157.105V89.168C157.073 88.6172 156.925 88.1914 156.659 87.8906C156.394 87.5859 156.034 87.4336 155.581 87.4336ZM164.562 93C164.5 92.875 164.449 92.6523 164.41 92.332C163.906 92.8555 163.305 93.1172 162.605 93.1172C161.98 93.1172 161.467 92.9414 161.064 92.5898C160.666 92.2344 160.467 91.7852 160.467 91.2422C160.467 90.582 160.717 90.0703 161.217 89.707C161.721 89.3398 162.428 89.1562 163.338 89.1562H164.393V88.6582C164.393 88.2793 164.279 87.9785 164.053 87.7559C163.826 87.5293 163.492 87.416 163.051 87.416C162.664 87.416 162.34 87.5137 162.078 87.709C161.816 87.9043 161.686 88.1406 161.686 88.418H160.596C160.596 88.1016 160.707 87.7969 160.93 87.5039C161.156 87.207 161.461 86.9727 161.844 86.8008C162.23 86.6289 162.654 86.543 163.115 86.543C163.846 86.543 164.418 86.7266 164.832 87.0938C165.246 87.457 165.461 87.959 165.477 88.5996V91.5176C165.477 92.0996 165.551 92.5625 165.699 92.9062V93H164.562ZM162.764 92.1738C163.104 92.1738 163.426 92.0859 163.73 91.9102C164.035 91.7344 164.256 91.5059 164.393 91.2246V89.9238H163.543C162.215 89.9238 161.551 90.3125 161.551 91.0898C161.551 91.4297 161.664 91.6953 161.891 91.8867C162.117 92.0781 162.408 92.1738 162.764 92.1738ZM170.919 92.2324C171.305 92.2324 171.643 92.1152 171.932 91.8809C172.221 91.6465 172.382 91.3535 172.413 91.002H173.438C173.419 91.3652 173.294 91.7109 173.063 92.0391C172.833 92.3672 172.524 92.6289 172.138 92.8242C171.755 93.0195 171.348 93.1172 170.919 93.1172C170.055 93.1172 169.368 92.8301 168.856 92.2559C168.348 91.6777 168.095 90.8887 168.095 89.8887V89.707C168.095 89.0898 168.208 88.541 168.434 88.0605C168.661 87.5801 168.985 87.207 169.407 86.9414C169.833 86.6758 170.335 86.543 170.913 86.543C171.624 86.543 172.214 86.7559 172.682 87.1816C173.155 87.6074 173.407 88.1602 173.438 88.8398H172.413C172.382 88.4297 172.225 88.0938 171.944 87.832C171.667 87.5664 171.323 87.4336 170.913 87.4336C170.362 87.4336 169.934 87.6328 169.63 88.0312C169.329 88.4258 169.179 88.998 169.179 89.748V89.9531C169.179 90.6836 169.329 91.2461 169.63 91.6406C169.93 92.0352 170.36 92.2324 170.919 92.2324ZM177.328 85.125V86.6602H178.511V87.498H177.328V91.4297C177.328 91.6836 177.38 91.875 177.486 92.0039C177.591 92.1289 177.771 92.1914 178.025 92.1914C178.15 92.1914 178.322 92.168 178.541 92.1211V93C178.255 93.0781 177.978 93.1172 177.709 93.1172C177.224 93.1172 176.859 92.9707 176.613 92.6777C176.367 92.3848 176.244 91.9688 176.244 91.4297V87.498H175.089V86.6602H176.244V85.125H177.328Z" fill="#573B64"/>
<path fill-rule="evenodd" clip-rule="evenodd" d="M57.0508 -76.5362L60.6621 -63.8466C64.2734 -51.157 71.496 -25.7777 81.9044 -0.504428C92.3127 24.7689 105.907 49.9362 90.8293 76.0571C75.7517 102.178 32.0025 129.253 42.4108 154.526C52.8192 179.799 117.385 203.271 149.668 215.007L181.951 226.743L-9.19337 233.101L-9.61894 220.305C-10.0445 207.509 -10.8956 181.918 -11.7468 156.327C-12.5979 130.736 -13.449 105.145 -14.3002 79.5536C-15.1513 53.9625 -16.0025 28.3713 -16.8536 2.78016C-17.7047 -22.811 -18.5559 -48.4022 -18.9814 -61.1977L-19.407 -73.9933L57.0508 -76.5362Z" fill="#FFB657"/>
<path fill-rule="evenodd" clip-rule="evenodd" d="M19.1814 -41.1902L21.7662 -29.8867C24.351 -18.5832 29.5206 4.02391 36.8967 26.5576C44.2727 49.0913 53.8552 71.5516 43.5798 94.6723C33.3045 117.793 3.17131 141.574 10.5474 164.108C17.9234 186.642 62.8086 207.928 85.2513 218.571L107.694 229.214L-24.6916 233.617L-25.0699 222.24C-25.4483 210.863 -26.2051 188.109 -26.9619 165.355C-27.7186 142.602 -28.4754 119.848 -29.2322 97.094C-29.9889 74.3401 -30.7457 51.5863 -31.5025 28.8325C-32.2592 6.07864 -33.016 -16.6752 -33.3944 -28.0521L-33.7728 -39.429L19.1814 -41.1902Z" fill="#EA901D"/>
<path d="M38.7324 49.293C38.627 50.1953 38.293 50.8926 37.7305 51.3848C37.1719 51.873 36.4277 52.1172 35.498 52.1172C34.4902 52.1172 33.6816 51.7559 33.0723 51.0332C32.4668 50.3105 32.1641 49.3438 32.1641 48.1328V47.3125C32.1641 46.5195 32.3047 45.8223 32.5859 45.2207C32.8711 44.6191 33.2734 44.1582 33.793 43.8379C34.3125 43.5137 34.9141 43.3516 35.5977 43.3516C36.5039 43.3516 37.2305 43.6055 37.7773 44.1133C38.3242 44.6172 38.6426 45.3164 38.7324 46.2109H37.6016C37.5039 45.5312 37.291 45.0391 36.9629 44.7344C36.6387 44.4297 36.1836 44.2773 35.5977 44.2773C34.8789 44.2773 34.3145 44.543 33.9043 45.0742C33.498 45.6055 33.2949 46.3613 33.2949 47.3418V48.168C33.2949 49.0938 33.4883 49.8301 33.875 50.377C34.2617 50.9238 34.8027 51.1973 35.498 51.1973C36.123 51.1973 36.6016 51.0566 36.9336 50.7754C37.2695 50.4902 37.4922 49.9961 37.6016 49.293H38.7324ZM39.8164 48.7715C39.8164 48.1504 39.9375 47.5918 40.1797 47.0957C40.4258 46.5996 40.7656 46.2168 41.1992 45.9473C41.6367 45.6777 42.1348 45.543 42.6934 45.543C43.5566 45.543 44.2539 45.8418 44.7852 46.4395C45.3203 47.0371 45.5879 47.832 45.5879 48.8242V48.9004C45.5879 49.5176 45.4688 50.0723 45.2305 50.5645C44.9961 51.0527 44.6582 51.4336 44.2168 51.707C43.7793 51.9805 43.2754 52.1172 42.7051 52.1172C41.8457 52.1172 41.1484 51.8184 40.6133 51.2207C40.082 50.623 39.8164 49.832 39.8164 48.8477V48.7715ZM40.9062 48.9004C40.9062 49.6035 41.0684 50.168 41.3926 50.5938C41.7207 51.0195 42.1582 51.2324 42.7051 51.2324C43.2559 51.2324 43.6934 51.0176 44.0176 50.5879C44.3418 50.1543 44.5039 49.5488 44.5039 48.7715C44.5039 48.0762 44.3379 47.5137 44.0059 47.084C43.6777 46.6504 43.2402 46.4336 42.6934 46.4336C42.1582 46.4336 41.7266 46.6465 41.3984 47.0723C41.0703 47.498 40.9062 48.1074 40.9062 48.9004ZM50.8613 51.373C50.4395 51.8691 49.8203 52.1172 49.0039 52.1172C48.3281 52.1172 47.8125 51.9219 47.457 51.5312C47.1055 51.1367 46.9277 50.5547 46.9238 49.7852V45.6602H48.0078V49.7559C48.0078 50.7168 48.3984 51.1973 49.1797 51.1973C50.0078 51.1973 50.5586 50.8887 50.832 50.2715V45.6602H51.916V52H50.8848L50.8613 51.373ZM54.5938 45.6602L54.6289 46.457C55.1133 45.8477 55.7461 45.543 56.5273 45.543C57.8672 45.543 58.543 46.2988 58.5547 47.8105V52H57.4707V47.8047C57.4668 47.3477 57.3613 47.0098 57.1543 46.791C56.9512 46.5723 56.6328 46.4629 56.1992 46.4629C55.8477 46.4629 55.5391 46.5566 55.2734 46.7441C55.0078 46.9316 54.8008 47.1777 54.6523 47.4824V52H53.5684V45.6602H54.5938ZM61.6602 44.125V45.6602H62.8438V46.498H61.6602V50.4297C61.6602 50.6836 61.7129 50.875 61.8184 51.0039C61.9238 51.1289 62.1035 51.1914 62.3574 51.1914C62.4824 51.1914 62.6543 51.168 62.873 51.1211V52C62.5879 52.0781 62.3105 52.1172 62.041 52.1172C61.5566 52.1172 61.1914 51.9707 60.9453 51.6777C60.6992 51.3848 60.5762 50.9688 60.5762 50.4297V46.498H59.4219V45.6602H60.5762V44.125H61.6602ZM63.8516 48.7773C63.8516 47.8047 64.082 47.0234 64.543 46.4336C65.0039 45.8398 65.6074 45.543 66.3535 45.543C67.0957 45.543 67.6836 45.7969 68.1172 46.3047V43H69.2012V52H68.2051L68.1523 51.3203C67.7188 51.8516 67.1152 52.1172 66.3418 52.1172C65.6074 52.1172 65.0078 51.8164 64.543 51.2148C64.082 50.6133 63.8516 49.8281 63.8516 48.8594V48.7773ZM64.9355 48.9004C64.9355 49.6191 65.084 50.1816 65.3809 50.5879C65.6777 50.9941 66.0879 51.1973 66.6113 51.1973C67.2988 51.1973 67.8008 50.8887 68.1172 50.2715V47.3594C67.793 46.7617 67.2949 46.4629 66.623 46.4629C66.0918 46.4629 65.6777 46.668 65.3809 47.0781C65.084 47.4883 64.9355 48.0957 64.9355 48.9004ZM70.6016 48.7715C70.6016 48.1504 70.7227 47.5918 70.9648 47.0957C71.2109 46.5996 71.5508 46.2168 71.9844 45.9473C72.4219 45.6777 72.9199 45.543 73.4785 45.543C74.3418 45.543 75.0391 45.8418 75.5703 46.4395C76.1055 47.0371 76.373 47.832 76.373 48.8242V48.9004C76.373 49.5176 76.2539 50.0723 76.0156 50.5645C75.7812 51.0527 75.4434 51.4336 75.002 51.707C74.5645 51.9805 74.0605 52.1172 73.4902 52.1172C72.6309 52.1172 71.9336 51.8184 71.3984 51.2207C70.8672 50.623 70.6016 49.832 70.6016 48.8477V48.7715ZM71.6914 48.9004C71.6914 49.6035 71.8535 50.168 72.1777 50.5938C72.5059 51.0195 72.9434 51.2324 73.4902 51.2324C74.041 51.2324 74.4785 51.0176 74.8027 50.5879C75.127 50.1543 75.2891 49.5488 75.2891 48.7715C75.2891 48.0762 75.123 47.5137 74.791 47.084C74.4629 46.6504 74.0254 46.4336 73.4785 46.4336C72.9434 46.4336 72.5117 46.6465 72.1836 47.0723C71.8555 47.498 71.6914 48.1074 71.6914 48.9004ZM83.3457 50.5059L84.5645 45.6602H85.6484L83.8027 52H82.9238L81.3828 47.1953L79.8828 52H79.0039L77.1641 45.6602H78.2422L79.4902 50.4062L80.9668 45.6602H81.8398L83.3457 50.5059ZM87.7812 45.6602L87.8164 46.457C88.3008 45.8477 88.9336 45.543 89.7148 45.543C91.0547 45.543 91.7305 46.2988 91.7422 47.8105V52H90.6582V47.8047C90.6543 47.3477 90.5488 47.0098 90.3418 46.791C90.1387 46.5723 89.8203 46.4629 89.3867 46.4629C89.0352 46.4629 88.7266 46.5566 88.4609 46.7441C88.1953 46.9316 87.9883 47.1777 87.8398 47.4824V52H86.7559V45.6602H87.7812ZM54.8691 58.3945H52.127V66H51.0078V58.3945H48.2715V57.4688H54.8691V58.3945ZM57.1426 66H56.0586V59.6602H57.1426V66ZM55.9707 57.9785C55.9707 57.8027 56.0234 57.6543 56.1289 57.5332C56.2383 57.4121 56.3984 57.3516 56.6094 57.3516C56.8203 57.3516 56.9805 57.4121 57.0898 57.5332C57.1992 57.6543 57.2539 57.8027 57.2539 57.9785C57.2539 58.1543 57.1992 58.3008 57.0898 58.418C56.9805 58.5352 56.8203 58.5938 56.6094 58.5938C56.3984 58.5938 56.2383 58.5352 56.1289 58.418C56.0234 58.3008 55.9707 58.1543 55.9707 57.9785ZM59.9023 59.6602L59.9316 60.3633C60.3965 59.8164 61.0234 59.543 61.8125 59.543C62.6992 59.543 63.3027 59.8828 63.623 60.5625C63.834 60.2578 64.1074 60.0117 64.4434 59.8242C64.7832 59.6367 65.1836 59.543 65.6445 59.543C67.0352 59.543 67.7422 60.2793 67.7656 61.752V66H66.6816V61.8164C66.6816 61.3633 66.5781 61.0254 66.3711 60.8027C66.1641 60.5762 65.8164 60.4629 65.3281 60.4629C64.9258 60.4629 64.5918 60.584 64.3262 60.8262C64.0605 61.0645 63.9062 61.3867 63.8633 61.793V66H62.7734V61.8457C62.7734 60.9238 62.3223 60.4629 61.4199 60.4629C60.709 60.4629 60.2227 60.7656 59.9609 61.3711V66H58.877V59.6602H59.9023ZM72.0371 66.1172C71.1777 66.1172 70.4785 65.8359 69.9395 65.2734C69.4004 64.707 69.1309 63.9512 69.1309 63.0059V62.8066C69.1309 62.1777 69.25 61.6172 69.4883 61.125C69.7305 60.6289 70.0664 60.2422 70.4961 59.9648C70.9297 59.6836 71.3984 59.543 71.9023 59.543C72.7266 59.543 73.3672 59.8145 73.8242 60.3574C74.2812 60.9004 74.5098 61.6777 74.5098 62.6895V63.1406H70.2148C70.2305 63.7656 70.4121 64.2715 70.7598 64.6582C71.1113 65.041 71.5566 65.2324 72.0957 65.2324C72.4785 65.2324 72.8027 65.1543 73.0684 64.998C73.334 64.8418 73.5664 64.6348 73.7656 64.377L74.4277 64.8926C73.8965 65.709 73.0996 66.1172 72.0371 66.1172ZM71.9023 60.4336C71.4648 60.4336 71.0977 60.5938 70.8008 60.9141C70.5039 61.2305 70.3203 61.6758 70.25 62.25H73.4258V62.168C73.3945 61.6172 73.2461 61.1914 72.9805 60.8906C72.7148 60.5859 72.3555 60.4336 71.9023 60.4336ZM78.834 60.6328C78.6699 60.6055 78.4922 60.5918 78.3008 60.5918C77.5898 60.5918 77.1074 60.8945 76.8535 61.5V66H75.7695V59.6602H76.8242L76.8418 60.3926C77.1973 59.8262 77.7012 59.543 78.3535 59.543C78.5645 59.543 78.7246 59.5703 78.834 59.625V60.6328Z" fill="#F5F2F8"/>
<path d="M65.5 74.833H60.5V76.4997H65.5V74.833ZM62.1667 85.6663H63.8333V80.6663H62.1667V85.6663ZM68.8583 80.158L70.0417 78.9747C69.6833 78.5497 69.2917 78.1497 68.8667 77.7997L67.6833 78.983C66.3917 77.9497 64.7667 77.333 63 77.333C58.8583 77.333 55.5 80.6913 55.5 84.833C55.5 88.9747 58.85 92.333 63 92.333C67.15 92.333 70.5 88.9747 70.5 84.833C70.5 83.0663 69.8833 81.4413 68.8583 80.158ZM63 90.6663C59.775 90.6663 57.1667 88.058 57.1667 84.833C57.1667 81.608 59.775 78.9997 63 78.9997C66.225 78.9997 68.8333 81.608 68.8333 84.833C68.8333 88.058 66.225 90.6663 63 90.6663Z" fill="#ECF6F3"/>
</g>
</g>
<defs>
<filter id="filter0_d" x="0" y="0" width="226" height="146" filterUnits="userSpaceOnUse" color-interpolation-filters="sRGB">
<feFlood flood-opacity="0" result="BackgroundImageFix"/>
<feColorMatrix in="SourceAlpha" type="matrix" values="0 0 0 0 0 0 0 0 0 0 0 0 0 0 0 0 0 0 127 0"/>
<feMorphology radius="5" operator="dilate" in="SourceAlpha" result="effect1_dropShadow"/>
<feOffset dy="4"/>
<feGaussianBlur stdDeviation="4"/>
<feColorMatrix type="matrix" values="0 0 0 0 0 0 0 0 0 0 0 0 0 0 0 0 0 0 0.3 0"/>
<feBlend mode="normal" in2="BackgroundImageFix" result="effect1_dropShadow"/>
<feBlend mode="normal" in="SourceGraphic" in2="effect1_dropShadow" result="shape"/>
</filter>
<clipPath id="clip0">
<rect x="13" y="9" width="200" height="120" rx="10" fill="white"/>
</clipPath>
</defs>
</svg>
