<svg width="226" height="146" viewBox="0 0 226 146" fill="none" xmlns="http://www.w3.org/2000/svg">
<g filter="url(#filter0_d)">
<g clip-path="url(#clip0)">
<rect x="13" y="9" width="200" height="120" rx="10" fill="white"/>
<path d="M113 9H203C208.523 9 213 13.4772 213 19V119C213 124.523 208.523 129 203 129H113V9Z" fill="#4CBCC5"/>
<path d="M33.7012 37.7734H30.127L29.3242 40H28.1641L31.4219 31.4688H32.4062L35.6699 40H34.5156L33.7012 37.7734ZM30.4668 36.8477H33.3672L31.9141 32.8574L30.4668 36.8477ZM43.648 31.4688L46.4371 38.4297L49.2262 31.4688H50.6852V40H49.5602V36.6777L49.6656 33.0918L46.8648 40H46.0035L43.2086 33.1094L43.3199 36.6777V40H42.1949V31.4688H43.648ZM57.6156 40C57.5531 39.875 57.5023 39.6523 57.4633 39.332C56.9594 39.8555 56.3578 40.1172 55.6586 40.1172C55.0336 40.1172 54.5199 39.9414 54.1176 39.5898C53.7191 39.2344 53.5199 38.7852 53.5199 38.2422C53.5199 37.582 53.7699 37.0703 54.2699 36.707C54.7738 36.3398 55.4809 36.1562 56.391 36.1562H57.4457V35.6582C57.4457 35.2793 57.3324 34.9785 57.1059 34.7559C56.8793 34.5293 56.5453 34.416 56.1039 34.416C55.7172 34.416 55.393 34.5137 55.1313 34.709C54.8695 34.9043 54.7387 35.1406 54.7387 35.418H53.6488C53.6488 35.1016 53.7602 34.7969 53.9828 34.5039C54.2094 34.207 54.5141 33.9727 54.8969 33.8008C55.2836 33.6289 55.7074 33.543 56.1684 33.543C56.8988 33.543 57.4711 33.7266 57.8852 34.0938C58.2992 34.457 58.5141 34.959 58.5297 35.5996V38.5176C58.5297 39.0996 58.6039 39.5625 58.7523 39.9062V40H57.6156ZM55.8168 39.1738C56.1566 39.1738 56.4789 39.0859 56.7836 38.9102C57.0883 38.7344 57.309 38.5059 57.4457 38.2246V36.9238H56.5961C55.268 36.9238 54.6039 37.3125 54.6039 38.0898C54.6039 38.4297 54.7172 38.6953 54.9438 38.8867C55.1703 39.0781 55.4613 39.1738 55.8168 39.1738ZM63.9719 39.2324C64.3586 39.2324 64.6965 39.1152 64.9855 38.8809C65.2746 38.6465 65.4348 38.3535 65.466 38.002H66.4914C66.4719 38.3652 66.3469 38.7109 66.1164 39.0391C65.8859 39.3672 65.5773 39.6289 65.1906 39.8242C64.8078 40.0195 64.4016 40.1172 63.9719 40.1172C63.1086 40.1172 62.4211 39.8301 61.9094 39.2559C61.4016 38.6777 61.1477 37.8887 61.1477 36.8887V36.707C61.1477 36.0898 61.2609 35.541 61.4875 35.0605C61.7141 34.5801 62.0383 34.207 62.4602 33.9414C62.8859 33.6758 63.3879 33.543 63.966 33.543C64.677 33.543 65.2668 33.7559 65.7355 34.1816C66.2082 34.6074 66.4602 35.1602 66.4914 35.8398H65.466C65.4348 35.4297 65.2785 35.0938 64.9973 34.832C64.7199 34.5664 64.3762 34.4336 63.966 34.4336C63.4152 34.4336 62.9875 34.6328 62.6828 35.0312C62.382 35.4258 62.2316 35.998 62.2316 36.748V36.9531C62.2316 37.6836 62.382 38.2461 62.6828 38.6406C62.9836 39.0352 63.4133 39.2324 63.9719 39.2324ZM69.9941 34.4277C70.4746 33.8379 71.0996 33.543 71.8691 33.543C73.209 33.543 73.8848 34.2988 73.8965 35.8105V40H72.8125V35.8047C72.8086 35.3477 72.7031 35.0098 72.4961 34.791C72.293 34.5723 71.9746 34.4629 71.541 34.4629C71.1895 34.4629 70.8809 34.5566 70.6152 34.7441C70.3496 34.9316 70.1426 35.1777 69.9941 35.4824V40H68.9102V31H69.9941V34.4277ZM77.8973 40H76.8133V33.6602H77.8973V40ZM76.7254 31.9785C76.7254 31.8027 76.7781 31.6543 76.8836 31.5332C76.993 31.4121 77.1531 31.3516 77.3641 31.3516C77.575 31.3516 77.7352 31.4121 77.8445 31.5332C77.9539 31.6543 78.0086 31.8027 78.0086 31.9785C78.0086 32.1543 77.9539 32.3008 77.8445 32.418C77.7352 32.5352 77.575 32.5938 77.3641 32.5938C77.1531 32.5938 76.993 32.5352 76.8836 32.418C76.7781 32.3008 76.7254 32.1543 76.7254 31.9785ZM81.8629 33.6602L81.898 34.457C82.3824 33.8477 83.0152 33.543 83.7965 33.543C85.1363 33.543 85.8121 34.2988 85.8238 35.8105V40H84.7398V35.8047C84.7359 35.3477 84.6305 35.0098 84.4234 34.791C84.2203 34.5723 83.902 34.4629 83.4684 34.4629C83.1168 34.4629 82.8082 34.5566 82.5426 34.7441C82.277 34.9316 82.0699 35.1777 81.9215 35.4824V40H80.8375V33.6602H81.8629ZM91.2895 40.1172C90.4301 40.1172 89.7309 39.8359 89.1918 39.2734C88.6527 38.707 88.3832 37.9512 88.3832 37.0059V36.8066C88.3832 36.1777 88.5023 35.6172 88.7406 35.125C88.9828 34.6289 89.3187 34.2422 89.7484 33.9648C90.182 33.6836 90.6508 33.543 91.1547 33.543C91.9789 33.543 92.6195 33.8145 93.0766 34.3574C93.5336 34.9004 93.7621 35.6777 93.7621 36.6895V37.1406H89.4672C89.4828 37.7656 89.6645 38.2715 90.0121 38.6582C90.3637 39.041 90.809 39.2324 91.348 39.2324C91.7309 39.2324 92.0551 39.1543 92.3207 38.998C92.5863 38.8418 92.8187 38.6348 93.018 38.377L93.6801 38.8926C93.1488 39.709 92.352 40.1172 91.2895 40.1172ZM91.1547 34.4336C90.7172 34.4336 90.35 34.5938 90.0531 34.9141C89.7562 35.2305 89.5727 35.6758 89.5023 36.25H92.6781V36.168C92.6469 35.6172 92.4984 35.1914 92.2328 34.8906C91.9672 34.5859 91.6078 34.4336 91.1547 34.4336ZM30.1211 53.0801H34.1641V54H28.9902V45.4688H30.1211V53.0801ZM39.1082 54.1172C38.2488 54.1172 37.5496 53.8359 37.0105 53.2734C36.4715 52.707 36.202 51.9512 36.202 51.0059V50.8066C36.202 50.1777 36.3211 49.6172 36.5594 49.125C36.8016 48.6289 37.1375 48.2422 37.5672 47.9648C38.0008 47.6836 38.4695 47.543 38.9734 47.543C39.7977 47.543 40.4383 47.8145 40.8953 48.3574C41.3523 48.9004 41.5809 49.6777 41.5809 50.6895V51.1406H37.2859C37.3016 51.7656 37.4832 52.2715 37.8309 52.6582C38.1824 53.041 38.6277 53.2324 39.1668 53.2324C39.5496 53.2324 39.8738 53.1543 40.1395 52.998C40.4051 52.8418 40.6375 52.6348 40.8367 52.377L41.4988 52.8926C40.9676 53.709 40.1707 54.1172 39.1082 54.1172ZM38.9734 48.4336C38.5359 48.4336 38.1687 48.5938 37.8719 48.9141C37.575 49.2305 37.3914 49.6758 37.3211 50.25H40.4969V50.168C40.4656 49.6172 40.3172 49.1914 40.0516 48.8906C39.7859 48.5859 39.4266 48.4336 38.9734 48.4336ZM47.9547 54C47.8922 53.875 47.8414 53.6523 47.8023 53.332C47.2984 53.8555 46.6969 54.1172 45.9977 54.1172C45.3727 54.1172 44.859 53.9414 44.4566 53.5898C44.0582 53.2344 43.859 52.7852 43.859 52.2422C43.859 51.582 44.109 51.0703 44.609 50.707C45.1129 50.3398 45.8199 50.1562 46.7301 50.1562H47.7848V49.6582C47.7848 49.2793 47.6715 48.9785 47.4449 48.7559C47.2184 48.5293 46.8844 48.416 46.443 48.416C46.0562 48.416 45.732 48.5137 45.4703 48.709C45.2086 48.9043 45.0777 49.1406 45.0777 49.418H43.9879C43.9879 49.1016 44.0992 48.7969 44.3219 48.5039C44.5484 48.207 44.8531 47.9727 45.2359 47.8008C45.6227 47.6289 46.0465 47.543 46.5074 47.543C47.2379 47.543 47.8102 47.7266 48.2242 48.0938C48.6383 48.457 48.8531 48.959 48.8687 49.5996V52.5176C48.8687 53.0996 48.943 53.5625 49.0914 53.9062V54H47.9547ZM46.1559 53.1738C46.4957 53.1738 46.818 53.0859 47.1227 52.9102C47.4273 52.7344 47.648 52.5059 47.7848 52.2246V50.9238H46.9352C45.607 50.9238 44.943 51.3125 44.943 52.0898C44.943 52.4297 45.0562 52.6953 45.2828 52.8867C45.5094 53.0781 45.8004 53.1738 46.1559 53.1738ZM54.8324 48.6328C54.6684 48.6055 54.4906 48.5918 54.2992 48.5918C53.5883 48.5918 53.1059 48.8945 52.852 49.5V54H51.768V47.6602H52.8227L52.8402 48.3926C53.1957 47.8262 53.6996 47.543 54.352 47.543C54.5629 47.543 54.723 47.5703 54.8324 47.625V48.6328ZM58.0598 47.6602L58.0949 48.457C58.5793 47.8477 59.2121 47.543 59.9934 47.543C61.3332 47.543 62.009 48.2988 62.0207 49.8105V54H60.9367V49.8047C60.9328 49.3477 60.8273 49.0098 60.6203 48.791C60.4172 48.5723 60.0988 48.4629 59.6652 48.4629C59.3137 48.4629 59.0051 48.5566 58.7395 48.7441C58.4738 48.9316 58.2668 49.1777 58.1184 49.4824V54H57.0344V47.6602H58.0598ZM66.0332 54H64.9492V47.6602H66.0332V54ZM64.8613 45.9785C64.8613 45.8027 64.9141 45.6543 65.0195 45.5332C65.1289 45.4121 65.2891 45.3516 65.5 45.3516C65.7109 45.3516 65.8711 45.4121 65.9805 45.5332C66.0898 45.6543 66.1445 45.8027 66.1445 45.9785C66.1445 46.1543 66.0898 46.3008 65.9805 46.418C65.8711 46.5352 65.7109 46.5938 65.5 46.5938C65.2891 46.5938 65.1289 46.5352 65.0195 46.418C64.9141 46.3008 64.8613 46.1543 64.8613 45.9785ZM69.9988 47.6602L70.034 48.457C70.5184 47.8477 71.1512 47.543 71.9324 47.543C73.2723 47.543 73.948 48.2988 73.9598 49.8105V54H72.8758V49.8047C72.8719 49.3477 72.7664 49.0098 72.5594 48.791C72.3563 48.5723 72.0379 48.4629 71.6043 48.4629C71.2527 48.4629 70.9441 48.5566 70.6785 48.7441C70.4129 48.9316 70.2059 49.1777 70.0574 49.4824V54H68.9734V47.6602H69.9988ZM76.5367 50.7773C76.5367 49.7891 76.7652 49.0039 77.2223 48.4219C77.6793 47.8359 78.2848 47.543 79.0387 47.543C79.8121 47.543 80.4156 47.8164 80.8492 48.3633L80.902 47.6602H81.8922V53.8477C81.8922 54.668 81.648 55.3145 81.1598 55.7871C80.6754 56.2598 80.023 56.4961 79.2027 56.4961C78.7457 56.4961 78.2984 56.3984 77.8609 56.2031C77.4234 56.0078 77.0895 55.7402 76.859 55.4004L77.4215 54.75C77.8863 55.3242 78.4547 55.6113 79.1266 55.6113C79.6539 55.6113 80.0641 55.4629 80.357 55.166C80.6539 54.8691 80.8023 54.4512 80.8023 53.9121V53.3672C80.3688 53.8672 79.777 54.1172 79.027 54.1172C78.2848 54.1172 77.6832 53.8184 77.2223 53.2207C76.7652 52.623 76.5367 51.8086 76.5367 50.7773ZM77.6266 50.9004C77.6266 51.6152 77.773 52.1777 78.066 52.5879C78.359 52.9941 78.7691 53.1973 79.2965 53.1973C79.9801 53.1973 80.482 52.8867 80.8023 52.2656V49.3711C80.4703 48.7656 79.9723 48.4629 79.3082 48.4629C78.7809 48.4629 78.3688 48.668 78.0719 49.0781C77.775 49.4883 77.6266 50.0957 77.6266 50.9004ZM34.1758 64.9004C34.1758 65.8652 33.9551 66.6426 33.5137 67.2324C33.0723 67.8223 32.4746 68.1172 31.7207 68.1172C30.9512 68.1172 30.3457 67.873 29.9043 67.3848V70.4375H28.8203V61.6602H29.8105L29.8633 62.3633C30.3047 61.8164 30.918 61.543 31.7031 61.543C32.4648 61.543 33.0664 61.8301 33.5078 62.4043C33.9531 62.9785 34.1758 63.7773 34.1758 64.8008V64.9004ZM33.0918 64.7773C33.0918 64.0625 32.9395 63.498 32.6348 63.084C32.3301 62.6699 31.9121 62.4629 31.3809 62.4629C30.7246 62.4629 30.2324 62.7539 29.9043 63.3359V66.3652C30.2285 66.9434 30.7246 67.2324 31.3926 67.2324C31.9121 67.2324 32.3242 67.0273 32.6289 66.6172C32.9375 66.2031 33.0918 65.5898 33.0918 64.7773ZM39.823 62.6328C39.659 62.6055 39.4812 62.5918 39.2898 62.5918C38.5789 62.5918 38.0965 62.8945 37.8426 63.5V68H36.7586V61.6602H37.8133L37.8309 62.3926C38.1863 61.8262 38.6902 61.543 39.3426 61.543C39.5535 61.543 39.7137 61.5703 39.823 61.625V62.6328ZM41.6207 64.7715C41.6207 64.1504 41.7418 63.5918 41.984 63.0957C42.2301 62.5996 42.5699 62.2168 43.0035 61.9473C43.441 61.6777 43.9391 61.543 44.4977 61.543C45.3609 61.543 46.0582 61.8418 46.5895 62.4395C47.1246 63.0371 47.3922 63.832 47.3922 64.8242V64.9004C47.3922 65.5176 47.273 66.0723 47.0348 66.5645C46.8004 67.0527 46.4625 67.4336 46.0211 67.707C45.5836 67.9805 45.0797 68.1172 44.5094 68.1172C43.65 68.1172 42.9527 67.8184 42.4176 67.2207C41.8863 66.623 41.6207 65.832 41.6207 64.8477V64.7715ZM42.7105 64.9004C42.7105 65.6035 42.8727 66.168 43.1969 66.5938C43.525 67.0195 43.9625 67.2324 44.5094 67.2324C45.0602 67.2324 45.4977 67.0176 45.8219 66.5879C46.1461 66.1543 46.3082 65.5488 46.3082 64.7715C46.3082 64.0762 46.1422 63.5137 45.8102 63.084C45.482 62.6504 45.0445 62.4336 44.4977 62.4336C43.9625 62.4336 43.5309 62.6465 43.2027 63.0723C42.8746 63.498 42.7105 64.1074 42.7105 64.9004ZM51.0707 61.6602V68.7324C51.0707 69.9512 50.518 70.5605 49.4125 70.5605C49.1742 70.5605 48.9535 70.5254 48.7504 70.4551V69.5879C48.8754 69.6191 49.0395 69.6348 49.2426 69.6348C49.4848 69.6348 49.6684 69.5684 49.7934 69.4355C49.9223 69.3066 49.9867 69.0801 49.9867 68.7559V61.6602H51.0707ZM49.8754 59.9785C49.8754 59.8066 49.9281 59.6602 50.0336 59.5391C50.143 59.4141 50.3012 59.3516 50.5082 59.3516C50.7191 59.3516 50.8793 59.4121 50.9887 59.5332C51.098 59.6543 51.1527 59.8027 51.1527 59.9785C51.1527 60.1543 51.098 60.3008 50.9887 60.418C50.8793 60.5352 50.7191 60.5938 50.5082 60.5938C50.2973 60.5938 50.1391 60.5352 50.0336 60.418C49.9281 60.3008 49.8754 60.1543 49.8754 59.9785ZM56.6535 68.1172C55.7941 68.1172 55.0949 67.8359 54.5559 67.2734C54.0168 66.707 53.7473 65.9512 53.7473 65.0059V64.8066C53.7473 64.1777 53.8664 63.6172 54.1047 63.125C54.3469 62.6289 54.6828 62.2422 55.1125 61.9648C55.5461 61.6836 56.0148 61.543 56.5187 61.543C57.343 61.543 57.9836 61.8145 58.4406 62.3574C58.8977 62.9004 59.1262 63.6777 59.1262 64.6895V65.1406H54.8312C54.8469 65.7656 55.0285 66.2715 55.3762 66.6582C55.7277 67.041 56.173 67.2324 56.7121 67.2324C57.0949 67.2324 57.4191 67.1543 57.6848 66.998C57.9504 66.8418 58.1828 66.6348 58.382 66.377L59.0441 66.8926C58.5129 67.709 57.716 68.1172 56.6535 68.1172ZM56.5187 62.4336C56.0812 62.4336 55.7141 62.5938 55.4172 62.9141C55.1203 63.2305 54.9367 63.6758 54.8664 64.25H58.0422V64.168C58.0109 63.6172 57.8625 63.1914 57.5969 62.8906C57.3312 62.5859 56.9719 62.4336 56.5187 62.4336ZM64.1289 67.2324C64.5156 67.2324 64.8535 67.1152 65.1426 66.8809C65.4316 66.6465 65.5918 66.3535 65.623 66.002H66.6484C66.6289 66.3652 66.5039 66.7109 66.2734 67.0391C66.043 67.3672 65.7344 67.6289 65.3477 67.8242C64.9648 68.0195 64.5586 68.1172 64.1289 68.1172C63.2656 68.1172 62.5781 67.8301 62.0664 67.2559C61.5586 66.6777 61.3047 65.8887 61.3047 64.8887V64.707C61.3047 64.0898 61.418 63.541 61.6445 63.0605C61.8711 62.5801 62.1953 62.207 62.6172 61.9414C63.043 61.6758 63.5449 61.543 64.123 61.543C64.834 61.543 65.4238 61.7559 65.8926 62.1816C66.3652 62.6074 66.6172 63.1602 66.6484 63.8398H65.623C65.5918 63.4297 65.4355 63.0938 65.1543 62.832C64.877 62.5664 64.5332 62.4336 64.123 62.4336C63.5723 62.4336 63.1445 62.6328 62.8398 63.0312C62.5391 63.4258 62.3887 63.998 62.3887 64.748V64.9531C62.3887 65.6836 62.5391 66.2461 62.8398 66.6406C63.1406 67.0352 63.5703 67.2324 64.1289 67.2324ZM70.5379 60.125V61.6602H71.7215V62.498H70.5379V66.4297C70.5379 66.6836 70.5906 66.875 70.6961 67.0039C70.8016 67.1289 70.9813 67.1914 71.2352 67.1914C71.3602 67.1914 71.532 67.168 71.7508 67.1211V68C71.4656 68.0781 71.1883 68.1172 70.9188 68.1172C70.4344 68.1172 70.0691 67.9707 69.823 67.6777C69.577 67.3848 69.4539 66.9688 69.4539 66.4297V62.498H68.2996V61.6602H69.4539V60.125H70.5379ZM79.8402 60.125V61.6602H81.0238V62.498H79.8402V66.4297C79.8402 66.6836 79.893 66.875 79.9984 67.0039C80.1039 67.1289 80.2836 67.1914 80.5375 67.1914C80.6625 67.1914 80.8344 67.168 81.0531 67.1211V68C80.768 68.0781 80.4906 68.1172 80.2211 68.1172C79.7367 68.1172 79.3715 67.9707 79.1254 67.6777C78.8793 67.3848 78.7562 66.9688 78.7562 66.4297V62.498H77.602V61.6602H78.7562V60.125H79.8402ZM83.091 64.7715C83.091 64.1504 83.2121 63.5918 83.4543 63.0957C83.7004 62.5996 84.0402 62.2168 84.4738 61.9473C84.9113 61.6777 85.4094 61.543 85.968 61.543C86.8312 61.543 87.5285 61.8418 88.0598 62.4395C88.5949 63.0371 88.8625 63.832 88.8625 64.8242V64.9004C88.8625 65.5176 88.7434 66.0723 88.5051 66.5645C88.2707 67.0527 87.9328 67.4336 87.4914 67.707C87.0539 67.9805 86.55 68.1172 85.9797 68.1172C85.1203 68.1172 84.423 67.8184 83.8879 67.2207C83.3566 66.623 83.091 65.832 83.091 64.8477V64.7715ZM84.1809 64.9004C84.1809 65.6035 84.343 66.168 84.6672 66.5938C84.9953 67.0195 85.4328 67.2324 85.9797 67.2324C86.5305 67.2324 86.968 67.0176 87.2922 66.5879C87.6164 66.1543 87.7785 65.5488 87.7785 64.7715C87.7785 64.0762 87.6125 63.5137 87.2805 63.084C86.9523 62.6504 86.5148 62.4336 85.968 62.4336C85.4328 62.4336 85.0012 62.6465 84.673 63.0723C84.3449 63.498 84.1809 64.1074 84.1809 64.9004ZM34.1758 78.9004C34.1758 79.8652 33.9551 80.6426 33.5137 81.2324C33.0723 81.8223 32.4746 82.1172 31.7207 82.1172C30.9512 82.1172 30.3457 81.873 29.9043 81.3848V84.4375H28.8203V75.6602H29.8105L29.8633 76.3633C30.3047 75.8164 30.918 75.543 31.7031 75.543C32.4648 75.543 33.0664 75.8301 33.5078 76.4043C33.9531 76.9785 34.1758 77.7773 34.1758 78.8008V78.9004ZM33.0918 78.7773C33.0918 78.0625 32.9395 77.498 32.6348 77.084C32.3301 76.6699 31.9121 76.4629 31.3809 76.4629C30.7246 76.4629 30.2324 76.7539 29.9043 77.3359V80.3652C30.2285 80.9434 30.7246 81.2324 31.3926 81.2324C31.9121 81.2324 32.3242 81.0273 32.6289 80.6172C32.9375 80.2031 33.0918 79.5898 33.0918 78.7773ZM39.823 76.6328C39.659 76.6055 39.4812 76.5918 39.2898 76.5918C38.5789 76.5918 38.0965 76.8945 37.8426 77.5V82H36.7586V75.6602H37.8133L37.8309 76.3926C38.1863 75.8262 38.6902 75.543 39.3426 75.543C39.5535 75.543 39.7137 75.5703 39.823 75.625V76.6328ZM44.5387 82.1172C43.6793 82.1172 42.9801 81.8359 42.441 81.2734C41.902 80.707 41.6324 79.9512 41.6324 79.0059V78.8066C41.6324 78.1777 41.7516 77.6172 41.9898 77.125C42.232 76.6289 42.568 76.2422 42.9977 75.9648C43.4312 75.6836 43.9 75.543 44.4039 75.543C45.2281 75.543 45.8687 75.8145 46.3258 76.3574C46.7828 76.9004 47.0113 77.6777 47.0113 78.6895V79.1406H42.7164C42.732 79.7656 42.9137 80.2715 43.2613 80.6582C43.6129 81.041 44.0582 81.2324 44.5973 81.2324C44.9801 81.2324 45.3043 81.1543 45.5699 80.998C45.8355 80.8418 46.068 80.6348 46.2672 80.377L46.9293 80.8926C46.398 81.709 45.6012 82.1172 44.5387 82.1172ZM44.4039 76.4336C43.9664 76.4336 43.5992 76.5938 43.3023 76.9141C43.0055 77.2305 42.8219 77.6758 42.7516 78.25H45.9273V78.168C45.8961 77.6172 45.7477 77.1914 45.482 76.8906C45.2164 76.5859 44.857 76.4336 44.4039 76.4336ZM49.2074 78.7773C49.2074 77.8047 49.4379 77.0234 49.8988 76.4336C50.3598 75.8398 50.9633 75.543 51.7094 75.543C52.4516 75.543 53.0395 75.7969 53.473 76.3047V73H54.557V82H53.5609L53.5082 81.3203C53.0746 81.8516 52.4711 82.1172 51.6977 82.1172C50.9633 82.1172 50.3637 81.8164 49.8988 81.2148C49.4379 80.6133 49.2074 79.8281 49.2074 78.8594V78.7773ZM50.2914 78.9004C50.2914 79.6191 50.4398 80.1816 50.7367 80.5879C51.0336 80.9941 51.4438 81.1973 51.9672 81.1973C52.6547 81.1973 53.1566 80.8887 53.473 80.2715V77.3594C53.1488 76.7617 52.6508 76.4629 51.9789 76.4629C51.4477 76.4629 51.0336 76.668 50.7367 77.0781C50.4398 77.4883 50.2914 78.0957 50.2914 78.9004ZM58.6223 82H57.5383V75.6602H58.6223V82ZM57.4504 73.9785C57.4504 73.8027 57.5031 73.6543 57.6086 73.5332C57.718 73.4121 57.8781 73.3516 58.0891 73.3516C58.3 73.3516 58.4602 73.4121 58.5695 73.5332C58.6789 73.6543 58.7336 73.8027 58.7336 73.9785C58.7336 74.1543 58.6789 74.3008 58.5695 74.418C58.4602 74.5352 58.3 74.5938 58.0891 74.5938C57.8781 74.5938 57.718 74.5352 57.6086 74.418C57.5031 74.3008 57.4504 74.1543 57.4504 73.9785ZM64.1055 81.2324C64.4922 81.2324 64.8301 81.1152 65.1191 80.8809C65.4082 80.6465 65.5684 80.3535 65.5996 80.002H66.625C66.6055 80.3652 66.4805 80.7109 66.25 81.0391C66.0195 81.3672 65.7109 81.6289 65.3242 81.8242C64.9414 82.0195 64.5352 82.1172 64.1055 82.1172C63.2422 82.1172 62.5547 81.8301 62.043 81.2559C61.5352 80.6777 61.2812 79.8887 61.2812 78.8887V78.707C61.2812 78.0898 61.3945 77.541 61.6211 77.0605C61.8477 76.5801 62.1719 76.207 62.5938 75.9414C63.0195 75.6758 63.5215 75.543 64.0996 75.543C64.8105 75.543 65.4004 75.7559 65.8691 76.1816C66.3418 76.6074 66.5938 77.1602 66.625 77.8398H65.5996C65.5684 77.4297 65.4121 77.0938 65.1309 76.832C64.8535 76.5664 64.5098 76.4336 64.0996 76.4336C63.5488 76.4336 63.1211 76.6328 62.8164 77.0312C62.5156 77.4258 62.3652 77.998 62.3652 78.748V78.9531C62.3652 79.6836 62.5156 80.2461 62.8164 80.6406C63.1172 81.0352 63.5469 81.2324 64.1055 81.2324ZM70.5145 74.125V75.6602H71.698V76.498H70.5145V80.4297C70.5145 80.6836 70.5672 80.875 70.6727 81.0039C70.7781 81.1289 70.9578 81.1914 71.2117 81.1914C71.3367 81.1914 71.5086 81.168 71.7273 81.1211V82C71.4422 82.0781 71.1648 82.1172 70.8953 82.1172C70.4109 82.1172 70.0457 81.9707 69.7996 81.6777C69.5535 81.3848 69.4305 80.9688 69.4305 80.4297V76.498H68.2762V75.6602H69.4305V74.125H70.5145ZM82.2602 82C82.1977 81.875 82.1469 81.6523 82.1078 81.332C81.6039 81.8555 81.0023 82.1172 80.3031 82.1172C79.6781 82.1172 79.1645 81.9414 78.7621 81.5898C78.3637 81.2344 78.1645 80.7852 78.1645 80.2422C78.1645 79.582 78.4145 79.0703 78.9145 78.707C79.4184 78.3398 80.1254 78.1562 81.0355 78.1562H82.0902V77.6582C82.0902 77.2793 81.977 76.9785 81.7504 76.7559C81.5238 76.5293 81.1898 76.416 80.7484 76.416C80.3617 76.416 80.0375 76.5137 79.7758 76.709C79.5141 76.9043 79.3832 77.1406 79.3832 77.418H78.2934C78.2934 77.1016 78.4047 76.7969 78.6273 76.5039C78.8539 76.207 79.1586 75.9727 79.5414 75.8008C79.9281 75.6289 80.352 75.543 80.8129 75.543C81.5434 75.543 82.1156 75.7266 82.5297 76.0938C82.9437 76.457 83.1586 76.959 83.1742 77.5996V80.5176C83.1742 81.0996 83.2484 81.5625 83.3969 81.9062V82H82.2602ZM80.4613 81.1738C80.8012 81.1738 81.1234 81.0859 81.4281 80.9102C81.7328 80.7344 81.9535 80.5059 82.0902 80.2246V78.9238H81.2406C79.9125 78.9238 79.2484 79.3125 79.2484 80.0898C79.2484 80.4297 79.3617 80.6953 79.5883 80.8867C79.8148 81.0781 80.1059 81.1738 80.4613 81.1738ZM87.0988 75.6602L87.134 76.457C87.6184 75.8477 88.2512 75.543 89.0324 75.543C90.3723 75.543 91.048 76.2988 91.0598 77.8105V82H89.9758V77.8047C89.9719 77.3477 89.8664 77.0098 89.6594 76.791C89.4562 76.5723 89.1379 76.4629 88.7043 76.4629C88.3527 76.4629 88.0441 76.5566 87.7785 76.7441C87.5129 76.9316 87.3059 77.1777 87.1574 77.4824V82H86.0734V75.6602H87.0988ZM93.6309 78.7773C93.6309 77.8047 93.8613 77.0234 94.3223 76.4336C94.7832 75.8398 95.3867 75.543 96.1328 75.543C96.875 75.543 97.4629 75.7969 97.8965 76.3047V73H98.9805V82H97.9844L97.9316 81.3203C97.498 81.8516 96.8945 82.1172 96.1211 82.1172C95.3867 82.1172 94.7871 81.8164 94.3223 81.2148C93.8613 80.6133 93.6309 79.8281 93.6309 78.8594V78.7773ZM94.7148 78.9004C94.7148 79.6191 94.8633 80.1816 95.1602 80.5879C95.457 80.9941 95.8672 81.1973 96.3906 81.1973C97.0781 81.1973 97.5801 80.8887 97.8965 80.2715V77.3594C97.5723 76.7617 97.0742 76.4629 96.4023 76.4629C95.8711 76.4629 95.457 76.668 95.1602 77.0781C94.8633 77.4883 94.7148 78.0957 94.7148 78.9004ZM32.7344 96C32.6719 95.875 32.6211 95.6523 32.582 95.332C32.0781 95.8555 31.4766 96.1172 30.7773 96.1172C30.1523 96.1172 29.6387 95.9414 29.2363 95.5898C28.8379 95.2344 28.6387 94.7852 28.6387 94.2422C28.6387 93.582 28.8887 93.0703 29.3887 92.707C29.8926 92.3398 30.5996 92.1562 31.5098 92.1562H32.5645V91.6582C32.5645 91.2793 32.4512 90.9785 32.2246 90.7559C31.998 90.5293 31.6641 90.416 31.2227 90.416C30.8359 90.416 30.5117 90.5137 30.25 90.709C29.9883 90.9043 29.8574 91.1406 29.8574 91.418H28.7676C28.7676 91.1016 28.8789 90.7969 29.1016 90.5039C29.3281 90.207 29.6328 89.9727 30.0156 89.8008C30.4023 89.6289 30.8262 89.543 31.2871 89.543C32.0176 89.543 32.5898 89.7266 33.0039 90.0938C33.418 90.457 33.6328 90.959 33.6484 91.5996V94.5176C33.6484 95.0996 33.7227 95.5625 33.8711 95.9062V96H32.7344ZM30.9355 95.1738C31.2754 95.1738 31.5977 95.0859 31.9023 94.9102C32.207 94.7344 32.4277 94.5059 32.5645 94.2246V92.9238H31.7148C30.3867 92.9238 29.7227 93.3125 29.7227 94.0898C29.7227 94.4297 29.8359 94.6953 30.0625 94.8867C30.2891 95.0781 30.5801 95.1738 30.9355 95.1738ZM37.573 89.6602L37.6082 90.457C38.0926 89.8477 38.7254 89.543 39.5066 89.543C40.8465 89.543 41.5223 90.2988 41.534 91.8105V96H40.45V91.8047C40.4461 91.3477 40.3406 91.0098 40.1336 90.791C39.9305 90.5723 39.6121 90.4629 39.1785 90.4629C38.827 90.4629 38.5184 90.5566 38.2527 90.7441C37.9871 90.9316 37.7801 91.1777 37.6316 91.4824V96H36.5477V89.6602H37.573ZM48.2828 96C48.2203 95.875 48.1695 95.6523 48.1305 95.332C47.6266 95.8555 47.025 96.1172 46.3258 96.1172C45.7008 96.1172 45.1871 95.9414 44.7848 95.5898C44.3863 95.2344 44.1871 94.7852 44.1871 94.2422C44.1871 93.582 44.4371 93.0703 44.9371 92.707C45.441 92.3398 46.148 92.1562 47.0582 92.1562H48.1129V91.6582C48.1129 91.2793 47.9996 90.9785 47.773 90.7559C47.5465 90.5293 47.2125 90.416 46.7711 90.416C46.3844 90.416 46.0602 90.5137 45.7984 90.709C45.5367 90.9043 45.4059 91.1406 45.4059 91.418H44.316C44.316 91.1016 44.4273 90.7969 44.65 90.5039C44.8766 90.207 45.1812 89.9727 45.5641 89.8008C45.9508 89.6289 46.3746 89.543 46.8355 89.543C47.566 89.543 48.1383 89.7266 48.5523 90.0938C48.9664 90.457 49.1812 90.959 49.1969 91.5996V94.5176C49.1969 95.0996 49.2711 95.5625 49.4195 95.9062V96H48.2828ZM46.484 95.1738C46.8238 95.1738 47.1461 95.0859 47.4508 94.9102C47.7555 94.7344 47.9762 94.5059 48.1129 94.2246V92.9238H47.2633C45.9352 92.9238 45.2711 93.3125 45.2711 94.0898C45.2711 94.4297 45.3844 94.6953 45.6109 94.8867C45.8375 95.0781 46.1285 95.1738 46.484 95.1738ZM53.2738 96H52.1898V87H53.2738V96ZM58.2883 94.4121L59.7648 89.6602H60.925L58.3762 96.9785C57.9816 98.0332 57.3547 98.5605 56.4953 98.5605L56.2902 98.543L55.8859 98.4668V97.5879L56.1789 97.6113C56.5461 97.6113 56.8312 97.5371 57.0344 97.3887C57.2414 97.2402 57.4113 96.9688 57.5441 96.5742L57.7844 95.9297L55.5227 89.6602H56.7062L58.2883 94.4121ZM66.7891 94.3184C66.7891 94.0254 66.6777 93.7988 66.4551 93.6387C66.2363 93.4746 65.8516 93.334 65.3008 93.2168C64.7539 93.0996 64.3184 92.959 63.9941 92.7949C63.6738 92.6309 63.4355 92.4355 63.2793 92.209C63.127 91.9824 63.0508 91.7129 63.0508 91.4004C63.0508 90.8809 63.2695 90.4414 63.707 90.082C64.1484 89.7227 64.7109 89.543 65.3945 89.543C66.1133 89.543 66.6953 89.7285 67.1406 90.0996C67.5898 90.4707 67.8145 90.9453 67.8145 91.5234H66.7246C66.7246 91.2266 66.5977 90.9707 66.3438 90.7559C66.0938 90.541 65.7773 90.4336 65.3945 90.4336C65 90.4336 64.6914 90.5195 64.4688 90.6914C64.2461 90.8633 64.1348 91.0879 64.1348 91.3652C64.1348 91.627 64.2383 91.8242 64.4453 91.957C64.6523 92.0898 65.0254 92.2168 65.5645 92.3379C66.1074 92.459 66.5469 92.6035 66.8828 92.7715C67.2188 92.9395 67.4668 93.1426 67.627 93.3809C67.791 93.6152 67.873 93.9023 67.873 94.2422C67.873 94.8086 67.6465 95.2637 67.1934 95.6074C66.7402 95.9473 66.1523 96.1172 65.4297 96.1172C64.9219 96.1172 64.4727 96.0273 64.082 95.8477C63.6914 95.668 63.3848 95.418 63.1621 95.0977C62.9434 94.7734 62.834 94.4238 62.834 94.0488H63.918C63.9375 94.4121 64.082 94.7012 64.3516 94.916C64.625 95.127 64.9844 95.2324 65.4297 95.2324C65.8398 95.2324 66.168 95.1504 66.4141 94.9863C66.6641 94.8184 66.7891 94.5957 66.7891 94.3184ZM73.116 96.1172C72.2566 96.1172 71.5574 95.8359 71.0184 95.2734C70.4793 94.707 70.2098 93.9512 70.2098 93.0059V92.8066C70.2098 92.1777 70.3289 91.6172 70.5672 91.125C70.8094 90.6289 71.1453 90.2422 71.575 89.9648C72.0086 89.6836 72.4773 89.543 72.9813 89.543C73.8055 89.543 74.4461 89.8145 74.9031 90.3574C75.3602 90.9004 75.5887 91.6777 75.5887 92.6895V93.1406H71.2938C71.3094 93.7656 71.491 94.2715 71.8387 94.6582C72.1902 95.041 72.6355 95.2324 73.1746 95.2324C73.5574 95.2324 73.8816 95.1543 74.1473 94.998C74.4129 94.8418 74.6453 94.6348 74.8445 94.377L75.5066 94.8926C74.9754 95.709 74.1785 96.1172 73.116 96.1172ZM72.9813 90.4336C72.5438 90.4336 72.1766 90.5938 71.8797 90.9141C71.5828 91.2305 71.3992 91.6758 71.3289 92.25H74.5047V92.168C74.4734 91.6172 74.325 91.1914 74.0594 90.8906C73.7938 90.5859 73.4344 90.4336 72.9813 90.4336ZM31.3633 109.232C31.75 109.232 32.0879 109.115 32.377 108.881C32.666 108.646 32.8262 108.354 32.8574 108.002H33.8828C33.8633 108.365 33.7383 108.711 33.5078 109.039C33.2773 109.367 32.9688 109.629 32.582 109.824C32.1992 110.02 31.793 110.117 31.3633 110.117C30.5 110.117 29.8125 109.83 29.3008 109.256C28.793 108.678 28.5391 107.889 28.5391 106.889V106.707C28.5391 106.09 28.6523 105.541 28.8789 105.061C29.1055 104.58 29.4297 104.207 29.8516 103.941C30.2773 103.676 30.7793 103.543 31.3574 103.543C32.0684 103.543 32.6582 103.756 33.127 104.182C33.5996 104.607 33.8516 105.16 33.8828 105.84H32.8574C32.8262 105.43 32.6699 105.094 32.3887 104.832C32.1113 104.566 31.7676 104.434 31.3574 104.434C30.8066 104.434 30.3789 104.633 30.0742 105.031C29.7734 105.426 29.623 105.998 29.623 106.748V106.953C29.623 107.684 29.7734 108.246 30.0742 108.641C30.375 109.035 30.8047 109.232 31.3633 109.232ZM39.366 104.633C39.202 104.605 39.0242 104.592 38.8328 104.592C38.1219 104.592 37.6395 104.895 37.3855 105.5V110H36.3016V103.66H37.3562L37.3738 104.393C37.7293 103.826 38.2332 103.543 38.8855 103.543C39.0965 103.543 39.2566 103.57 39.366 103.625V104.633ZM42.7457 110H41.6617V103.66H42.7457V110ZM41.5738 101.979C41.5738 101.803 41.6266 101.654 41.732 101.533C41.8414 101.412 42.0016 101.352 42.2125 101.352C42.4234 101.352 42.5836 101.412 42.693 101.533C42.8023 101.654 42.857 101.803 42.857 101.979C42.857 102.154 42.8023 102.301 42.693 102.418C42.5836 102.535 42.4234 102.594 42.2125 102.594C42.0016 102.594 41.8414 102.535 41.732 102.418C41.6266 102.301 41.5738 102.154 41.5738 101.979ZM46.7055 103.66L46.7348 104.363C47.1996 103.816 47.8266 103.543 48.6156 103.543C49.5023 103.543 50.1059 103.883 50.4262 104.562C50.6371 104.258 50.9105 104.012 51.2465 103.824C51.5863 103.637 51.9867 103.543 52.4477 103.543C53.8383 103.543 54.5453 104.279 54.5688 105.752V110H53.4848V105.816C53.4848 105.363 53.3813 105.025 53.1742 104.803C52.9672 104.576 52.6195 104.463 52.1313 104.463C51.7289 104.463 51.3949 104.584 51.1293 104.826C50.8637 105.064 50.7094 105.387 50.6664 105.793V110H49.5766V105.846C49.5766 104.924 49.1254 104.463 48.223 104.463C47.5121 104.463 47.0258 104.766 46.7641 105.371V110H45.6801V103.66H46.7055ZM60.0402 110.117C59.1809 110.117 58.4816 109.836 57.9426 109.273C57.4035 108.707 57.134 107.951 57.134 107.006V106.807C57.134 106.178 57.2531 105.617 57.4914 105.125C57.7336 104.629 58.0695 104.242 58.4992 103.965C58.9328 103.684 59.4016 103.543 59.9055 103.543C60.7297 103.543 61.3703 103.814 61.8273 104.357C62.2844 104.9 62.5129 105.678 62.5129 106.689V107.141H58.218C58.2336 107.766 58.4152 108.271 58.7629 108.658C59.1145 109.041 59.5598 109.232 60.0988 109.232C60.4816 109.232 60.8059 109.154 61.0715 108.998C61.3371 108.842 61.5695 108.635 61.7687 108.377L62.4309 108.893C61.8996 109.709 61.1027 110.117 60.0402 110.117ZM59.9055 104.434C59.468 104.434 59.1008 104.594 58.8039 104.914C58.507 105.23 58.3234 105.676 58.2531 106.25H61.4289V106.168C61.3977 105.617 61.2492 105.191 60.9836 104.891C60.718 104.586 60.3586 104.434 59.9055 104.434Z" fill="#573B64"/>
<path fill-rule="evenodd" clip-rule="evenodd" d="M113.682 87.6078L120.07 85.7578C126.459 83.9078 139.235 80.2078 152.012 74.6578C164.788 69.1078 177.565 61.7078 190.341 70.9578C203.118 80.2078 215.894 106.108 228.671 100.558C241.447 95.0078 254.224 58.0078 260.612 39.5078L267 21.0078V132.008H260.612C254.224 132.008 241.447 132.008 228.671 132.008C215.894 132.008 203.118 132.008 190.341 132.008C177.565 132.008 164.788 132.008 152.012 132.008C139.235 132.008 126.459 132.008 120.07 132.008H113.682V87.6078Z" fill="#1BADB9"/>
<path fill-rule="evenodd" clip-rule="evenodd" d="M113.682 114.608L120.07 113.508C126.459 112.408 139.235 110.208 152.012 106.908C164.788 103.608 177.565 99.2078 190.341 104.708C203.118 110.208 215.894 125.608 228.671 122.308C241.447 119.008 254.224 97.0078 260.612 86.0078L267 75.0078V141.008H260.612C254.224 141.008 241.447 141.008 228.671 141.008C215.894 141.008 203.118 141.008 190.341 141.008C177.565 141.008 164.788 141.008 152.012 141.008C139.235 141.008 126.459 141.008 120.07 141.008H113.682V114.608Z" fill="#8AECF4"/>
<path d="M125.852 45.293C125.746 46.1953 125.412 46.8926 124.85 47.3848C124.291 47.873 123.547 48.1172 122.617 48.1172C121.609 48.1172 120.801 47.7559 120.191 47.0332C119.586 46.3105 119.283 45.3438 119.283 44.1328V43.3125C119.283 42.5195 119.424 41.8223 119.705 41.2207C119.99 40.6191 120.393 40.1582 120.912 39.8379C121.432 39.5137 122.033 39.3516 122.717 39.3516C123.623 39.3516 124.35 39.6055 124.896 40.1133C125.443 40.6172 125.762 41.3164 125.852 42.2109H124.721C124.623 41.5312 124.41 41.0391 124.082 40.7344C123.758 40.4297 123.303 40.2773 122.717 40.2773C121.998 40.2773 121.434 40.543 121.023 41.0742C120.617 41.6055 120.414 42.3613 120.414 43.3418V44.168C120.414 45.0938 120.607 45.8301 120.994 46.377C121.381 46.9238 121.922 47.1973 122.617 47.1973C123.242 47.1973 123.721 47.0566 124.053 46.7754C124.389 46.4902 124.611 45.9961 124.721 45.293H125.852ZM130.287 42.6328C130.123 42.6055 129.945 42.5918 129.754 42.5918C129.043 42.5918 128.561 42.8945 128.307 43.5V48H127.223V41.6602H128.277L128.295 42.3926C128.65 41.8262 129.154 41.543 129.807 41.543C130.018 41.543 130.178 41.5703 130.287 41.625V42.6328ZM132.467 48H131.383V41.6602H132.467V48ZM131.295 39.9785C131.295 39.8027 131.348 39.6543 131.453 39.5332C131.562 39.4121 131.723 39.3516 131.934 39.3516C132.145 39.3516 132.305 39.4121 132.414 39.5332C132.523 39.6543 132.578 39.8027 132.578 39.9785C132.578 40.1543 132.523 40.3008 132.414 40.418C132.305 40.5352 132.145 40.5938 131.934 40.5938C131.723 40.5938 131.562 40.5352 131.453 40.418C131.348 40.3008 131.295 40.1543 131.295 39.9785ZM135.227 41.6602L135.256 42.3633C135.721 41.8164 136.348 41.543 137.137 41.543C138.023 41.543 138.627 41.8828 138.947 42.5625C139.158 42.2578 139.432 42.0117 139.768 41.8242C140.107 41.6367 140.508 41.543 140.969 41.543C142.359 41.543 143.066 42.2793 143.09 43.752V48H142.006V43.8164C142.006 43.3633 141.902 43.0254 141.695 42.8027C141.488 42.5762 141.141 42.4629 140.652 42.4629C140.25 42.4629 139.916 42.584 139.65 42.8262C139.385 43.0645 139.23 43.3867 139.188 43.793V48H138.098V43.8457C138.098 42.9238 137.646 42.4629 136.744 42.4629C136.033 42.4629 135.547 42.7656 135.285 43.3711V48H134.201V41.6602H135.227ZM147.361 48.1172C146.502 48.1172 145.803 47.8359 145.264 47.2734C144.725 46.707 144.455 45.9512 144.455 45.0059V44.8066C144.455 44.1777 144.574 43.6172 144.812 43.125C145.055 42.6289 145.391 42.2422 145.82 41.9648C146.254 41.6836 146.723 41.543 147.227 41.543C148.051 41.543 148.691 41.8145 149.148 42.3574C149.605 42.9004 149.834 43.6777 149.834 44.6895V45.1406H145.539C145.555 45.7656 145.736 46.2715 146.084 46.6582C146.436 47.041 146.881 47.2324 147.42 47.2324C147.803 47.2324 148.127 47.1543 148.393 46.998C148.658 46.8418 148.891 46.6348 149.09 46.377L149.752 46.8926C149.221 47.709 148.424 48.1172 147.361 48.1172ZM147.227 42.4336C146.789 42.4336 146.422 42.5938 146.125 42.9141C145.828 43.2305 145.645 43.6758 145.574 44.25H148.75V44.168C148.719 43.6172 148.57 43.1914 148.305 42.8906C148.039 42.5859 147.68 42.4336 147.227 42.4336ZM155.365 44.6602V48H154.24V39.4688H157.387C158.32 39.4688 159.051 39.707 159.578 40.1836C160.109 40.6602 160.375 41.291 160.375 42.0762C160.375 42.9043 160.115 43.543 159.596 43.9922C159.08 44.4375 158.34 44.6602 157.375 44.6602H155.365ZM155.365 43.7402H157.387C157.988 43.7402 158.449 43.5996 158.77 43.3184C159.09 43.0332 159.25 42.623 159.25 42.0879C159.25 41.5801 159.09 41.1738 158.77 40.8691C158.449 40.5645 158.01 40.4062 157.451 40.3945H155.365V43.7402ZM164.705 42.6328C164.541 42.6055 164.363 42.5918 164.172 42.5918C163.461 42.5918 162.979 42.8945 162.725 43.5V48H161.641V41.6602H162.695L162.713 42.3926C163.068 41.8262 163.572 41.543 164.225 41.543C164.436 41.543 164.596 41.5703 164.705 41.625V42.6328ZM168.221 48.1172C167.361 48.1172 166.662 47.8359 166.123 47.2734C165.584 46.707 165.314 45.9512 165.314 45.0059V44.8066C165.314 44.1777 165.434 43.6172 165.672 43.125C165.914 42.6289 166.25 42.2422 166.68 41.9648C167.113 41.6836 167.582 41.543 168.086 41.543C168.91 41.543 169.551 41.8145 170.008 42.3574C170.465 42.9004 170.693 43.6777 170.693 44.6895V45.1406H166.398C166.414 45.7656 166.596 46.2715 166.943 46.6582C167.295 47.041 167.74 47.2324 168.279 47.2324C168.662 47.2324 168.986 47.1543 169.252 46.998C169.518 46.8418 169.75 46.6348 169.949 46.377L170.611 46.8926C170.08 47.709 169.283 48.1172 168.221 48.1172ZM168.086 42.4336C167.648 42.4336 167.281 42.5938 166.984 42.9141C166.688 43.2305 166.504 43.6758 166.434 44.25H169.609V44.168C169.578 43.6172 169.43 43.1914 169.164 42.8906C168.898 42.5859 168.539 42.4336 168.086 42.4336ZM171.689 44.7773C171.689 43.8047 171.92 43.0234 172.381 42.4336C172.842 41.8398 173.445 41.543 174.191 41.543C174.934 41.543 175.521 41.7969 175.955 42.3047V39H177.039V48H176.043L175.99 47.3203C175.557 47.8516 174.953 48.1172 174.18 48.1172C173.445 48.1172 172.846 47.8164 172.381 47.2148C171.92 46.6133 171.689 45.8281 171.689 44.8594V44.7773ZM172.773 44.9004C172.773 45.6191 172.922 46.1816 173.219 46.5879C173.516 46.9941 173.926 47.1973 174.449 47.1973C175.137 47.1973 175.639 46.8887 175.955 46.2715V43.3594C175.631 42.7617 175.133 42.4629 174.461 42.4629C173.93 42.4629 173.516 42.668 173.219 43.0781C172.922 43.4883 172.773 44.0957 172.773 44.9004ZM179.904 48H178.82V41.6602H179.904V48ZM178.732 39.9785C178.732 39.8027 178.785 39.6543 178.891 39.5332C179 39.4121 179.16 39.3516 179.371 39.3516C179.582 39.3516 179.742 39.4121 179.852 39.5332C179.961 39.6543 180.016 39.8027 180.016 39.9785C180.016 40.1543 179.961 40.3008 179.852 40.418C179.742 40.5352 179.582 40.5938 179.371 40.5938C179.16 40.5938 179 40.5352 178.891 40.418C178.785 40.3008 178.732 40.1543 178.732 39.9785ZM184.188 47.2324C184.574 47.2324 184.912 47.1152 185.201 46.8809C185.49 46.6465 185.65 46.3535 185.682 46.002H186.707C186.688 46.3652 186.562 46.7109 186.332 47.0391C186.102 47.3672 185.793 47.6289 185.406 47.8242C185.023 48.0195 184.617 48.1172 184.188 48.1172C183.324 48.1172 182.637 47.8301 182.125 47.2559C181.617 46.6777 181.363 45.8887 181.363 44.8887V44.707C181.363 44.0898 181.477 43.541 181.703 43.0605C181.93 42.5801 182.254 42.207 182.676 41.9414C183.102 41.6758 183.604 41.543 184.182 41.543C184.893 41.543 185.482 41.7559 185.951 42.1816C186.424 42.6074 186.676 43.1602 186.707 43.8398H185.682C185.65 43.4297 185.494 43.0938 185.213 42.832C184.936 42.5664 184.592 42.4336 184.182 42.4336C183.631 42.4336 183.203 42.6328 182.898 43.0312C182.598 43.4258 182.447 43.998 182.447 44.748V44.9531C182.447 45.6836 182.598 46.2461 182.898 46.6406C183.199 47.0352 183.629 47.2324 184.188 47.2324ZM189.396 40.125V41.6602H190.58V42.498H189.396V46.4297C189.396 46.6836 189.449 46.875 189.555 47.0039C189.66 47.1289 189.84 47.1914 190.094 47.1914C190.219 47.1914 190.391 47.168 190.609 47.1211V48C190.324 48.0781 190.047 48.1172 189.777 48.1172C189.293 48.1172 188.928 47.9707 188.682 47.6777C188.436 47.3848 188.312 46.9688 188.312 46.4297V42.498H187.158V41.6602H188.312V40.125H189.396ZM193.029 48H191.945V41.6602H193.029V48ZM191.857 39.9785C191.857 39.8027 191.91 39.6543 192.016 39.5332C192.125 39.4121 192.285 39.3516 192.496 39.3516C192.707 39.3516 192.867 39.4121 192.977 39.5332C193.086 39.6543 193.141 39.8027 193.141 39.9785C193.141 40.1543 193.086 40.3008 192.977 40.418C192.867 40.5352 192.707 40.5938 192.496 40.5938C192.285 40.5938 192.125 40.5352 192.016 40.418C191.91 40.3008 191.857 40.1543 191.857 39.9785ZM194.482 44.7715C194.482 44.1504 194.604 43.5918 194.846 43.0957C195.092 42.5996 195.432 42.2168 195.865 41.9473C196.303 41.6777 196.801 41.543 197.359 41.543C198.223 41.543 198.92 41.8418 199.451 42.4395C199.986 43.0371 200.254 43.832 200.254 44.8242V44.9004C200.254 45.5176 200.135 46.0723 199.896 46.5645C199.662 47.0527 199.324 47.4336 198.883 47.707C198.445 47.9805 197.941 48.1172 197.371 48.1172C196.512 48.1172 195.814 47.8184 195.279 47.2207C194.748 46.623 194.482 45.832 194.482 44.8477V44.7715ZM195.572 44.9004C195.572 45.6035 195.734 46.168 196.059 46.5938C196.387 47.0195 196.824 47.2324 197.371 47.2324C197.922 47.2324 198.359 47.0176 198.684 46.5879C199.008 46.1543 199.17 45.5488 199.17 44.7715C199.17 44.0762 199.004 43.5137 198.672 43.084C198.344 42.6504 197.906 42.4336 197.359 42.4336C196.824 42.4336 196.393 42.6465 196.064 43.0723C195.736 43.498 195.572 44.1074 195.572 44.9004ZM202.639 41.6602L202.674 42.457C203.158 41.8477 203.791 41.543 204.572 41.543C205.912 41.543 206.588 42.2988 206.6 43.8105V48H205.516V43.8047C205.512 43.3477 205.406 43.0098 205.199 42.791C204.996 42.5723 204.678 42.4629 204.244 42.4629C203.893 42.4629 203.584 42.5566 203.318 42.7441C203.053 42.9316 202.846 43.1777 202.697 43.4824V48H201.613V41.6602H202.639ZM156.602 59.7734H153.027L152.225 62H151.064L154.322 53.4688H155.307L158.57 62H157.416L156.602 59.7734ZM153.367 58.8477H156.268L154.814 54.8574L153.367 58.8477ZM160.574 55.6602L160.609 56.457C161.094 55.8477 161.727 55.543 162.508 55.543C163.848 55.543 164.523 56.2988 164.535 57.8105V62H163.451V57.8047C163.447 57.3477 163.342 57.0098 163.135 56.791C162.932 56.5723 162.613 56.4629 162.18 56.4629C161.828 56.4629 161.52 56.5566 161.254 56.7441C160.988 56.9316 160.781 57.1777 160.633 57.4824V62H159.549V55.6602H160.574ZM165.906 58.7773C165.906 57.8047 166.137 57.0234 166.598 56.4336C167.059 55.8398 167.662 55.543 168.408 55.543C169.15 55.543 169.738 55.7969 170.172 56.3047V53H171.256V62H170.26L170.207 61.3203C169.773 61.8516 169.17 62.1172 168.396 62.1172C167.662 62.1172 167.062 61.8164 166.598 61.2148C166.137 60.6133 165.906 59.8281 165.906 58.8594V58.7773ZM166.99 58.9004C166.99 59.6191 167.139 60.1816 167.436 60.5879C167.732 60.9941 168.143 61.1973 168.666 61.1973C169.354 61.1973 169.855 60.8887 170.172 60.2715V57.3594C169.848 56.7617 169.35 56.4629 168.678 56.4629C168.146 56.4629 167.732 56.668 167.436 57.0781C167.139 57.4883 166.99 58.0957 166.99 58.9004ZM146.266 73.7734H142.691L141.889 76H140.729L143.986 67.4688H144.971L148.234 76H147.08L146.266 73.7734ZM143.031 72.8477H145.932L144.479 68.8574L143.031 72.8477ZM150.238 69.6602L150.273 70.457C150.758 69.8477 151.391 69.543 152.172 69.543C153.512 69.543 154.188 70.2988 154.199 71.8105V76H153.115V71.8047C153.111 71.3477 153.006 71.0098 152.799 70.791C152.596 70.5723 152.277 70.4629 151.844 70.4629C151.492 70.4629 151.184 70.5566 150.918 70.7441C150.652 70.9316 150.445 71.1777 150.297 71.4824V76H149.213V69.6602H150.238ZM159.748 76C159.686 75.875 159.635 75.6523 159.596 75.332C159.092 75.8555 158.49 76.1172 157.791 76.1172C157.166 76.1172 156.652 75.9414 156.25 75.5898C155.852 75.2344 155.652 74.7852 155.652 74.2422C155.652 73.582 155.902 73.0703 156.402 72.707C156.906 72.3398 157.613 72.1562 158.523 72.1562H159.578V71.6582C159.578 71.2793 159.465 70.9785 159.238 70.7559C159.012 70.5293 158.678 70.416 158.236 70.416C157.85 70.416 157.525 70.5137 157.264 70.709C157.002 70.9043 156.871 71.1406 156.871 71.418H155.781C155.781 71.1016 155.893 70.7969 156.115 70.5039C156.342 70.207 156.646 69.9727 157.029 69.8008C157.416 69.6289 157.84 69.543 158.301 69.543C159.031 69.543 159.604 69.7266 160.018 70.0938C160.432 70.457 160.646 70.959 160.662 71.5996V74.5176C160.662 75.0996 160.736 75.5625 160.885 75.9062V76H159.748ZM157.949 75.1738C158.289 75.1738 158.611 75.0859 158.916 74.9102C159.221 74.7344 159.441 74.5059 159.578 74.2246V72.9238H158.729C157.4 72.9238 156.736 73.3125 156.736 74.0898C156.736 74.4297 156.85 74.6953 157.076 74.8867C157.303 75.0781 157.594 75.1738 157.949 75.1738ZM163.539 76H162.455V67H163.539V76ZM167.354 74.4121L168.83 69.6602H169.99L167.441 76.9785C167.047 78.0332 166.42 78.5605 165.561 78.5605L165.355 78.543L164.951 78.4668V77.5879L165.244 77.6113C165.611 77.6113 165.896 77.5371 166.1 77.3887C166.307 77.2402 166.477 76.9688 166.609 76.5742L166.85 75.9297L164.588 69.6602H165.771L167.354 74.4121ZM174.654 74.3184C174.654 74.0254 174.543 73.7988 174.32 73.6387C174.102 73.4746 173.717 73.334 173.166 73.2168C172.619 73.0996 172.184 72.959 171.859 72.7949C171.539 72.6309 171.301 72.4355 171.145 72.209C170.992 71.9824 170.916 71.7129 170.916 71.4004C170.916 70.8809 171.135 70.4414 171.572 70.082C172.014 69.7227 172.576 69.543 173.26 69.543C173.979 69.543 174.561 69.7285 175.006 70.0996C175.455 70.4707 175.68 70.9453 175.68 71.5234H174.59C174.59 71.2266 174.463 70.9707 174.209 70.7559C173.959 70.541 173.643 70.4336 173.26 70.4336C172.865 70.4336 172.557 70.5195 172.334 70.6914C172.111 70.8633 172 71.0879 172 71.3652C172 71.627 172.104 71.8242 172.311 71.957C172.518 72.0898 172.891 72.2168 173.43 72.3379C173.973 72.459 174.412 72.6035 174.748 72.7715C175.084 72.9395 175.332 73.1426 175.492 73.3809C175.656 73.6152 175.738 73.9023 175.738 74.2422C175.738 74.8086 175.512 75.2637 175.059 75.6074C174.605 75.9473 174.018 76.1172 173.295 76.1172C172.787 76.1172 172.338 76.0273 171.947 75.8477C171.557 75.668 171.25 75.418 171.027 75.0977C170.809 74.7734 170.699 74.4238 170.699 74.0488H171.783C171.803 74.4121 171.947 74.7012 172.217 74.916C172.49 75.127 172.85 75.2324 173.295 75.2324C173.705 75.2324 174.033 75.1504 174.279 74.9863C174.529 74.8184 174.654 74.5957 174.654 74.3184ZM178.328 76H177.244V69.6602H178.328V76ZM177.156 67.9785C177.156 67.8027 177.209 67.6543 177.314 67.5332C177.424 67.4121 177.584 67.3516 177.795 67.3516C178.006 67.3516 178.166 67.4121 178.275 67.5332C178.385 67.6543 178.439 67.8027 178.439 67.9785C178.439 68.1543 178.385 68.3008 178.275 68.418C178.166 68.5352 178.006 68.5938 177.795 68.5938C177.584 68.5938 177.424 68.5352 177.314 68.418C177.209 68.3008 177.156 68.1543 177.156 67.9785ZM183.76 74.3184C183.76 74.0254 183.648 73.7988 183.426 73.6387C183.207 73.4746 182.822 73.334 182.271 73.2168C181.725 73.0996 181.289 72.959 180.965 72.7949C180.645 72.6309 180.406 72.4355 180.25 72.209C180.098 71.9824 180.021 71.7129 180.021 71.4004C180.021 70.8809 180.24 70.4414 180.678 70.082C181.119 69.7227 181.682 69.543 182.365 69.543C183.084 69.543 183.666 69.7285 184.111 70.0996C184.561 70.4707 184.785 70.9453 184.785 71.5234H183.695C183.695 71.2266 183.568 70.9707 183.314 70.7559C183.064 70.541 182.748 70.4336 182.365 70.4336C181.971 70.4336 181.662 70.5195 181.439 70.6914C181.217 70.8633 181.105 71.0879 181.105 71.3652C181.105 71.627 181.209 71.8242 181.416 71.957C181.623 72.0898 181.996 72.2168 182.535 72.3379C183.078 72.459 183.518 72.6035 183.854 72.7715C184.189 72.9395 184.438 73.1426 184.598 73.3809C184.762 73.6152 184.844 73.9023 184.844 74.2422C184.844 74.8086 184.617 75.2637 184.164 75.6074C183.711 75.9473 183.123 76.1172 182.4 76.1172C181.893 76.1172 181.443 76.0273 181.053 75.8477C180.662 75.668 180.355 75.418 180.133 75.0977C179.914 74.7734 179.805 74.4238 179.805 74.0488H180.889C180.908 74.4121 181.053 74.7012 181.322 74.916C181.596 75.127 181.955 75.2324 182.4 75.2324C182.811 75.2324 183.139 75.1504 183.385 74.9863C183.635 74.8184 183.76 74.5957 183.76 74.3184Z" fill="#F5F2F8"/>
<path d="M181.667 91.3333C181.667 93.1667 180.167 94.6667 178.333 94.6667C178.033 94.6667 177.75 94.6333 177.483 94.55L171.55 100.467C171.633 100.733 171.667 101.033 171.667 101.333C171.667 103.167 170.167 104.667 168.333 104.667C166.5 104.667 165 103.167 165 101.333C165 101.033 165.033 100.733 165.117 100.467L160.867 96.2167C160.6 96.3 160.3 96.3333 160 96.3333C159.7 96.3333 159.4 96.3 159.133 96.2167L151.55 103.817C151.633 104.083 151.667 104.367 151.667 104.667C151.667 106.5 150.167 108 148.333 108C146.5 108 145 106.5 145 104.667C145 102.833 146.5 101.333 148.333 101.333C148.633 101.333 148.917 101.367 149.183 101.45L156.783 93.8667C156.7 93.6 156.667 93.3 156.667 93C156.667 91.1667 158.167 89.6667 160 89.6667C161.833 89.6667 163.333 91.1667 163.333 93C163.333 93.3 163.3 93.6 163.217 93.8667L167.467 98.1167C167.733 98.0333 168.033 98 168.333 98C168.633 98 168.933 98.0333 169.2 98.1167L175.117 92.1833C175.033 91.9167 175 91.6333 175 91.3333C175 89.5 176.5 88 178.333 88C180.167 88 181.667 89.5 181.667 91.3333Z" fill="#ECF6F3"/>
</g>
</g>
<defs>
<filter id="filter0_d" x="0" y="0" width="226" height="146" filterUnits="userSpaceOnUse" color-interpolation-filters="sRGB">
<feFlood flood-opacity="0" result="BackgroundImageFix"/>
<feColorMatrix in="SourceAlpha" type="matrix" values="0 0 0 0 0 0 0 0 0 0 0 0 0 0 0 0 0 0 127 0"/>
<feMorphology radius="5" operator="dilate" in="SourceAlpha" result="effect1_dropShadow"/>
<feOffset dy="4"/>
<feGaussianBlur stdDeviation="4"/>
<feColorMatrix type="matrix" values="0 0 0 0 0 0 0 0 0 0 0 0 0 0 0 0 0 0 0.3 0"/>
<feBlend mode="normal" in2="BackgroundImageFix" result="effect1_dropShadow"/>
<feBlend mode="normal" in="SourceGraphic" in2="effect1_dropShadow" result="shape"/>
</filter>
<clipPath id="clip0">
<rect x="13" y="9" width="200" height="120" rx="10" fill="white"/>
</clipPath>
</defs>
</svg>
