<svg width="1914" height="620" viewBox="0 0 1914 620" fill="none" xmlns="http://www.w3.org/2000/svg">
<g clip-path="url(#clip0)">
<g filter="url(#filter0_d)">
<path fill-rule="evenodd" clip-rule="evenodd" d="M2045.59 218.911L1947.84 273.181C1850.09 327.451 1654.58 435.99 1475.33 461.958C1296.09 487.926 1133.1 431.322 981.73 315.739C830.36 200.155 690.604 25.5917 541.557 -101.788C392.509 -229.167 234.17 -309.363 155 -349.461L75.8305 -389.559L-63.5493 318.198L20.2664 334.704C104.082 351.21 271.714 384.222 439.345 417.234C606.976 450.246 774.608 483.258 942.239 516.27C1109.87 549.282 1277.5 582.294 1445.13 615.306C1612.76 648.317 1780.4 681.329 1864.21 697.835L1948.03 714.341L2045.59 218.911Z" fill="#7C568C"/>
</g>
<g filter="url(#filter1_d)">
<path fill-rule="evenodd" clip-rule="evenodd" d="M1825.55 1.65297L1756.53 86.6124C1687.5 171.572 1549.45 341.491 1388.63 451.656C1227.81 561.82 1044.22 612.231 844.366 619.961C644.509 627.691 428.388 592.739 225.278 591.932C22.1687 591.126 -167.929 624.464 -262.978 641.133L-358.026 657.802L-162.847 1169.98L-74.3041 1136.24C14.2388 1102.5 191.324 1035.01 368.41 967.528C545.495 900.045 722.581 832.561 899.666 765.078C1076.75 697.594 1253.84 630.111 1430.92 562.627C1608.01 495.144 1785.09 427.66 1873.64 393.918L1962.18 360.177L1825.55 1.65297Z" fill="#644172"/>
</g>
<g filter="url(#filter2_d)">
<path fill-rule="evenodd" clip-rule="evenodd" d="M1990.12 196.054L1905.81 260.804C1821.5 325.555 1652.89 455.055 1483.76 509.683C1314.64 564.311 1145.01 544.066 975.02 470.34C805.029 396.615 634.676 269.409 464.612 184.987C294.548 100.566 124.774 58.9287 39.8871 38.1102L-44.9999 17.2916L-40.6557 659.057L44.0865 658.484C128.829 657.91 298.313 656.763 467.798 655.616C637.282 654.468 806.767 653.321 976.251 652.174C1145.74 651.027 1315.22 649.879 1484.7 648.732C1654.19 647.585 1823.67 646.438 1908.42 645.864L1993.16 645.29L1990.12 196.054Z" fill="#390B4D" fill-opacity="0.8"/>
</g>
<g filter="url(#filter3_d)">
<path fill-rule="evenodd" clip-rule="evenodd" d="M2146.63 381.705L2055.36 418.64C1964.09 455.575 1781.55 529.445 1598.91 560.494C1416.26 591.543 1233.5 579.772 1050.67 537.415C867.836 495.058 684.926 422.115 502.077 373.641C319.228 325.167 136.442 301.162 45.0483 289.159L-46.345 277.157L-45.4142 644.188L45.948 643.956C137.31 643.724 320.035 643.261 502.759 642.798C685.484 642.334 868.209 641.871 1050.93 641.407C1233.66 640.944 1416.38 640.481 1599.11 640.017C1781.83 639.554 1964.56 639.091 2055.92 638.859L2147.28 638.627L2146.63 381.705Z" fill="#220230"/>
</g>
</g>
<defs>
<filter id="filter0_d" x="-69.5493" y="-395.559" width="2129.14" height="1123.9" filterUnits="userSpaceOnUse" color-interpolation-filters="sRGB">
<feFlood flood-opacity="0" result="BackgroundImageFix"/>
<feColorMatrix in="SourceAlpha" type="matrix" values="0 0 0 0 0 0 0 0 0 0 0 0 0 0 0 0 0 0 127 0"/>
<feOffset dx="4" dy="4"/>
<feGaussianBlur stdDeviation="5"/>
<feColorMatrix type="matrix" values="0 0 0 0 0 0 0 0 0 0 0 0 0 0 0 0 0 0 0.5 0"/>
<feBlend mode="normal" in2="BackgroundImageFix" result="effect1_dropShadow"/>
<feBlend mode="normal" in="SourceGraphic" in2="effect1_dropShadow" result="shape"/>
</filter>
<filter id="filter1_d" x="-368.026" y="-23.3469" width="2360.21" height="1208.33" filterUnits="userSpaceOnUse" color-interpolation-filters="sRGB">
<feFlood flood-opacity="0" result="BackgroundImageFix"/>
<feColorMatrix in="SourceAlpha" type="matrix" values="0 0 0 0 0 0 0 0 0 0 0 0 0 0 0 0 0 0 127 0"/>
<feOffset dx="10" dy="-5"/>
<feGaussianBlur stdDeviation="10"/>
<feColorMatrix type="matrix" values="0 0 0 0 0 0 0 0 0 0 0 0 0 0 0 0 0 0 0.53 0"/>
<feBlend mode="normal" in2="BackgroundImageFix" result="effect1_dropShadow"/>
<feBlend mode="normal" in="SourceGraphic" in2="effect1_dropShadow" result="shape"/>
</filter>
<filter id="filter2_d" x="-54.9999" y="2.2915" width="2078.16" height="681.766" filterUnits="userSpaceOnUse" color-interpolation-filters="sRGB">
<feFlood flood-opacity="0" result="BackgroundImageFix"/>
<feColorMatrix in="SourceAlpha" type="matrix" values="0 0 0 0 0 0 0 0 0 0 0 0 0 0 0 0 0 0 127 0"/>
<feOffset dx="10" dy="5"/>
<feGaussianBlur stdDeviation="10"/>
<feColorMatrix type="matrix" values="0 0 0 0 0 0 0 0 0 0 0 0 0 0 0 0 0 0 0.5 0"/>
<feBlend mode="normal" in2="BackgroundImageFix" result="effect1_dropShadow"/>
<feBlend mode="normal" in="SourceGraphic" in2="effect1_dropShadow" result="shape"/>
</filter>
<filter id="filter3_d" x="-52.345" y="261.156" width="2215.63" height="389.031" filterUnits="userSpaceOnUse" color-interpolation-filters="sRGB">
<feFlood flood-opacity="0" result="BackgroundImageFix"/>
<feColorMatrix in="SourceAlpha" type="matrix" values="0 0 0 0 0 0 0 0 0 0 0 0 0 0 0 0 0 0 127 0"/>
<feOffset dx="5" dy="-5"/>
<feGaussianBlur stdDeviation="5.5"/>
<feColorMatrix type="matrix" values="0 0 0 0 0 0 0 0 0 0 0 0 0 0 0 0 0 0 0.5 0"/>
<feBlend mode="normal" in2="BackgroundImageFix" result="effect1_dropShadow"/>
<feBlend mode="normal" in="SourceGraphic" in2="effect1_dropShadow" result="shape"/>
</filter>
<clipPath id="clip0">
<rect width="1914" height="620" fill="white"/>
</clipPath>
</defs>
</svg>
