<svg width="226" height="146" viewBox="0 0 226 146" fill="none" xmlns="http://www.w3.org/2000/svg">
<g filter="url(#filter0_d)">
<g clip-path="url(#clip0)">
<rect x="13" y="9" width="200" height="120" rx="10" fill="white"/>
<path d="M13 19C13 13.4772 17.4772 9 23 9H113V129H23C17.4772 129 13 124.523 13 119V19Z" fill="#E4AEE9"/>
<path d="M136.701 41.7734H133.127L132.324 44H131.164L134.422 35.4688H135.406L138.67 44H137.516L136.701 41.7734ZM133.467 40.8477H136.367L134.914 36.8574L133.467 40.8477ZM150.38 40.9004C150.38 41.8652 150.16 42.6426 149.718 43.2324C149.277 43.8223 148.679 44.1172 147.925 44.1172C147.156 44.1172 146.55 43.873 146.109 43.3848V46.4375H145.025V37.6602H146.015L146.068 38.3633C146.509 37.8164 147.123 37.543 147.908 37.543C148.67 37.543 149.271 37.8301 149.712 38.4043C150.158 38.9785 150.38 39.7773 150.38 40.8008V40.9004ZM149.296 40.7773C149.296 40.0625 149.144 39.498 148.839 39.084C148.535 38.6699 148.117 38.4629 147.586 38.4629C146.929 38.4629 146.437 38.7539 146.109 39.3359V42.3652C146.433 42.9434 146.929 43.2324 147.597 43.2324C148.117 43.2324 148.529 43.0273 148.834 42.6172C149.142 42.2031 149.296 41.5898 149.296 40.7773ZM154.967 42.4121L156.444 37.6602H157.604L155.055 44.9785C154.661 46.0332 154.034 46.5605 153.174 46.5605L152.969 46.543L152.565 46.4668V45.5879L152.858 45.6113C153.225 45.6113 153.51 45.5371 153.713 45.3887C153.92 45.2402 154.09 44.9688 154.223 44.5742L154.463 43.9297L152.202 37.6602H153.385L154.967 42.4121ZM161.247 36.125V37.6602H162.431V38.498H161.247V42.4297C161.247 42.6836 161.3 42.875 161.405 43.0039C161.511 43.1289 161.691 43.1914 161.945 43.1914C162.07 43.1914 162.241 43.168 162.46 43.1211V44C162.175 44.0781 161.898 44.1172 161.628 44.1172C161.144 44.1172 160.779 43.9707 160.532 43.6777C160.286 43.3848 160.163 42.9688 160.163 42.4297V38.498H159.009V37.6602H160.163V36.125H161.247ZM165.986 38.4277C166.467 37.8379 167.092 37.543 167.861 37.543C169.201 37.543 169.877 38.2988 169.889 39.8105V44H168.805V39.8047C168.801 39.3477 168.695 39.0098 168.488 38.791C168.285 38.5723 167.967 38.4629 167.533 38.4629C167.182 38.4629 166.873 38.5566 166.607 38.7441C166.342 38.9316 166.135 39.1777 165.986 39.4824V44H164.902V35H165.986V38.4277ZM172.425 40.7715C172.425 40.1504 172.546 39.5918 172.788 39.0957C173.034 38.5996 173.374 38.2168 173.807 37.9473C174.245 37.6777 174.743 37.543 175.302 37.543C176.165 37.543 176.862 37.8418 177.393 38.4395C177.929 39.0371 178.196 39.832 178.196 40.8242V40.9004C178.196 41.5176 178.077 42.0723 177.839 42.5645C177.604 43.0527 177.266 43.4336 176.825 43.707C176.388 43.9805 175.884 44.1172 175.313 44.1172C174.454 44.1172 173.757 43.8184 173.221 43.2207C172.69 42.623 172.425 41.832 172.425 40.8477V40.7715ZM173.514 40.9004C173.514 41.6035 173.677 42.168 174.001 42.5938C174.329 43.0195 174.766 43.2324 175.313 43.2324C175.864 43.2324 176.302 43.0176 176.626 42.5879C176.95 42.1543 177.112 41.5488 177.112 40.7715C177.112 40.0762 176.946 39.5137 176.614 39.084C176.286 38.6504 175.848 38.4336 175.302 38.4336C174.766 38.4336 174.335 38.6465 174.007 39.0723C173.679 39.498 173.514 40.1074 173.514 40.9004ZM181.781 37.6602L181.816 38.457C182.3 37.8477 182.933 37.543 183.714 37.543C185.054 37.543 185.73 38.2988 185.742 39.8105V44H184.658V39.8047C184.654 39.3477 184.548 39.0098 184.341 38.791C184.138 38.5723 183.82 38.4629 183.386 38.4629C183.035 38.4629 182.726 38.5566 182.461 38.7441C182.195 38.9316 181.988 39.1777 181.839 39.4824V44H180.755V37.6602H181.781ZM134.363 57.2324C134.75 57.2324 135.088 57.1152 135.377 56.8809C135.666 56.6465 135.826 56.3535 135.857 56.002H136.883C136.863 56.3652 136.738 56.7109 136.508 57.0391C136.277 57.3672 135.969 57.6289 135.582 57.8242C135.199 58.0195 134.793 58.1172 134.363 58.1172C133.5 58.1172 132.812 57.8301 132.301 57.2559C131.793 56.6777 131.539 55.8887 131.539 54.8887V54.707C131.539 54.0898 131.652 53.541 131.879 53.0605C132.105 52.5801 132.43 52.207 132.852 51.9414C133.277 51.6758 133.779 51.543 134.357 51.543C135.068 51.543 135.658 51.7559 136.127 52.1816C136.6 52.6074 136.852 53.1602 136.883 53.8398H135.857C135.826 53.4297 135.67 53.0938 135.389 52.832C135.111 52.5664 134.768 52.4336 134.357 52.4336C133.807 52.4336 133.379 52.6328 133.074 53.0312C132.773 53.4258 132.623 53.998 132.623 54.748V54.9531C132.623 55.6836 132.773 56.2461 133.074 56.6406C133.375 57.0352 133.805 57.2324 134.363 57.2324ZM139.014 54.7715C139.014 54.1504 139.136 53.5918 139.378 53.0957C139.624 52.5996 139.964 52.2168 140.397 51.9473C140.835 51.6777 141.333 51.543 141.891 51.543C142.755 51.543 143.452 51.8418 143.983 52.4395C144.518 53.0371 144.786 53.832 144.786 54.8242V54.9004C144.786 55.5176 144.667 56.0723 144.429 56.5645C144.194 57.0527 143.856 57.4336 143.415 57.707C142.977 57.9805 142.473 58.1172 141.903 58.1172C141.044 58.1172 140.346 57.8184 139.811 57.2207C139.28 56.623 139.014 55.832 139.014 54.8477V54.7715ZM140.104 54.9004C140.104 55.6035 140.266 56.168 140.591 56.5938C140.919 57.0195 141.356 57.2324 141.903 57.2324C142.454 57.2324 142.891 57.0176 143.216 56.5879C143.54 56.1543 143.702 55.5488 143.702 54.7715C143.702 54.0762 143.536 53.5137 143.204 53.084C142.876 52.6504 142.438 52.4336 141.891 52.4336C141.356 52.4336 140.925 52.6465 140.596 53.0723C140.268 53.498 140.104 54.1074 140.104 54.9004ZM147.082 54.7773C147.082 53.8047 147.312 53.0234 147.773 52.4336C148.234 51.8398 148.837 51.543 149.584 51.543C150.326 51.543 150.914 51.7969 151.347 52.3047V49H152.431V58H151.435L151.382 57.3203C150.949 57.8516 150.345 58.1172 149.572 58.1172C148.837 58.1172 148.238 57.8164 147.773 57.2148C147.312 56.6133 147.082 55.8281 147.082 54.8594V54.7773ZM148.166 54.9004C148.166 55.6191 148.314 56.1816 148.611 56.5879C148.908 56.9941 149.318 57.1973 149.841 57.1973C150.529 57.1973 151.031 56.8887 151.347 56.2715V53.3594C151.023 52.7617 150.525 52.4629 149.853 52.4629C149.322 52.4629 148.908 52.668 148.611 53.0781C148.314 53.4883 148.166 54.0957 148.166 54.9004ZM157.95 58.1172C157.09 58.1172 156.391 57.8359 155.852 57.2734C155.313 56.707 155.043 55.9512 155.043 55.0059V54.8066C155.043 54.1777 155.163 53.6172 155.401 53.125C155.643 52.6289 155.979 52.2422 156.409 51.9648C156.842 51.6836 157.311 51.543 157.815 51.543C158.639 51.543 159.28 51.8145 159.737 52.3574C160.194 52.9004 160.422 53.6777 160.422 54.6895V55.1406H156.127C156.143 55.7656 156.325 56.2715 156.672 56.6582C157.024 57.041 157.469 57.2324 158.008 57.2324C158.391 57.2324 158.715 57.1543 158.981 56.998C159.246 56.8418 159.479 56.6348 159.678 56.377L160.34 56.8926C159.809 57.709 159.012 58.1172 157.95 58.1172ZM157.815 52.4336C157.377 52.4336 157.01 52.5938 156.713 52.9141C156.416 53.2305 156.233 53.6758 156.163 54.25H159.338V54.168C159.307 53.6172 159.159 53.1914 158.893 52.8906C158.627 52.5859 158.268 52.4336 157.815 52.4336ZM168.529 50.125V51.6602H169.713V52.498H168.529V56.4297C168.529 56.6836 168.582 56.875 168.688 57.0039C168.793 57.1289 168.973 57.1914 169.227 57.1914C169.352 57.1914 169.523 57.168 169.742 57.1211V58C169.457 58.0781 169.18 58.1172 168.91 58.1172C168.426 58.1172 168.061 57.9707 167.814 57.6777C167.568 57.3848 167.445 56.9688 167.445 56.4297V52.498H166.291V51.6602H167.445V50.125H168.529ZM171.78 54.7715C171.78 54.1504 171.901 53.5918 172.143 53.0957C172.389 52.5996 172.729 52.2168 173.163 51.9473C173.6 51.6777 174.098 51.543 174.657 51.543C175.52 51.543 176.218 51.8418 176.749 52.4395C177.284 53.0371 177.552 53.832 177.552 54.8242V54.9004C177.552 55.5176 177.432 56.0723 177.194 56.5645C176.96 57.0527 176.622 57.4336 176.18 57.707C175.743 57.9805 175.239 58.1172 174.669 58.1172C173.809 58.1172 173.112 57.8184 172.577 57.2207C172.046 56.623 171.78 55.832 171.78 54.8477V54.7715ZM172.87 54.9004C172.87 55.6035 173.032 56.168 173.356 56.5938C173.684 57.0195 174.122 57.2324 174.669 57.2324C175.22 57.2324 175.657 57.0176 175.981 56.5879C176.305 56.1543 176.468 55.5488 176.468 54.7715C176.468 54.0762 176.302 53.5137 175.97 53.084C175.641 52.6504 175.204 52.4336 174.657 52.4336C174.122 52.4336 173.69 52.6465 173.362 53.0723C173.034 53.498 172.87 54.1074 172.87 54.9004ZM134.363 71.2324C134.75 71.2324 135.088 71.1152 135.377 70.8809C135.666 70.6465 135.826 70.3535 135.857 70.002H136.883C136.863 70.3652 136.738 70.7109 136.508 71.0391C136.277 71.3672 135.969 71.6289 135.582 71.8242C135.199 72.0195 134.793 72.1172 134.363 72.1172C133.5 72.1172 132.812 71.8301 132.301 71.2559C131.793 70.6777 131.539 69.8887 131.539 68.8887V68.707C131.539 68.0898 131.652 67.541 131.879 67.0605C132.105 66.5801 132.43 66.207 132.852 65.9414C133.277 65.6758 133.779 65.543 134.357 65.543C135.068 65.543 135.658 65.7559 136.127 66.1816C136.6 66.6074 136.852 67.1602 136.883 67.8398H135.857C135.826 67.4297 135.67 67.0938 135.389 66.832C135.111 66.5664 134.768 66.4336 134.357 66.4336C133.807 66.4336 133.379 66.6328 133.074 67.0312C132.773 67.4258 132.623 67.998 132.623 68.748V68.9531C132.623 69.6836 132.773 70.2461 133.074 70.6406C133.375 71.0352 133.805 71.2324 134.363 71.2324ZM139.014 68.7715C139.014 68.1504 139.136 67.5918 139.378 67.0957C139.624 66.5996 139.964 66.2168 140.397 65.9473C140.835 65.6777 141.333 65.543 141.891 65.543C142.755 65.543 143.452 65.8418 143.983 66.4395C144.518 67.0371 144.786 67.832 144.786 68.8242V68.9004C144.786 69.5176 144.667 70.0723 144.429 70.5645C144.194 71.0527 143.856 71.4336 143.415 71.707C142.977 71.9805 142.473 72.1172 141.903 72.1172C141.044 72.1172 140.346 71.8184 139.811 71.2207C139.28 70.623 139.014 69.832 139.014 68.8477V68.7715ZM140.104 68.9004C140.104 69.6035 140.266 70.168 140.591 70.5938C140.919 71.0195 141.356 71.2324 141.903 71.2324C142.454 71.2324 142.891 71.0176 143.216 70.5879C143.54 70.1543 143.702 69.5488 143.702 68.7715C143.702 68.0762 143.536 67.5137 143.204 67.084C142.876 66.6504 142.438 66.4336 141.891 66.4336C141.356 66.4336 140.925 66.6465 140.596 67.0723C140.268 67.498 140.104 68.1074 140.104 68.9004ZM148.371 65.6602L148.406 66.457C148.89 65.8477 149.523 65.543 150.304 65.543C151.644 65.543 152.32 66.2988 152.332 67.8105V72H151.248V67.8047C151.244 67.3477 151.138 67.0098 150.931 66.791C150.728 66.5723 150.41 66.4629 149.976 66.4629C149.625 66.4629 149.316 66.5566 149.05 66.7441C148.785 66.9316 148.578 67.1777 148.429 67.4824V72H147.345V65.6602H148.371ZM157.258 70.5293L158.829 65.6602H159.936L157.663 72H156.836L154.539 65.6602H155.647L157.258 70.5293ZM164.728 72.1172C163.868 72.1172 163.169 71.8359 162.63 71.2734C162.091 70.707 161.821 69.9512 161.821 69.0059V68.8066C161.821 68.1777 161.941 67.6172 162.179 67.125C162.421 66.6289 162.757 66.2422 163.187 65.9648C163.62 65.6836 164.089 65.543 164.593 65.543C165.417 65.543 166.058 65.8145 166.515 66.3574C166.972 66.9004 167.2 67.6777 167.2 68.6895V69.1406H162.905C162.921 69.7656 163.103 70.2715 163.45 70.6582C163.802 71.041 164.247 71.2324 164.786 71.2324C165.169 71.2324 165.493 71.1543 165.759 70.998C166.025 70.8418 166.257 70.6348 166.456 70.377L167.118 70.8926C166.587 71.709 165.79 72.1172 164.728 72.1172ZM164.593 66.4336C164.155 66.4336 163.788 66.5938 163.491 66.9141C163.195 67.2305 163.011 67.6758 162.941 68.25H166.116V68.168C166.085 67.6172 165.937 67.1914 165.671 66.8906C165.405 66.5859 165.046 66.4336 164.593 66.4336ZM172.725 66.6328C172.561 66.6055 172.383 66.5918 172.191 66.5918C171.48 66.5918 170.998 66.8945 170.744 67.5V72H169.66V65.6602H170.715L170.732 66.3926C171.088 65.8262 171.592 65.543 172.244 65.543C172.455 65.543 172.615 65.5703 172.725 65.625V66.6328ZM176.69 64.125V65.6602H177.874V66.498H176.69V70.4297C176.69 70.6836 176.743 70.875 176.848 71.0039C176.954 71.1289 177.134 71.1914 177.388 71.1914C177.513 71.1914 177.684 71.168 177.903 71.1211V72C177.618 72.0781 177.341 72.1172 177.071 72.1172C176.587 72.1172 176.221 71.9707 175.975 71.6777C175.729 71.3848 175.606 70.9688 175.606 70.4297V66.498H174.452V65.6602H175.606V64.125H176.69ZM133.912 84.5293L135.482 79.6602H136.59L134.316 86H133.49L131.193 79.6602H132.301L133.912 84.5293ZM140.011 86H138.927V79.6602H140.011V86ZM138.839 77.9785C138.839 77.8027 138.891 77.6543 138.997 77.5332C139.106 77.4121 139.266 77.3516 139.477 77.3516C139.688 77.3516 139.848 77.4121 139.958 77.5332C140.067 77.6543 140.122 77.8027 140.122 77.9785C140.122 78.1543 140.067 78.3008 139.958 78.418C139.848 78.5352 139.688 78.5938 139.477 78.5938C139.266 78.5938 139.106 78.5352 138.997 78.418C138.891 78.3008 138.839 78.1543 138.839 77.9785ZM142.687 82.7773C142.687 81.8047 142.918 81.0234 143.379 80.4336C143.839 79.8398 144.443 79.543 145.189 79.543C145.931 79.543 146.519 79.7969 146.953 80.3047V77H148.037V86H147.041L146.988 85.3203C146.554 85.8516 145.951 86.1172 145.177 86.1172C144.443 86.1172 143.843 85.8164 143.379 85.2148C142.918 84.6133 142.687 83.8281 142.687 82.8594V82.7773ZM143.771 82.9004C143.771 83.6191 143.92 84.1816 144.216 84.5879C144.513 84.9941 144.923 85.1973 145.447 85.1973C146.134 85.1973 146.636 84.8887 146.953 84.2715V81.3594C146.629 80.7617 146.13 80.4629 145.459 80.4629C144.927 80.4629 144.513 80.668 144.216 81.0781C143.92 81.4883 143.771 82.0957 143.771 82.9004ZM153.555 86.1172C152.696 86.1172 151.996 85.8359 151.457 85.2734C150.918 84.707 150.649 83.9512 150.649 83.0059V82.8066C150.649 82.1777 150.768 81.6172 151.006 81.125C151.248 80.6289 151.584 80.2422 152.014 79.9648C152.448 79.6836 152.916 79.543 153.42 79.543C154.245 79.543 154.885 79.8145 155.342 80.3574C155.799 80.9004 156.028 81.6777 156.028 82.6895V83.1406H151.733C151.748 83.7656 151.93 84.2715 152.278 84.6582C152.629 85.041 153.075 85.2324 153.614 85.2324C153.996 85.2324 154.321 85.1543 154.586 84.998C154.852 84.8418 155.084 84.6348 155.284 84.377L155.946 84.8926C155.414 85.709 154.618 86.1172 153.555 86.1172ZM153.42 80.4336C152.983 80.4336 152.616 80.5938 152.319 80.9141C152.022 81.2305 151.838 81.6758 151.768 82.25H154.944V82.168C154.913 81.6172 154.764 81.1914 154.498 80.8906C154.233 80.5859 153.873 80.4336 153.42 80.4336ZM158.2 82.7715C158.2 82.1504 158.321 81.5918 158.564 81.0957C158.81 80.5996 159.15 80.2168 159.583 79.9473C160.021 79.6777 160.519 79.543 161.077 79.543C161.941 79.543 162.638 79.8418 163.169 80.4395C163.704 81.0371 163.972 81.832 163.972 82.8242V82.9004C163.972 83.5176 163.853 84.0723 163.614 84.5645C163.38 85.0527 163.042 85.4336 162.601 85.707C162.163 85.9805 161.659 86.1172 161.089 86.1172C160.23 86.1172 159.532 85.8184 158.997 85.2207C158.466 84.623 158.2 83.832 158.2 82.8477V82.7715ZM159.29 82.9004C159.29 83.6035 159.452 84.168 159.777 84.5938C160.105 85.0195 160.542 85.2324 161.089 85.2324C161.64 85.2324 162.077 85.0176 162.402 84.5879C162.726 84.1543 162.888 83.5488 162.888 82.7715C162.888 82.0762 162.722 81.5137 162.39 81.084C162.062 80.6504 161.624 80.4336 161.077 80.4336C160.542 80.4336 160.111 80.6465 159.782 81.0723C159.454 81.498 159.29 82.1074 159.29 82.9004ZM170.223 84.3184C170.223 84.0254 170.111 83.7988 169.889 83.6387C169.67 83.4746 169.285 83.334 168.734 83.2168C168.188 83.0996 167.752 82.959 167.428 82.7949C167.107 82.6309 166.869 82.4355 166.713 82.209C166.561 81.9824 166.484 81.7129 166.484 81.4004C166.484 80.8809 166.703 80.4414 167.141 80.082C167.582 79.7227 168.145 79.543 168.828 79.543C169.547 79.543 170.129 79.7285 170.574 80.0996C171.023 80.4707 171.248 80.9453 171.248 81.5234H170.158C170.158 81.2266 170.031 80.9707 169.777 80.7559C169.527 80.541 169.211 80.4336 168.828 80.4336C168.434 80.4336 168.125 80.5195 167.902 80.6914C167.68 80.8633 167.568 81.0879 167.568 81.3652C167.568 81.627 167.672 81.8242 167.879 81.957C168.086 82.0898 168.459 82.2168 168.998 82.3379C169.541 82.459 169.98 82.6035 170.316 82.7715C170.652 82.9395 170.9 83.1426 171.061 83.3809C171.225 83.6152 171.307 83.9023 171.307 84.2422C171.307 84.8086 171.08 85.2637 170.627 85.6074C170.174 85.9473 169.586 86.1172 168.863 86.1172C168.355 86.1172 167.906 86.0273 167.516 85.8477C167.125 85.668 166.818 85.418 166.596 85.0977C166.377 84.7734 166.268 84.4238 166.268 84.0488H167.352C167.371 84.4121 167.516 84.7012 167.785 84.916C168.059 85.127 168.418 85.2324 168.863 85.2324C169.273 85.2324 169.602 85.1504 169.848 84.9863C170.098 84.8184 170.223 84.5957 170.223 84.3184ZM179.273 86H178.189V79.6602H179.273V86ZM178.101 77.9785C178.101 77.8027 178.154 77.6543 178.259 77.5332C178.369 77.4121 178.529 77.3516 178.74 77.3516C178.951 77.3516 179.111 77.4121 179.22 77.5332C179.33 77.6543 179.384 77.8027 179.384 77.9785C179.384 78.1543 179.33 78.3008 179.22 78.418C179.111 78.5352 178.951 78.5938 178.74 78.5938C178.529 78.5938 178.369 78.5352 178.259 78.418C178.154 78.3008 178.101 78.1543 178.101 77.9785ZM183.239 79.6602L183.274 80.457C183.758 79.8477 184.391 79.543 185.172 79.543C186.512 79.543 187.188 80.2988 187.2 81.8105V86H186.116V81.8047C186.112 81.3477 186.006 81.0098 185.799 80.791C185.596 80.5723 185.278 80.4629 184.844 80.4629C184.493 80.4629 184.184 80.5566 183.918 80.7441C183.653 80.9316 183.446 81.1777 183.297 81.4824V86H182.213V79.6602H183.239ZM191.505 78.125V79.6602H192.689V80.498H191.505V84.4297C191.505 84.6836 191.558 84.875 191.663 85.0039C191.769 85.1289 191.948 85.1914 192.202 85.1914C192.327 85.1914 192.499 85.168 192.718 85.1211V86C192.433 86.0781 192.155 86.1172 191.886 86.1172C191.402 86.1172 191.036 85.9707 190.79 85.6777C190.544 85.3848 190.421 84.9688 190.421 84.4297V80.498H189.267V79.6602H190.421V78.125H191.505ZM194.756 82.7715C194.756 82.1504 194.877 81.5918 195.119 81.0957C195.365 80.5996 195.705 80.2168 196.139 79.9473C196.576 79.6777 197.074 79.543 197.633 79.543C198.496 79.543 199.193 79.8418 199.725 80.4395C200.26 81.0371 200.527 81.832 200.527 82.8242V82.9004C200.527 83.5176 200.408 84.0723 200.17 84.5645C199.936 85.0527 199.598 85.4336 199.156 85.707C198.719 85.9805 198.215 86.1172 197.645 86.1172C196.785 86.1172 196.088 85.8184 195.553 85.2207C195.021 84.623 194.756 83.832 194.756 82.8477V82.7715ZM195.846 82.9004C195.846 83.6035 196.008 84.168 196.332 84.5938C196.66 85.0195 197.098 85.2324 197.645 85.2324C198.195 85.2324 198.633 85.0176 198.957 84.5879C199.281 84.1543 199.443 83.5488 199.443 82.7715C199.443 82.0762 199.277 81.5137 198.945 81.084C198.617 80.6504 198.18 80.4336 197.633 80.4336C197.098 80.4336 196.666 80.6465 196.338 81.0723C196.01 81.498 195.846 82.1074 195.846 82.9004ZM131.562 96.7773C131.562 95.7891 131.791 95.0039 132.248 94.4219C132.705 93.8359 133.311 93.543 134.064 93.543C134.838 93.543 135.441 93.8164 135.875 94.3633L135.928 93.6602H136.918V99.8477C136.918 100.668 136.674 101.314 136.186 101.787C135.701 102.26 135.049 102.496 134.229 102.496C133.771 102.496 133.324 102.398 132.887 102.203C132.449 102.008 132.115 101.74 131.885 101.4L132.447 100.75C132.912 101.324 133.48 101.611 134.152 101.611C134.68 101.611 135.09 101.463 135.383 101.166C135.68 100.869 135.828 100.451 135.828 99.9121V99.3672C135.395 99.8672 134.803 100.117 134.053 100.117C133.311 100.117 132.709 99.8184 132.248 99.2207C131.791 98.623 131.562 97.8086 131.562 96.7773ZM132.652 96.9004C132.652 97.6152 132.799 98.1777 133.092 98.5879C133.385 98.9941 133.795 99.1973 134.322 99.1973C135.006 99.1973 135.508 98.8867 135.828 98.2656V95.3711C135.496 94.7656 134.998 94.4629 134.334 94.4629C133.807 94.4629 133.395 94.668 133.098 95.0781C132.801 95.4883 132.652 96.0957 132.652 96.9004ZM140.936 100H139.852V93.6602H140.936V100ZM139.764 91.9785C139.764 91.8027 139.817 91.6543 139.923 91.5332C140.032 91.4121 140.192 91.3516 140.403 91.3516C140.614 91.3516 140.774 91.4121 140.884 91.5332C140.993 91.6543 141.048 91.8027 141.048 91.9785C141.048 92.1543 140.993 92.3008 140.884 92.418C140.774 92.5352 140.614 92.5938 140.403 92.5938C140.192 92.5938 140.032 92.5352 139.923 92.418C139.817 92.3008 139.764 92.1543 139.764 91.9785ZM144.41 100V94.498H143.408V93.6602H144.41V93.0098C144.41 92.3301 144.591 91.8047 144.955 91.4336C145.318 91.0625 145.832 90.877 146.496 90.877C146.746 90.877 146.994 90.9102 147.24 90.9766L147.181 91.8555C146.998 91.8203 146.802 91.8027 146.595 91.8027C146.244 91.8027 145.972 91.9062 145.781 92.1133C145.589 92.3164 145.494 92.6094 145.494 92.9922V93.6602H146.847V94.498H145.494V100H144.41ZM152.94 98.3184C152.94 98.0254 152.829 97.7988 152.606 97.6387C152.387 97.4746 152.002 97.334 151.452 97.2168C150.905 97.0996 150.469 96.959 150.145 96.7949C149.825 96.6309 149.586 96.4355 149.43 96.209C149.278 95.9824 149.202 95.7129 149.202 95.4004C149.202 94.8809 149.42 94.4414 149.858 94.082C150.299 93.7227 150.862 93.543 151.545 93.543C152.264 93.543 152.846 93.7285 153.291 94.0996C153.741 94.4707 153.965 94.9453 153.965 95.5234H152.875C152.875 95.2266 152.748 94.9707 152.495 94.7559C152.245 94.541 151.928 94.4336 151.545 94.4336C151.151 94.4336 150.842 94.5195 150.62 94.6914C150.397 94.8633 150.286 95.0879 150.286 95.3652C150.286 95.627 150.389 95.8242 150.596 95.957C150.803 96.0898 151.176 96.2168 151.715 96.3379C152.258 96.459 152.698 96.6035 153.034 96.7715C153.37 96.9395 153.618 97.1426 153.778 97.3809C153.942 97.6152 154.024 97.9023 154.024 98.2422C154.024 98.8086 153.797 99.2637 153.344 99.6074C152.891 99.9473 152.303 100.117 151.58 100.117C151.073 100.117 150.623 100.027 150.233 99.8477C149.842 99.668 149.536 99.418 149.313 99.0977C149.094 98.7734 148.985 98.4238 148.985 98.0488H150.069C150.088 98.4121 150.233 98.7012 150.502 98.916C150.776 99.127 151.135 99.2324 151.58 99.2324C151.991 99.2324 152.319 99.1504 152.565 98.9863C152.815 98.8184 152.94 98.5957 152.94 98.3184Z" fill="#573B64"/>
<path fill-rule="evenodd" clip-rule="evenodd" d="M-25.1482 50.8774L-14.3549 48.3201C-3.56158 45.7627 18.025 40.6481 32.0594 46.2169C46.0937 51.7857 52.5758 68.0379 58.1138 85.6256C63.6519 103.213 68.2459 122.136 78.5041 133.047C88.7623 143.957 104.685 146.855 123.439 145.747C142.194 144.639 163.78 139.524 174.574 136.967L185.367 134.409L140.053 198.51L133.98 194.39C127.907 190.27 115.761 182.031 103.614 173.791C91.4682 165.551 79.3219 157.312 67.1756 149.072C55.0294 140.832 42.8831 132.593 30.7368 124.353C18.5905 116.113 6.44426 107.874 -5.70201 99.6341C-17.8483 91.3945 -29.9946 83.1548 -36.0677 79.035L-42.1408 74.9151L-25.1482 50.8774Z" fill="#DC97E2"/>
<path fill-rule="evenodd" clip-rule="evenodd" d="M-5.43932 56.2331L0.456837 57.7267C6.35299 59.2204 18.1453 62.2077 26.3174 68.5978C34.4895 74.9879 39.0413 84.7807 43.1406 94.999C47.24 105.217 50.8868 115.861 57.2487 123.952C63.6107 132.044 72.6878 137.583 83.1225 141.846C93.5573 146.11 105.35 149.097 111.246 150.591L117.142 152.084L95.4205 172.501L91.787 168.881C88.1535 165.26 80.8865 158.02 73.6194 150.779C66.3524 143.538 59.0854 136.297 51.8184 129.056C44.5514 121.816 37.2843 114.575 30.0173 107.334C22.7503 100.093 15.4833 92.8525 8.21624 85.6117C0.949219 78.3709 -6.3178 71.1301 -9.95132 67.5097L-13.5848 63.8893L-5.43932 56.2331Z" fill="#E4AEE9"/>
<path d="M39.2891 60.8809C39 61.2949 38.5957 61.6055 38.0762 61.8125C37.5605 62.0156 36.959 62.1172 36.2715 62.1172C35.5762 62.1172 34.959 61.9551 34.4199 61.6309C33.8809 61.3027 33.4629 60.8379 33.166 60.2363C32.873 59.6348 32.7227 58.9375 32.7148 58.1445V57.4004C32.7148 56.1152 33.0137 55.1191 33.6113 54.4121C34.2129 53.7051 35.0566 53.3516 36.1426 53.3516C37.0332 53.3516 37.75 53.5801 38.293 54.0371C38.8359 54.4902 39.168 55.1348 39.2891 55.9707H38.1641C37.9531 54.8418 37.2812 54.2773 36.1484 54.2773C35.3945 54.2773 34.8223 54.543 34.4316 55.0742C34.0449 55.6016 33.8496 56.3672 33.8457 57.3711V58.0684C33.8457 59.0254 34.0645 59.7871 34.502 60.3535C34.9395 60.916 35.5312 61.1973 36.2773 61.1973C36.6992 61.1973 37.0684 61.1504 37.3848 61.0566C37.7012 60.9629 37.9629 60.8047 38.1699 60.582V58.666H36.1953V57.752H39.2891V60.8809ZM42.377 62H41.252V53.4688H42.377V62ZM49.1445 58.2324H45.5645V62H44.4395V53.4688H49.7246V54.3945H45.5645V57.3125H49.1445V58.2324ZM55.502 53.4688L58.291 60.4297L61.0801 53.4688H62.5391V62H61.4141V58.6777L61.5195 55.0918L58.7188 62H57.8574L55.0625 55.1094L55.1738 58.6777V62H54.0488V53.4688H55.502ZM68.2695 62C68.207 61.875 68.1562 61.6523 68.1172 61.332C67.6133 61.8555 67.0117 62.1172 66.3125 62.1172C65.6875 62.1172 65.1738 61.9414 64.7715 61.5898C64.373 61.2344 64.1738 60.7852 64.1738 60.2422C64.1738 59.582 64.4238 59.0703 64.9238 58.707C65.4277 58.3398 66.1348 58.1562 67.0449 58.1562H68.0996V57.6582C68.0996 57.2793 67.9863 56.9785 67.7598 56.7559C67.5332 56.5293 67.1992 56.416 66.7578 56.416C66.3711 56.416 66.0469 56.5137 65.7852 56.709C65.5234 56.9043 65.3926 57.1406 65.3926 57.418H64.3027C64.3027 57.1016 64.4141 56.7969 64.6367 56.5039C64.8633 56.207 65.168 55.9727 65.5508 55.8008C65.9375 55.6289 66.3613 55.543 66.8223 55.543C67.5527 55.543 68.125 55.7266 68.5391 56.0938C68.9531 56.457 69.168 56.959 69.1836 57.5996V60.5176C69.1836 61.0996 69.2578 61.5625 69.4062 61.9062V62H68.2695ZM66.4707 61.1738C66.8105 61.1738 67.1328 61.0859 67.4375 60.9102C67.7422 60.7344 67.9629 60.5059 68.0996 60.2246V58.9238H67.25C65.9219 58.9238 65.2578 59.3125 65.2578 60.0898C65.2578 60.4297 65.3711 60.6953 65.5977 60.8867C65.8242 61.0781 66.1152 61.1738 66.4707 61.1738ZM72.6523 59.0645L71.9727 59.7734V62H70.8887V53H71.9727V58.4434L72.5527 57.7461L74.5273 55.6602H75.8457L73.3789 58.3086L76.1328 62H74.8613L72.6523 59.0645ZM79.4785 62.1172C78.6191 62.1172 77.9199 61.8359 77.3809 61.2734C76.8418 60.707 76.5723 59.9512 76.5723 59.0059V58.8066C76.5723 58.1777 76.6914 57.6172 76.9297 57.125C77.1719 56.6289 77.5078 56.2422 77.9375 55.9648C78.3711 55.6836 78.8398 55.543 79.3438 55.543C80.168 55.543 80.8086 55.8145 81.2656 56.3574C81.7227 56.9004 81.9512 57.6777 81.9512 58.6895V59.1406H77.6562C77.6719 59.7656 77.8535 60.2715 78.2012 60.6582C78.5527 61.041 78.998 61.2324 79.5371 61.2324C79.9199 61.2324 80.2441 61.1543 80.5098 60.998C80.7754 60.8418 81.0078 60.6348 81.207 60.377L81.8691 60.8926C81.3379 61.709 80.541 62.1172 79.4785 62.1172ZM79.3438 56.4336C78.9062 56.4336 78.5391 56.5938 78.2422 56.9141C77.9453 57.2305 77.7617 57.6758 77.6914 58.25H80.8672V58.168C80.8359 57.6172 80.6875 57.1914 80.4219 56.8906C80.1562 56.5859 79.7969 56.4336 79.3438 56.4336ZM86.2754 56.6328C86.1113 56.6055 85.9336 56.5918 85.7422 56.5918C85.0312 56.5918 84.5488 56.8945 84.2949 57.5V62H83.2109V55.6602H84.2656L84.2832 56.3926C84.6387 55.8262 85.1426 55.543 85.7949 55.543C86.0059 55.543 86.166 55.5703 86.2754 55.625V56.6328Z" fill="#F5F2F8"/>
<path d="M60.4059 83.3332C62.1351 83.3332 63.5413 81.8382 63.5413 79.9998C63.5413 78.1615 62.1351 76.6665 60.4059 76.6665C58.6768 76.6665 57.2706 78.1615 57.2706 79.9998C57.2706 81.8382 58.6768 83.3332 60.4059 83.3332ZM60.4059 78.3332C61.2556 78.3332 61.9736 79.0965 61.9736 79.9998C61.9736 80.9032 61.2556 81.6665 60.4059 81.6665C59.5563 81.6665 58.8383 80.9032 58.8383 79.9998C58.8383 79.0965 59.5563 78.3332 60.4059 78.3332Z" fill="#F5F2F8"/>
<path d="M53.23 83.4465L54.0139 84.8882C54.4301 85.6523 55.4318 85.939 56.1537 85.4965L56.5683 85.2415C57.0245 85.6223 57.5254 85.9348 58.0545 86.1682V86.6665C58.0545 87.5857 58.7576 88.3332 59.6221 88.3332H61.1898C62.0544 88.3332 62.7575 87.5857 62.7575 86.6665V86.1682C63.2865 85.9348 63.7874 85.6223 64.2436 85.2423L64.6582 85.4973C65.3817 85.939 66.3811 85.654 66.7989 84.8882L67.5819 83.4473C68.0146 82.6515 67.7575 81.6298 67.0089 81.1707L66.6131 80.9273C66.6554 80.6182 66.6766 80.309 66.6766 79.9998C66.6766 79.6907 66.6554 79.3807 66.6131 79.074L67.0089 78.8307C67.7575 78.3707 68.0146 77.3498 67.5819 76.554L66.7989 75.1132C66.3827 74.3465 65.3817 74.059 64.6582 74.5032L64.2436 74.7582C63.7874 74.3773 63.2865 74.0648 62.7575 73.8315V73.3332C62.7575 72.414 62.0544 71.6665 61.1898 71.6665H59.6221C58.7576 71.6665 58.0545 72.414 58.0545 73.3332V73.8315C57.5254 74.0648 57.0245 74.3773 56.5683 74.7573L56.1537 74.5023C55.4294 74.0598 54.4293 74.3465 54.0131 75.1123L53.23 76.5532C52.7974 77.349 53.0544 78.3707 53.803 78.8298L54.1988 79.0732C54.1565 79.3807 54.1353 79.6907 54.1353 79.9998C54.1353 80.309 54.1565 80.6182 54.1988 80.9257L53.803 81.169C53.0544 81.629 52.7974 82.6507 53.23 83.4465ZM55.837 81.1482C55.7485 80.7707 55.703 80.384 55.703 79.9998C55.703 79.6148 55.7485 79.2282 55.8363 78.8515C55.9209 78.4907 55.7712 78.114 55.4679 77.9282L54.5876 77.3865L55.3699 75.9457L56.2674 76.4973C56.5683 76.6815 56.9469 76.6348 57.1985 76.379C57.7339 75.8398 58.3798 75.4365 59.0672 75.2132C59.3972 75.1065 59.6221 74.7823 59.6221 74.4165V73.3332H61.1898V74.4165C61.1898 74.7823 61.4148 75.1065 61.7448 75.2132C62.4322 75.4373 63.078 75.8398 63.6134 76.379C63.865 76.6348 64.2452 76.6807 64.5446 76.4973L65.4413 75.9465L66.2251 77.3873L65.3441 77.9282C65.0408 78.1148 64.891 78.4915 64.9757 78.8515C65.0635 79.2282 65.1089 79.6148 65.1089 79.9998C65.1089 80.384 65.0635 80.7707 64.9749 81.1482C64.891 81.509 65.0408 81.8857 65.3441 82.0715L66.2243 82.6123L65.4421 84.0532L64.5446 83.5023C64.2444 83.3182 63.865 83.364 63.6134 83.6207C63.078 84.1598 62.4322 84.5632 61.7448 84.7865C61.4148 84.8932 61.1898 85.2173 61.1898 85.5832L61.1914 86.6665H59.6221V85.5832C59.6221 85.2173 59.3972 84.8932 59.0672 84.7865C58.3798 84.5623 57.7339 84.1598 57.1985 83.6207C57.0496 83.469 56.8552 83.3915 56.6593 83.3915C56.5245 83.3915 56.3896 83.4282 56.2674 83.5032L55.3707 84.0548L54.5868 82.614L55.4679 82.0715C55.7712 81.8857 55.9209 81.509 55.837 81.1482Z" fill="#F5F2F8"/>
</g>
</g>
<defs>
<filter id="filter0_d" x="0" y="0" width="226" height="146" filterUnits="userSpaceOnUse" color-interpolation-filters="sRGB">
<feFlood flood-opacity="0" result="BackgroundImageFix"/>
<feColorMatrix in="SourceAlpha" type="matrix" values="0 0 0 0 0 0 0 0 0 0 0 0 0 0 0 0 0 0 127 0"/>
<feMorphology radius="5" operator="dilate" in="SourceAlpha" result="effect1_dropShadow"/>
<feOffset dy="4"/>
<feGaussianBlur stdDeviation="4"/>
<feColorMatrix type="matrix" values="0 0 0 0 0 0 0 0 0 0 0 0 0 0 0 0 0 0 0.3 0"/>
<feBlend mode="normal" in2="BackgroundImageFix" result="effect1_dropShadow"/>
<feBlend mode="normal" in="SourceGraphic" in2="effect1_dropShadow" result="shape"/>
</filter>
<clipPath id="clip0">
<rect x="13" y="9" width="200" height="120" rx="10" fill="white"/>
</clipPath>
</defs>
</svg>
