<svg width="338" height="338" viewBox="0 0 338 338" fill="none" xmlns="http://www.w3.org/2000/svg">
<g filter="url(#filter0_d)">
<circle cx="169" cy="165" r="150" fill="#3F1E52"/>
</g>
<path fill-rule="evenodd" clip-rule="evenodd" d="M169.163 89.7485C134.731 89.7485 106.825 117.655 106.825 152.086C106.825 179.624 124.681 202.992 149.456 211.242C152.575 211.805 153.7 209.886 153.7 208.236C153.7 206.755 153.65 202.83 153.631 197.636C136.288 201.399 132.625 189.274 132.625 189.274C129.8 182.074 125.706 180.155 125.706 180.155C120.05 176.286 126.138 176.374 126.138 176.374C132.4 176.811 135.681 182.799 135.681 182.799C141.244 192.324 150.281 189.574 153.819 187.98C154.388 183.949 156.013 181.199 157.788 179.642C143.95 178.074 129.4 172.724 129.4 148.83C129.4 142.036 131.831 136.461 135.8 132.111C135.169 130.53 133.013 124.186 136.419 115.611C136.419 115.611 141.65 113.93 153.556 121.992C158.544 120.611 163.863 119.917 169.156 119.892C174.463 119.917 179.788 120.611 184.756 121.992C196.669 113.924 201.894 115.611 201.894 115.611C205.3 124.186 203.163 130.53 202.513 132.111C206.513 136.461 208.913 142.03 208.913 148.83C208.913 172.786 194.35 178.049 180.463 179.592C182.681 181.517 184.681 185.317 184.681 191.13C184.681 199.467 184.606 206.192 184.606 208.236C184.606 209.905 185.719 211.842 188.9 211.23C213.663 202.967 231.5 179.617 231.5 152.086C231.5 117.655 203.594 89.7485 169.163 89.7485Z" fill="#F2F4F3"/>
<path d="M109.949 247.145L113.01 236.986H116.109L111.405 250.494H108.502L103.816 236.986H106.906L109.949 247.145ZM120.349 250.494H117.565V236.986H120.349V250.494ZM129.941 246.95C129.941 246.424 129.756 246.022 129.385 245.744C129.014 245.459 128.346 245.162 127.381 244.853C126.416 244.538 125.652 244.228 125.089 243.925C123.556 243.097 122.789 241.98 122.789 240.576C122.789 239.846 122.993 239.197 123.401 238.628C123.815 238.053 124.406 237.604 125.173 237.283C125.946 236.961 126.812 236.8 127.771 236.8C128.735 236.8 129.595 236.977 130.35 237.329C131.104 237.675 131.689 238.167 132.103 238.804C132.524 239.441 132.734 240.165 132.734 240.975H129.951C129.951 240.357 129.756 239.877 129.366 239.537C128.977 239.191 128.429 239.018 127.724 239.018C127.044 239.018 126.515 239.163 126.138 239.454C125.76 239.738 125.572 240.115 125.572 240.585C125.572 241.025 125.791 241.393 126.231 241.689C126.676 241.986 127.328 242.265 128.188 242.524C129.771 243.001 130.925 243.591 131.648 244.296C132.372 245.001 132.734 245.88 132.734 246.931C132.734 248.1 132.292 249.019 131.407 249.687C130.523 250.348 129.332 250.679 127.836 250.679C126.796 250.679 125.85 250.491 124.997 250.113C124.143 249.73 123.491 249.207 123.039 248.545C122.594 247.884 122.371 247.117 122.371 246.245H125.164C125.164 247.735 126.054 248.48 127.836 248.48C128.497 248.48 129.014 248.347 129.385 248.082C129.756 247.809 129.941 247.432 129.941 246.95ZM137.586 250.494H134.803V236.986H137.586V250.494ZM150.064 239.24H145.926V250.494H143.143V239.24H139.061V236.986H150.064V239.24ZM166.522 248.787C166.021 249.387 165.313 249.854 164.398 250.188C163.482 250.515 162.468 250.679 161.355 250.679C160.186 250.679 159.159 250.426 158.274 249.918C157.396 249.405 156.716 248.663 156.233 247.692C155.757 246.721 155.513 245.58 155.501 244.269V243.35C155.501 242.002 155.726 240.836 156.178 239.853C156.635 238.863 157.291 238.108 158.145 237.589C159.004 237.063 160.009 236.8 161.16 236.8C162.762 236.8 164.014 237.184 164.917 237.951C165.82 238.711 166.355 239.822 166.522 241.281H163.813C163.689 240.508 163.414 239.942 162.987 239.583C162.567 239.225 161.985 239.045 161.243 239.045C160.297 239.045 159.576 239.401 159.082 240.112C158.587 240.824 158.336 241.881 158.33 243.285V244.148C158.33 245.564 158.599 246.634 159.137 247.358C159.675 248.082 160.464 248.443 161.503 248.443C162.548 248.443 163.294 248.221 163.739 247.775V245.447H161.206V243.396H166.522V248.787ZM171.745 250.494H168.962V236.986H171.745V250.494ZM184.223 239.24H180.086V250.494H177.302V239.24H173.22V236.986H184.223V239.24ZM196.813 250.494H194.029V244.705H188.602V250.494H185.819V236.986H188.602V242.459H194.029V236.986H196.813V250.494ZM209.476 236.986V245.883C209.476 247.361 209.012 248.53 208.085 249.39C207.163 250.249 205.901 250.679 204.299 250.679C202.722 250.679 201.47 250.262 200.542 249.427C199.614 248.592 199.141 247.444 199.123 245.985V236.986H201.906V245.901C201.906 246.786 202.116 247.432 202.537 247.84C202.963 248.242 203.551 248.443 204.299 248.443C205.864 248.443 206.659 247.621 206.684 245.976V236.986H209.476ZM211.758 250.494V236.986H216.49C218.129 236.986 219.372 237.301 220.219 237.932C221.067 238.557 221.49 239.475 221.49 240.688C221.49 241.349 221.32 241.934 220.98 242.441C220.64 242.942 220.167 243.31 219.561 243.545C220.253 243.718 220.798 244.068 221.193 244.593C221.595 245.119 221.796 245.762 221.796 246.523C221.796 247.822 221.382 248.805 220.553 249.473C219.725 250.141 218.543 250.481 217.009 250.494H211.758ZM214.542 244.612V248.258H216.926C217.581 248.258 218.092 248.103 218.457 247.794C218.828 247.479 219.013 247.046 219.013 246.495C219.013 245.258 218.373 244.63 217.093 244.612H214.542ZM214.542 242.645H216.601C218.005 242.62 218.707 242.061 218.707 240.966C218.707 240.354 218.528 239.914 218.169 239.648C217.816 239.376 217.257 239.24 216.49 239.24H214.542V242.645Z" fill="#F2F4F3"/>
<defs>
<filter id="filter0_d" x="0" y="0" width="338" height="338" filterUnits="userSpaceOnUse" color-interpolation-filters="sRGB">
<feFlood flood-opacity="0" result="BackgroundImageFix"/>
<feColorMatrix in="SourceAlpha" type="matrix" values="0 0 0 0 0 0 0 0 0 0 0 0 0 0 0 0 0 0 127 0"/>
<feMorphology radius="5" operator="dilate" in="SourceAlpha" result="effect1_dropShadow"/>
<feOffset dy="4"/>
<feGaussianBlur stdDeviation="7"/>
<feColorMatrix type="matrix" values="0 0 0 0 0 0 0 0 0 0 0 0 0 0 0 0 0 0 0.25 0"/>
<feBlend mode="normal" in2="BackgroundImageFix" result="effect1_dropShadow"/>
<feBlend mode="normal" in="SourceGraphic" in2="effect1_dropShadow" result="shape"/>
</filter>
</defs>
</svg>
