<svg width="226" height="146" viewBox="0 0 226 146" fill="none" xmlns="http://www.w3.org/2000/svg">
<g filter="url(#filter0_d)">
<g clip-path="url(#clip0)">
<rect x="13" y="9" width="200" height="120" rx="10" fill="white"/>
<path d="M113 9H203C208.523 9 213 13.4772 213 19V119C213 124.523 208.523 129 203 129H113V9Z" fill="#DD5859"/>
<path d="M32.5645 38.4688H33.6953V44.5098C33.6953 45.3262 33.4492 45.9648 32.957 46.4258C32.4688 46.8867 31.8164 47.1172 31 47.1172C30.1523 47.1172 29.4922 46.9004 29.0195 46.4668C28.5469 46.0332 28.3105 45.4258 28.3105 44.6445H29.4355C29.4355 45.1328 29.5684 45.5137 29.834 45.7871C30.1035 46.0605 30.4922 46.1973 31 46.1973C31.4648 46.1973 31.8398 46.0508 32.125 45.7578C32.4141 45.4648 32.5605 45.0547 32.5645 44.5273V38.4688ZM40.5555 47C40.493 46.875 40.4422 46.6523 40.4031 46.332C39.8992 46.8555 39.2977 47.1172 38.5984 47.1172C37.9734 47.1172 37.4598 46.9414 37.0574 46.5898C36.659 46.2344 36.4598 45.7852 36.4598 45.2422C36.4598 44.582 36.7098 44.0703 37.2098 43.707C37.7137 43.3398 38.4207 43.1562 39.3309 43.1562H40.3855V42.6582C40.3855 42.2793 40.2723 41.9785 40.0457 41.7559C39.8191 41.5293 39.4852 41.416 39.0437 41.416C38.657 41.416 38.3328 41.5137 38.0711 41.709C37.8094 41.9043 37.6785 42.1406 37.6785 42.418H36.5887C36.5887 42.1016 36.7 41.7969 36.9227 41.5039C37.1492 41.207 37.4539 40.9727 37.8367 40.8008C38.2234 40.6289 38.6473 40.543 39.1082 40.543C39.8387 40.543 40.4109 40.7266 40.825 41.0938C41.2391 41.457 41.4539 41.959 41.4695 42.5996V45.5176C41.4695 46.0996 41.5437 46.5625 41.6922 46.9062V47H40.5555ZM38.7566 46.1738C39.0965 46.1738 39.4187 46.0859 39.7234 45.9102C40.0281 45.7344 40.2488 45.5059 40.3855 45.2246V43.9238H39.5359C38.2078 43.9238 37.5437 44.3125 37.5437 45.0898C37.5437 45.4297 37.657 45.6953 37.8836 45.8867C38.1102 46.0781 38.4012 46.1738 38.7566 46.1738ZM46.3668 45.5293L47.9371 40.6602H49.0445L46.7711 47H45.9449L43.648 40.6602H44.7555L46.3668 45.5293ZM55.1078 47C55.0453 46.875 54.9945 46.6523 54.9555 46.332C54.4516 46.8555 53.85 47.1172 53.1508 47.1172C52.5258 47.1172 52.0121 46.9414 51.6098 46.5898C51.2113 46.2344 51.0121 45.7852 51.0121 45.2422C51.0121 44.582 51.2621 44.0703 51.7621 43.707C52.266 43.3398 52.973 43.1562 53.8832 43.1562H54.9379V42.6582C54.9379 42.2793 54.8246 41.9785 54.598 41.7559C54.3715 41.5293 54.0375 41.416 53.5961 41.416C53.2094 41.416 52.8852 41.5137 52.6234 41.709C52.3617 41.9043 52.2309 42.1406 52.2309 42.418H51.141C51.141 42.1016 51.2523 41.7969 51.475 41.5039C51.7016 41.207 52.0063 40.9727 52.3891 40.8008C52.7758 40.6289 53.1996 40.543 53.6605 40.543C54.391 40.543 54.9633 40.7266 55.3773 41.0938C55.7914 41.457 56.0063 41.959 56.0219 42.5996V45.5176C56.0219 46.0996 56.0961 46.5625 56.2445 46.9062V47H55.1078ZM53.309 46.1738C53.6488 46.1738 53.9711 46.0859 54.2758 45.9102C54.5805 45.7344 54.8012 45.5059 54.9379 45.2246V43.9238H54.0883C52.7602 43.9238 52.0961 44.3125 52.0961 45.0898C52.0961 45.4297 52.2094 45.6953 52.4359 45.8867C52.6625 46.0781 52.9535 46.1738 53.309 46.1738ZM62.6125 45.3184C62.6125 45.0254 62.5012 44.7988 62.2785 44.6387C62.0598 44.4746 61.675 44.334 61.1242 44.2168C60.5773 44.0996 60.1418 43.959 59.8176 43.7949C59.4973 43.6309 59.259 43.4355 59.1027 43.209C58.9504 42.9824 58.8742 42.7129 58.8742 42.4004C58.8742 41.8809 59.093 41.4414 59.5305 41.082C59.9719 40.7227 60.5344 40.543 61.218 40.543C61.9367 40.543 62.5187 40.7285 62.9641 41.0996C63.4133 41.4707 63.6379 41.9453 63.6379 42.5234H62.548C62.548 42.2266 62.4211 41.9707 62.1672 41.7559C61.9172 41.541 61.6008 41.4336 61.218 41.4336C60.8234 41.4336 60.5148 41.5195 60.2922 41.6914C60.0695 41.8633 59.9582 42.0879 59.9582 42.3652C59.9582 42.627 60.0617 42.8242 60.2687 42.957C60.4758 43.0898 60.8488 43.2168 61.3879 43.3379C61.9309 43.459 62.3703 43.6035 62.7062 43.7715C63.0422 43.9395 63.2902 44.1426 63.4504 44.3809C63.6145 44.6152 63.6965 44.9023 63.6965 45.2422C63.6965 45.8086 63.4699 46.2637 63.0168 46.6074C62.5637 46.9473 61.9758 47.1172 61.2531 47.1172C60.7453 47.1172 60.2961 47.0273 59.9055 46.8477C59.5148 46.668 59.2082 46.418 58.9855 46.0977C58.7668 45.7734 58.6574 45.4238 58.6574 45.0488H59.7414C59.7609 45.4121 59.9055 45.7012 60.175 45.916C60.4484 46.127 60.8078 46.2324 61.2531 46.2324C61.6633 46.2324 61.9914 46.1504 62.2375 45.9863C62.4875 45.8184 62.6125 45.5957 62.6125 45.3184ZM68.8516 46.2324C69.2383 46.2324 69.5762 46.1152 69.8652 45.8809C70.1543 45.6465 70.3145 45.3535 70.3457 45.002H71.3711C71.3516 45.3652 71.2266 45.7109 70.9961 46.0391C70.7656 46.3672 70.457 46.6289 70.0703 46.8242C69.6875 47.0195 69.2812 47.1172 68.8516 47.1172C67.9883 47.1172 67.3008 46.8301 66.7891 46.2559C66.2812 45.6777 66.0273 44.8887 66.0273 43.8887V43.707C66.0273 43.0898 66.1406 42.541 66.3672 42.0605C66.5938 41.5801 66.918 41.207 67.3398 40.9414C67.7656 40.6758 68.2676 40.543 68.8457 40.543C69.5566 40.543 70.1465 40.7559 70.6152 41.1816C71.0879 41.6074 71.3398 42.1602 71.3711 42.8398H70.3457C70.3145 42.4297 70.1582 42.0938 69.877 41.832C69.5996 41.5664 69.2559 41.4336 68.8457 41.4336C68.2949 41.4336 67.8672 41.6328 67.5625 42.0312C67.2617 42.4258 67.1113 42.998 67.1113 43.748V43.9531C67.1113 44.6836 67.2617 45.2461 67.5625 45.6406C67.8633 46.0352 68.293 46.2324 68.8516 46.2324ZM76.8543 41.6328C76.6902 41.6055 76.5125 41.5918 76.3211 41.5918C75.6102 41.5918 75.1277 41.8945 74.8738 42.5V47H73.7898V40.6602H74.8445L74.8621 41.3926C75.2176 40.8262 75.7215 40.543 76.3738 40.543C76.5848 40.543 76.7449 40.5703 76.8543 40.625V41.6328ZM80.234 47H79.15V40.6602H80.234V47ZM79.0621 38.9785C79.0621 38.8027 79.1148 38.6543 79.2203 38.5332C79.3297 38.4121 79.4898 38.3516 79.7008 38.3516C79.9117 38.3516 80.0719 38.4121 80.1813 38.5332C80.2906 38.6543 80.3453 38.8027 80.3453 38.9785C80.3453 39.1543 80.2906 39.3008 80.1813 39.418C80.0719 39.5352 79.9117 39.5938 79.7008 39.5938C79.4898 39.5938 79.3297 39.5352 79.2203 39.418C79.1148 39.3008 79.0621 39.1543 79.0621 38.9785ZM88.5297 43.9004C88.5297 44.8652 88.309 45.6426 87.8676 46.2324C87.4262 46.8223 86.8285 47.1172 86.0746 47.1172C85.3051 47.1172 84.6996 46.873 84.2582 46.3848V49.4375H83.1742V40.6602H84.1645L84.2172 41.3633C84.6586 40.8164 85.2719 40.543 86.057 40.543C86.8187 40.543 87.4203 40.8301 87.8617 41.4043C88.307 41.9785 88.5297 42.7773 88.5297 43.8008V43.9004ZM87.4457 43.7773C87.4457 43.0625 87.2934 42.498 86.9887 42.084C86.684 41.6699 86.266 41.4629 85.7348 41.4629C85.0785 41.4629 84.5863 41.7539 84.2582 42.3359V45.3652C84.5824 45.9434 85.0785 46.2324 85.7465 46.2324C86.266 46.2324 86.6781 46.0273 86.9828 45.6172C87.2914 45.2031 87.4457 44.5898 87.4457 43.7773ZM92.5832 39.125V40.6602H93.7668V41.498H92.5832V45.4297C92.5832 45.6836 92.6359 45.875 92.7414 46.0039C92.8469 46.1289 93.0266 46.1914 93.2805 46.1914C93.4055 46.1914 93.5773 46.168 93.7961 46.1211V47C93.5109 47.0781 93.2336 47.1172 92.9641 47.1172C92.4797 47.1172 92.1145 46.9707 91.8684 46.6777C91.6223 46.3848 91.4992 45.9688 91.4992 45.4297V41.498H90.3449V40.6602H91.4992V39.125H92.5832ZM31.3633 60.2324C31.75 60.2324 32.0879 60.1152 32.377 59.8809C32.666 59.6465 32.8262 59.3535 32.8574 59.002H33.8828C33.8633 59.3652 33.7383 59.7109 33.5078 60.0391C33.2773 60.3672 32.9688 60.6289 32.582 60.8242C32.1992 61.0195 31.793 61.1172 31.3633 61.1172C30.5 61.1172 29.8125 60.8301 29.3008 60.2559C28.793 59.6777 28.5391 58.8887 28.5391 57.8887V57.707C28.5391 57.0898 28.6523 56.541 28.8789 56.0605C29.1055 55.5801 29.4297 55.207 29.8516 54.9414C30.2773 54.6758 30.7793 54.543 31.3574 54.543C32.0684 54.543 32.6582 54.7559 33.127 55.1816C33.5996 55.6074 33.8516 56.1602 33.8828 56.8398H32.8574C32.8262 56.4297 32.6699 56.0938 32.3887 55.832C32.1113 55.5664 31.7676 55.4336 31.3574 55.4336C30.8066 55.4336 30.3789 55.6328 30.0742 56.0312C29.7734 56.4258 29.623 56.998 29.623 57.748V57.9531C29.623 58.6836 29.7734 59.2461 30.0742 59.6406C30.375 60.0352 30.8047 60.2324 31.3633 60.2324ZM36.0145 57.7715C36.0145 57.1504 36.1355 56.5918 36.3777 56.0957C36.6238 55.5996 36.9637 55.2168 37.3973 54.9473C37.8348 54.6777 38.3328 54.543 38.8914 54.543C39.7547 54.543 40.452 54.8418 40.9832 55.4395C41.5184 56.0371 41.7859 56.832 41.7859 57.8242V57.9004C41.7859 58.5176 41.6668 59.0723 41.4285 59.5645C41.1941 60.0527 40.8562 60.4336 40.4148 60.707C39.9773 60.9805 39.4734 61.1172 38.9031 61.1172C38.0437 61.1172 37.3465 60.8184 36.8113 60.2207C36.2801 59.623 36.0145 58.832 36.0145 57.8477V57.7715ZM37.1043 57.9004C37.1043 58.6035 37.2664 59.168 37.5906 59.5938C37.9187 60.0195 38.3562 60.2324 38.9031 60.2324C39.4539 60.2324 39.8914 60.0176 40.2156 59.5879C40.5398 59.1543 40.702 58.5488 40.702 57.7715C40.702 57.0762 40.5359 56.5137 40.2039 56.084C39.8758 55.6504 39.4383 55.4336 38.8914 55.4336C38.3562 55.4336 37.9246 55.6465 37.5965 56.0723C37.2684 56.498 37.1043 57.1074 37.1043 57.9004ZM44.0816 57.7773C44.0816 56.8047 44.3121 56.0234 44.773 55.4336C45.234 54.8398 45.8375 54.543 46.5836 54.543C47.3258 54.543 47.9137 54.7969 48.3473 55.3047V52H49.4312V61H48.4352L48.3824 60.3203C47.9488 60.8516 47.3453 61.1172 46.5719 61.1172C45.8375 61.1172 45.2379 60.8164 44.773 60.2148C44.3121 59.6133 44.0816 58.8281 44.0816 57.8594V57.7773ZM45.1656 57.9004C45.1656 58.6191 45.3141 59.1816 45.6109 59.5879C45.9078 59.9941 46.318 60.1973 46.8414 60.1973C47.5289 60.1973 48.0309 59.8887 48.3473 59.2715V56.3594C48.023 55.7617 47.525 55.4629 46.8531 55.4629C46.3219 55.4629 45.9078 55.668 45.6109 56.0781C45.3141 56.4883 45.1656 57.0957 45.1656 57.9004ZM54.9496 61.1172C54.0902 61.1172 53.391 60.8359 52.852 60.2734C52.3129 59.707 52.0434 58.9512 52.0434 58.0059V57.8066C52.0434 57.1777 52.1625 56.6172 52.4008 56.125C52.643 55.6289 52.9789 55.2422 53.4086 54.9648C53.8422 54.6836 54.3109 54.543 54.8148 54.543C55.6391 54.543 56.2797 54.8145 56.7367 55.3574C57.1938 55.9004 57.4223 56.6777 57.4223 57.6895V58.1406H53.1273C53.143 58.7656 53.3246 59.2715 53.6723 59.6582C54.0238 60.041 54.4691 60.2324 55.0082 60.2324C55.391 60.2324 55.7152 60.1543 55.9809 59.998C56.2465 59.8418 56.4789 59.6348 56.6781 59.377L57.3402 59.8926C56.809 60.709 56.0121 61.1172 54.9496 61.1172ZM54.8148 55.4336C54.3773 55.4336 54.0102 55.5938 53.7133 55.9141C53.4164 56.2305 53.2328 56.6758 53.1625 57.25H56.3383V57.168C56.307 56.6172 56.1586 56.1914 55.893 55.8906C55.6273 55.5859 55.268 55.4336 54.8148 55.4336ZM64.5918 61V55.498H63.5898V54.6602H64.5918V54.0098C64.5918 53.3301 64.7734 52.8047 65.1367 52.4336C65.5 52.0625 66.0137 51.877 66.6777 51.877C66.9277 51.877 67.1758 51.9102 67.4219 51.9766L67.3633 52.8555C67.1797 52.8203 66.9844 52.8027 66.7773 52.8027C66.4258 52.8027 66.1543 52.9062 65.9629 53.1133C65.7715 53.3164 65.6758 53.6094 65.6758 53.9922V54.6602H67.0293V55.498H65.6758V61H64.5918ZM69.1434 57.7715C69.1434 57.1504 69.2645 56.5918 69.5066 56.0957C69.7527 55.5996 70.0926 55.2168 70.5262 54.9473C70.9637 54.6777 71.4617 54.543 72.0203 54.543C72.8836 54.543 73.5809 54.8418 74.1121 55.4395C74.6473 56.0371 74.9148 56.832 74.9148 57.8242V57.9004C74.9148 58.5176 74.7957 59.0723 74.5574 59.5645C74.323 60.0527 73.9852 60.4336 73.5438 60.707C73.1063 60.9805 72.6023 61.1172 72.032 61.1172C71.1727 61.1172 70.4754 60.8184 69.9402 60.2207C69.409 59.623 69.1434 58.832 69.1434 57.8477V57.7715ZM70.2332 57.9004C70.2332 58.6035 70.3953 59.168 70.7195 59.5938C71.0477 60.0195 71.4852 60.2324 72.032 60.2324C72.5828 60.2324 73.0203 60.0176 73.3445 59.5879C73.6688 59.1543 73.8309 58.5488 73.8309 57.7715C73.8309 57.0762 73.6648 56.5137 73.3328 56.084C73.0047 55.6504 72.5672 55.4336 72.0203 55.4336C71.4852 55.4336 71.0535 55.6465 70.7254 56.0723C70.3973 56.498 70.2332 57.1074 70.2332 57.9004ZM80.5387 55.6328C80.3746 55.6055 80.1969 55.5918 80.0055 55.5918C79.2945 55.5918 78.8121 55.8945 78.5582 56.5V61H77.4742V54.6602H78.5289L78.5465 55.3926C78.902 54.8262 79.4059 54.543 80.0582 54.543C80.2691 54.543 80.4293 54.5703 80.5387 54.625V55.6328ZM32.5117 73.3184C32.5117 73.0254 32.4004 72.7988 32.1777 72.6387C31.959 72.4746 31.5742 72.334 31.0234 72.2168C30.4766 72.0996 30.041 71.959 29.7168 71.7949C29.3965 71.6309 29.1582 71.4355 29.002 71.209C28.8496 70.9824 28.7734 70.7129 28.7734 70.4004C28.7734 69.8809 28.9922 69.4414 29.4297 69.082C29.8711 68.7227 30.4336 68.543 31.1172 68.543C31.8359 68.543 32.418 68.7285 32.8633 69.0996C33.3125 69.4707 33.5371 69.9453 33.5371 70.5234H32.4473C32.4473 70.2266 32.3203 69.9707 32.0664 69.7559C31.8164 69.541 31.5 69.4336 31.1172 69.4336C30.7227 69.4336 30.4141 69.5195 30.1914 69.6914C29.9688 69.8633 29.8574 70.0879 29.8574 70.3652C29.8574 70.627 29.9609 70.8242 30.168 70.957C30.375 71.0898 30.748 71.2168 31.2871 71.3379C31.8301 71.459 32.2695 71.6035 32.6055 71.7715C32.9414 71.9395 33.1895 72.1426 33.3496 72.3809C33.5137 72.6152 33.5957 72.9023 33.5957 73.2422C33.5957 73.8086 33.3691 74.2637 32.916 74.6074C32.4629 74.9473 31.875 75.1172 31.1523 75.1172C30.6445 75.1172 30.1953 75.0273 29.8047 74.8477C29.4141 74.668 29.1074 74.418 28.8848 74.0977C28.666 73.7734 28.5566 73.4238 28.5566 73.0488H29.6406C29.6602 73.4121 29.8047 73.7012 30.0742 73.916C30.3477 74.127 30.707 74.2324 31.1523 74.2324C31.5625 74.2324 31.8906 74.1504 32.1367 73.9863C32.3867 73.8184 32.5117 73.5957 32.5117 73.3184ZM37.2273 68.6602L37.2566 69.3633C37.7215 68.8164 38.3484 68.543 39.1375 68.543C40.0242 68.543 40.6277 68.8828 40.948 69.5625C41.159 69.2578 41.4324 69.0117 41.7684 68.8242C42.1082 68.6367 42.5086 68.543 42.9695 68.543C44.3602 68.543 45.0672 69.2793 45.0906 70.752V75H44.0066V70.8164C44.0066 70.3633 43.9031 70.0254 43.6961 69.8027C43.4891 69.5762 43.1414 69.4629 42.6531 69.4629C42.2508 69.4629 41.9168 69.584 41.6512 69.8262C41.3855 70.0645 41.2312 70.3867 41.1883 70.793V75H40.0984V70.8457C40.0984 69.9238 39.6473 69.4629 38.7449 69.4629C38.034 69.4629 37.5477 69.7656 37.2859 70.3711V75H36.202V68.6602H37.2273ZM47.6441 71.7715C47.6441 71.1504 47.7652 70.5918 48.0074 70.0957C48.2535 69.5996 48.5934 69.2168 49.027 68.9473C49.4645 68.6777 49.9625 68.543 50.5211 68.543C51.3844 68.543 52.0816 68.8418 52.6129 69.4395C53.148 70.0371 53.4156 70.832 53.4156 71.8242V71.9004C53.4156 72.5176 53.2965 73.0723 53.0582 73.5645C52.8238 74.0527 52.4859 74.4336 52.0445 74.707C51.607 74.9805 51.1031 75.1172 50.5328 75.1172C49.6734 75.1172 48.9762 74.8184 48.441 74.2207C47.9098 73.623 47.6441 72.832 47.6441 71.8477V71.7715ZM48.734 71.9004C48.734 72.6035 48.8961 73.168 49.2203 73.5938C49.5484 74.0195 49.9859 74.2324 50.5328 74.2324C51.0836 74.2324 51.5211 74.0176 51.8453 73.5879C52.1695 73.1543 52.3316 72.5488 52.3316 71.7715C52.3316 71.0762 52.1656 70.5137 51.8336 70.084C51.5055 69.6504 51.068 69.4336 50.5211 69.4336C49.9859 69.4336 49.5543 69.6465 49.2262 70.0723C48.898 70.498 48.734 71.1074 48.734 71.9004ZM55.6879 71.7715C55.6879 71.1504 55.809 70.5918 56.0512 70.0957C56.2973 69.5996 56.6371 69.2168 57.0707 68.9473C57.5082 68.6777 58.0063 68.543 58.5648 68.543C59.4281 68.543 60.1254 68.8418 60.6566 69.4395C61.1918 70.0371 61.4594 70.832 61.4594 71.8242V71.9004C61.4594 72.5176 61.3402 73.0723 61.102 73.5645C60.8676 74.0527 60.5297 74.4336 60.0883 74.707C59.6508 74.9805 59.1469 75.1172 58.5766 75.1172C57.7172 75.1172 57.0199 74.8184 56.4848 74.2207C55.9535 73.623 55.6879 72.832 55.6879 71.8477V71.7715ZM56.7777 71.9004C56.7777 72.6035 56.9398 73.168 57.2641 73.5938C57.5922 74.0195 58.0297 74.2324 58.5766 74.2324C59.1273 74.2324 59.5648 74.0176 59.8891 73.5879C60.2133 73.1543 60.3754 72.5488 60.3754 71.7715C60.3754 71.0762 60.2094 70.5137 59.8773 70.084C59.5492 69.6504 59.1117 69.4336 58.5648 69.4336C58.0297 69.4336 57.598 69.6465 57.2699 70.0723C56.9418 70.498 56.7777 71.1074 56.7777 71.9004ZM65.4895 67.125V68.6602H66.673V69.498H65.4895V73.4297C65.4895 73.6836 65.5422 73.875 65.6477 74.0039C65.7531 74.1289 65.9328 74.1914 66.1867 74.1914C66.3117 74.1914 66.4836 74.168 66.7023 74.1211V75C66.4172 75.0781 66.1398 75.1172 65.8703 75.1172C65.3859 75.1172 65.0207 74.9707 64.7746 74.6777C64.5285 74.3848 64.4055 73.9688 64.4055 73.4297V69.498H63.2512V68.6602H64.4055V67.125H65.4895ZM70.2285 69.4277C70.709 68.8379 71.334 68.543 72.1035 68.543C73.4434 68.543 74.1191 69.2988 74.1309 70.8105V75H73.0469V70.8047C73.043 70.3477 72.9375 70.0098 72.7305 69.791C72.5273 69.5723 72.209 69.4629 71.7754 69.4629C71.4238 69.4629 71.1152 69.5566 70.8496 69.7441C70.584 69.9316 70.377 70.1777 70.2285 70.4824V75H69.1445V66H70.2285V69.4277ZM30.291 81.125V82.6602H31.4746V83.498H30.291V87.4297C30.291 87.6836 30.3438 87.875 30.4492 88.0039C30.5547 88.1289 30.7344 88.1914 30.9883 88.1914C31.1133 88.1914 31.2852 88.168 31.5039 88.1211V89C31.2188 89.0781 30.9414 89.1172 30.6719 89.1172C30.1875 89.1172 29.8223 88.9707 29.5762 88.6777C29.3301 88.3848 29.207 87.9688 29.207 87.4297V83.498H28.0527V82.6602H29.207V81.125H30.291ZM37.0105 83.6328C36.8465 83.6055 36.6687 83.5918 36.4773 83.5918C35.7664 83.5918 35.284 83.8945 35.0301 84.5V89H33.9461V82.6602H35.0008L35.0184 83.3926C35.3738 82.8262 35.8777 82.543 36.5301 82.543C36.741 82.543 36.9012 82.5703 37.0105 82.625V83.6328ZM42.8922 89C42.8297 88.875 42.7789 88.6523 42.7398 88.332C42.2359 88.8555 41.6344 89.1172 40.9352 89.1172C40.3102 89.1172 39.7965 88.9414 39.3941 88.5898C38.9957 88.2344 38.7965 87.7852 38.7965 87.2422C38.7965 86.582 39.0465 86.0703 39.5465 85.707C40.0504 85.3398 40.7574 85.1562 41.6676 85.1562H42.7223V84.6582C42.7223 84.2793 42.609 83.9785 42.3824 83.7559C42.1559 83.5293 41.8219 83.416 41.3805 83.416C40.9937 83.416 40.6695 83.5137 40.4078 83.709C40.1461 83.9043 40.0152 84.1406 40.0152 84.418H38.9254C38.9254 84.1016 39.0367 83.7969 39.2594 83.5039C39.4859 83.207 39.7906 82.9727 40.1734 82.8008C40.5602 82.6289 40.984 82.543 41.4449 82.543C42.1754 82.543 42.7477 82.7266 43.1617 83.0938C43.5758 83.457 43.7906 83.959 43.8062 84.5996V87.5176C43.8062 88.0996 43.8805 88.5625 44.0289 88.9062V89H42.8922ZM41.0934 88.1738C41.4332 88.1738 41.7555 88.0859 42.0602 87.9102C42.3648 87.7344 42.5855 87.5059 42.7223 87.2246V85.9238H41.8727C40.5445 85.9238 39.8805 86.3125 39.8805 87.0898C39.8805 87.4297 39.9937 87.6953 40.2203 87.8867C40.4469 88.0781 40.7379 88.1738 41.0934 88.1738ZM47.7309 82.6602L47.766 83.457C48.2504 82.8477 48.8832 82.543 49.6645 82.543C51.0043 82.543 51.6801 83.2988 51.6918 84.8105V89H50.6078V84.8047C50.6039 84.3477 50.4984 84.0098 50.2914 83.791C50.0883 83.5723 49.7699 83.4629 49.3363 83.4629C48.9848 83.4629 48.6762 83.5566 48.4105 83.7441C48.1449 83.9316 47.9379 84.1777 47.7895 84.4824V89H46.7055V82.6602H47.7309ZM58.218 87.3184C58.218 87.0254 58.1066 86.7988 57.884 86.6387C57.6652 86.4746 57.2805 86.334 56.7297 86.2168C56.1828 86.0996 55.7473 85.959 55.423 85.7949C55.1027 85.6309 54.8645 85.4355 54.7082 85.209C54.5559 84.9824 54.4797 84.7129 54.4797 84.4004C54.4797 83.8809 54.6984 83.4414 55.1359 83.082C55.5773 82.7227 56.1398 82.543 56.8234 82.543C57.5422 82.543 58.1242 82.7285 58.5695 83.0996C59.0187 83.4707 59.2434 83.9453 59.2434 84.5234H58.1535C58.1535 84.2266 58.0266 83.9707 57.7727 83.7559C57.5227 83.541 57.2062 83.4336 56.8234 83.4336C56.4289 83.4336 56.1203 83.5195 55.8977 83.6914C55.675 83.8633 55.5637 84.0879 55.5637 84.3652C55.5637 84.627 55.6672 84.8242 55.8742 84.957C56.0812 85.0898 56.4543 85.2168 56.9934 85.3379C57.5363 85.459 57.9758 85.6035 58.3117 85.7715C58.6477 85.9395 58.8957 86.1426 59.0559 86.3809C59.2199 86.6152 59.302 86.9023 59.302 87.2422C59.302 87.8086 59.0754 88.2637 58.6223 88.6074C58.1691 88.9473 57.5812 89.1172 56.8586 89.1172C56.3508 89.1172 55.9016 89.0273 55.5109 88.8477C55.1203 88.668 54.8137 88.418 54.591 88.0977C54.3723 87.7734 54.2629 87.4238 54.2629 87.0488H55.3469C55.3664 87.4121 55.5109 87.7012 55.7805 87.916C56.0539 88.127 56.4133 88.2324 56.8586 88.2324C57.2687 88.2324 57.5969 88.1504 57.843 87.9863C58.093 87.8184 58.218 87.5957 58.218 87.3184ZM63.0918 89H62.0078V82.6602H63.0918V89ZM61.9199 80.9785C61.9199 80.8027 61.9727 80.6543 62.0781 80.5332C62.1875 80.4121 62.3477 80.3516 62.5586 80.3516C62.7695 80.3516 62.9297 80.4121 63.0391 80.5332C63.1484 80.6543 63.2031 80.8027 63.2031 80.9785C63.2031 81.1543 63.1484 81.3008 63.0391 81.418C62.9297 81.5352 62.7695 81.5938 62.5586 81.5938C62.3477 81.5938 62.1875 81.5352 62.0781 81.418C61.9727 81.3008 61.9199 81.1543 61.9199 80.9785ZM67.5027 81.125V82.6602H68.6863V83.498H67.5027V87.4297C67.5027 87.6836 67.5555 87.875 67.6609 88.0039C67.7664 88.1289 67.9461 88.1914 68.2 88.1914C68.325 88.1914 68.4969 88.168 68.7156 88.1211V89C68.4305 89.0781 68.1531 89.1172 67.8836 89.1172C67.3992 89.1172 67.034 88.9707 66.7879 88.6777C66.5418 88.3848 66.4188 87.9688 66.4188 87.4297V83.498H65.2645V82.6602H66.4188V81.125H67.5027ZM72.3355 89H71.2516V82.6602H72.3355V89ZM71.1637 80.9785C71.1637 80.8027 71.2164 80.6543 71.3219 80.5332C71.4313 80.4121 71.5914 80.3516 71.8023 80.3516C72.0133 80.3516 72.1734 80.4121 72.2828 80.5332C72.3922 80.6543 72.4469 80.8027 72.4469 80.9785C72.4469 81.1543 72.3922 81.3008 72.2828 81.418C72.1734 81.5352 72.0133 81.5938 71.8023 81.5938C71.5914 81.5938 71.4313 81.5352 71.3219 81.418C71.2164 81.3008 71.1637 81.1543 71.1637 80.9785ZM74.9887 85.7715C74.9887 85.1504 75.1098 84.5918 75.352 84.0957C75.598 83.5996 75.9379 83.2168 76.3715 82.9473C76.809 82.6777 77.307 82.543 77.8656 82.543C78.7289 82.543 79.4262 82.8418 79.9574 83.4395C80.4926 84.0371 80.7602 84.832 80.7602 85.8242V85.9004C80.7602 86.5176 80.641 87.0723 80.4027 87.5645C80.1684 88.0527 79.8305 88.4336 79.3891 88.707C78.9516 88.9805 78.4477 89.1172 77.8773 89.1172C77.018 89.1172 76.3207 88.8184 75.7855 88.2207C75.2543 87.623 74.9887 86.832 74.9887 85.8477V85.7715ZM76.0785 85.9004C76.0785 86.6035 76.2406 87.168 76.5648 87.5938C76.893 88.0195 77.3305 88.2324 77.8773 88.2324C78.4281 88.2324 78.8656 88.0176 79.1898 87.5879C79.5141 87.1543 79.6762 86.5488 79.6762 85.7715C79.6762 85.0762 79.5102 84.5137 79.1781 84.084C78.85 83.6504 78.4125 83.4336 77.8656 83.4336C77.3305 83.4336 76.8988 83.6465 76.5707 84.0723C76.2426 84.498 76.0785 85.1074 76.0785 85.9004ZM84.3449 82.6602L84.3801 83.457C84.8645 82.8477 85.4973 82.543 86.2785 82.543C87.6184 82.543 88.2941 83.2988 88.3059 84.8105V89H87.2219V84.8047C87.218 84.3477 87.1125 84.0098 86.9055 83.791C86.7023 83.5723 86.384 83.4629 85.9504 83.4629C85.5988 83.4629 85.2902 83.5566 85.0246 83.7441C84.759 83.9316 84.552 84.1777 84.4035 84.4824V89H83.3195V82.6602H84.3449ZM94.832 87.3184C94.832 87.0254 94.7207 86.7988 94.498 86.6387C94.2793 86.4746 93.8945 86.334 93.3438 86.2168C92.7969 86.0996 92.3613 85.959 92.0371 85.7949C91.7168 85.6309 91.4785 85.4355 91.3223 85.209C91.1699 84.9824 91.0938 84.7129 91.0938 84.4004C91.0938 83.8809 91.3125 83.4414 91.75 83.082C92.1914 82.7227 92.7539 82.543 93.4375 82.543C94.1562 82.543 94.7383 82.7285 95.1836 83.0996C95.6328 83.4707 95.8574 83.9453 95.8574 84.5234H94.7676C94.7676 84.2266 94.6406 83.9707 94.3867 83.7559C94.1367 83.541 93.8203 83.4336 93.4375 83.4336C93.043 83.4336 92.7344 83.5195 92.5117 83.6914C92.2891 83.8633 92.1777 84.0879 92.1777 84.3652C92.1777 84.627 92.2812 84.8242 92.4883 84.957C92.6953 85.0898 93.0684 85.2168 93.6074 85.3379C94.1504 85.459 94.5898 85.6035 94.9258 85.7715C95.2617 85.9395 95.5098 86.1426 95.6699 86.3809C95.834 86.6152 95.916 86.9023 95.916 87.2422C95.916 87.8086 95.6895 88.2637 95.2363 88.6074C94.7832 88.9473 94.1953 89.1172 93.4727 89.1172C92.9648 89.1172 92.5156 89.0273 92.125 88.8477C91.7344 88.668 91.4277 88.418 91.2051 88.0977C90.9863 87.7734 90.877 87.4238 90.877 87.0488H91.9609C91.9805 87.4121 92.125 87.7012 92.3945 87.916C92.668 88.127 93.0273 88.2324 93.4727 88.2324C93.8828 88.2324 94.2109 88.1504 94.457 87.9863C94.707 87.8184 94.832 87.5957 94.832 87.3184ZM29.998 103H28.9141V96.6602H29.998V103ZM28.8262 94.9785C28.8262 94.8027 28.8789 94.6543 28.9844 94.5332C29.0938 94.4121 29.2539 94.3516 29.4648 94.3516C29.6758 94.3516 29.8359 94.4121 29.9453 94.5332C30.0547 94.6543 30.1094 94.8027 30.1094 94.9785C30.1094 95.1543 30.0547 95.3008 29.9453 95.418C29.8359 95.5352 29.6758 95.5938 29.4648 95.5938C29.2539 95.5938 29.0938 95.5352 28.9844 95.418C28.8789 95.3008 28.8262 95.1543 28.8262 94.9785ZM33.9637 96.6602L33.9988 97.457C34.4832 96.8477 35.116 96.543 35.8973 96.543C37.2371 96.543 37.9129 97.2988 37.9246 98.8105V103H36.8406V98.8047C36.8367 98.3477 36.7312 98.0098 36.5242 97.791C36.3211 97.5723 36.0027 97.4629 35.5691 97.4629C35.2176 97.4629 34.909 97.5566 34.6434 97.7441C34.3777 97.9316 34.1707 98.1777 34.0223 98.4824V103H32.9383V96.6602H33.9637ZM50.5492 101.506L51.768 96.6602H52.852L51.0063 103H50.1273L48.5863 98.1953L47.0863 103H46.2074L44.3676 96.6602H45.4457L46.6938 101.406L48.1703 96.6602H49.0434L50.5492 101.506ZM57.7902 103.117C56.9309 103.117 56.2316 102.836 55.6926 102.273C55.1535 101.707 54.884 100.951 54.884 100.006V99.8066C54.884 99.1777 55.0031 98.6172 55.2414 98.125C55.4836 97.6289 55.8195 97.2422 56.2492 96.9648C56.6828 96.6836 57.1516 96.543 57.6555 96.543C58.4797 96.543 59.1203 96.8145 59.5773 97.3574C60.0344 97.9004 60.2629 98.6777 60.2629 99.6895V100.141H55.968C55.9836 100.766 56.1652 101.271 56.5129 101.658C56.8645 102.041 57.3098 102.232 57.8488 102.232C58.2316 102.232 58.5559 102.154 58.8215 101.998C59.0871 101.842 59.3195 101.635 59.5187 101.377L60.1809 101.893C59.6496 102.709 58.8527 103.117 57.7902 103.117ZM57.6555 97.4336C57.218 97.4336 56.8508 97.5938 56.5539 97.9141C56.257 98.2305 56.0734 98.6758 56.0031 99.25H59.1789V99.168C59.1477 98.6172 58.9992 98.1914 58.7336 97.8906C58.468 97.5859 58.1086 97.4336 57.6555 97.4336ZM68.0898 99.9004C68.0898 100.869 67.8672 101.648 67.4219 102.238C66.9766 102.824 66.3789 103.117 65.6289 103.117C64.8281 103.117 64.209 102.834 63.7715 102.268L63.7188 103H62.7227V94H63.8066V97.3574C64.2441 96.8145 64.8477 96.543 65.6172 96.543C66.3867 96.543 66.9902 96.834 67.4277 97.416C67.8691 97.998 68.0898 98.7949 68.0898 99.8066V99.9004ZM67.0059 99.7773C67.0059 99.0391 66.8633 98.4688 66.5781 98.0664C66.293 97.6641 65.8828 97.4629 65.3477 97.4629C64.6328 97.4629 64.1191 97.7949 63.8066 98.459V101.201C64.1387 101.865 64.6562 102.197 65.3594 102.197C65.8789 102.197 66.2832 101.996 66.5723 101.594C66.8613 101.191 67.0059 100.586 67.0059 99.7773ZM74.3523 101.318C74.3523 101.025 74.241 100.799 74.0184 100.639C73.7996 100.475 73.4148 100.334 72.8641 100.217C72.3172 100.1 71.8816 99.959 71.5574 99.7949C71.2371 99.6309 70.9988 99.4355 70.8426 99.209C70.6902 98.9824 70.6141 98.7129 70.6141 98.4004C70.6141 97.8809 70.8328 97.4414 71.2703 97.082C71.7117 96.7227 72.2742 96.543 72.9578 96.543C73.6766 96.543 74.2586 96.7285 74.7039 97.0996C75.1531 97.4707 75.3777 97.9453 75.3777 98.5234H74.2879C74.2879 98.2266 74.1609 97.9707 73.907 97.7559C73.657 97.541 73.3406 97.4336 72.9578 97.4336C72.5633 97.4336 72.2547 97.5195 72.032 97.6914C71.8094 97.8633 71.698 98.0879 71.698 98.3652C71.698 98.627 71.8016 98.8242 72.0086 98.957C72.2156 99.0898 72.5887 99.2168 73.1277 99.3379C73.6707 99.459 74.1102 99.6035 74.4461 99.7715C74.782 99.9395 75.0301 100.143 75.1902 100.381C75.3543 100.615 75.4363 100.902 75.4363 101.242C75.4363 101.809 75.2098 102.264 74.7566 102.607C74.3035 102.947 73.7156 103.117 72.993 103.117C72.4852 103.117 72.0359 103.027 71.6453 102.848C71.2547 102.668 70.948 102.418 70.7254 102.098C70.5066 101.773 70.3973 101.424 70.3973 101.049H71.4813C71.5008 101.412 71.6453 101.701 71.9148 101.916C72.1883 102.127 72.5477 102.232 72.993 102.232C73.4031 102.232 73.7313 102.15 73.9773 101.986C74.2273 101.818 74.3523 101.596 74.3523 101.318ZM79.2262 103H78.1422V96.6602H79.2262V103ZM78.0543 94.9785C78.0543 94.8027 78.107 94.6543 78.2125 94.5332C78.3219 94.4121 78.482 94.3516 78.693 94.3516C78.9039 94.3516 79.0641 94.4121 79.1734 94.5332C79.2828 94.6543 79.3375 94.8027 79.3375 94.9785C79.3375 95.1543 79.2828 95.3008 79.1734 95.418C79.0641 95.5352 78.9039 95.5938 78.693 95.5938C78.482 95.5938 78.3219 95.5352 78.2125 95.418C78.107 95.3008 78.0543 95.1543 78.0543 94.9785ZM83.6371 95.125V96.6602H84.8207V97.498H83.6371V101.43C83.6371 101.684 83.6898 101.875 83.7953 102.004C83.9008 102.129 84.0805 102.191 84.3344 102.191C84.4594 102.191 84.6312 102.168 84.85 102.121V103C84.5648 103.078 84.2875 103.117 84.018 103.117C83.5336 103.117 83.1684 102.971 82.9223 102.678C82.6762 102.385 82.5531 101.969 82.5531 101.43V97.498H81.3988V96.6602H82.5531V95.125H83.6371ZM89.923 103.117C89.0637 103.117 88.3645 102.836 87.8254 102.273C87.2863 101.707 87.0168 100.951 87.0168 100.006V99.8066C87.0168 99.1777 87.1359 98.6172 87.3742 98.125C87.6164 97.6289 87.9523 97.2422 88.382 96.9648C88.8156 96.6836 89.2844 96.543 89.7883 96.543C90.6125 96.543 91.2531 96.8145 91.7102 97.3574C92.1672 97.9004 92.3957 98.6777 92.3957 99.6895V100.141H88.1008C88.1164 100.766 88.298 101.271 88.6457 101.658C88.9973 102.041 89.4426 102.232 89.9816 102.232C90.3645 102.232 90.6887 102.154 90.9543 101.998C91.2199 101.842 91.4523 101.635 91.6516 101.377L92.3137 101.893C91.7824 102.709 90.9855 103.117 89.923 103.117ZM89.7883 97.4336C89.3508 97.4336 88.9836 97.5938 88.6867 97.9141C88.3898 98.2305 88.2062 98.6758 88.1359 99.25H91.3117V99.168C91.2805 98.6172 91.132 98.1914 90.8664 97.8906C90.6008 97.5859 90.2414 97.4336 89.7883 97.4336ZM98.5469 101.318C98.5469 101.025 98.4355 100.799 98.2129 100.639C97.9941 100.475 97.6094 100.334 97.0586 100.217C96.5117 100.1 96.0762 99.959 95.752 99.7949C95.4316 99.6309 95.1934 99.4355 95.0371 99.209C94.8848 98.9824 94.8086 98.7129 94.8086 98.4004C94.8086 97.8809 95.0273 97.4414 95.4648 97.082C95.9062 96.7227 96.4688 96.543 97.1523 96.543C97.8711 96.543 98.4531 96.7285 98.8984 97.0996C99.3477 97.4707 99.5723 97.9453 99.5723 98.5234H98.4824C98.4824 98.2266 98.3555 97.9707 98.1016 97.7559C97.8516 97.541 97.5352 97.4336 97.1523 97.4336C96.7578 97.4336 96.4492 97.5195 96.2266 97.6914C96.0039 97.8633 95.8926 98.0879 95.8926 98.3652C95.8926 98.627 95.9961 98.8242 96.2031 98.957C96.4102 99.0898 96.7832 99.2168 97.3223 99.3379C97.8652 99.459 98.3047 99.6035 98.6406 99.7715C98.9766 99.9395 99.2246 100.143 99.3848 100.381C99.5488 100.615 99.6309 100.902 99.6309 101.242C99.6309 101.809 99.4043 102.264 98.9512 102.607C98.498 102.947 97.9102 103.117 97.1875 103.117C96.6797 103.117 96.2305 103.027 95.8398 102.848C95.4492 102.668 95.1426 102.418 94.9199 102.098C94.7012 101.773 94.5918 101.424 94.5918 101.049H95.6758C95.6953 101.412 95.8398 101.701 96.1094 101.916C96.3828 102.127 96.7422 102.232 97.1875 102.232C97.5977 102.232 97.9258 102.15 98.1719 101.986C98.4219 101.818 98.5469 101.596 98.5469 101.318ZM102.266 102.432C102.266 102.244 102.321 102.088 102.43 101.963C102.544 101.838 102.712 101.775 102.934 101.775C103.157 101.775 103.325 101.838 103.438 101.963C103.555 102.088 103.614 102.244 103.614 102.432C103.614 102.611 103.555 102.762 103.438 102.883C103.325 103.004 103.157 103.064 102.934 103.064C102.712 103.064 102.544 103.004 102.43 102.883C102.321 102.762 102.266 102.611 102.266 102.432Z" fill="#573B64"/>
<path fill-rule="evenodd" clip-rule="evenodd" d="M267.052 -41.3533L258.198 -31.1492C249.345 -20.9452 231.637 -0.537119 210.604 19.81C189.57 40.1571 165.211 60.4432 147.503 80.8513C129.796 101.259 118.74 121.789 112.672 142.411C106.605 163.033 105.526 183.746 104.987 194.102L104.447 204.459L184.266 205.922L188.131 195.627C191.996 185.331 199.726 164.74 207.457 144.149C215.187 123.558 222.917 102.967 230.648 82.376C238.378 61.785 246.108 41.1939 253.839 20.6028C261.569 0.011788 269.299 -20.5793 273.164 -30.8748L277.03 -41.1703L267.052 -41.3533Z" fill="#FF7B7C"/>
<path fill-rule="evenodd" clip-rule="evenodd" d="M310.438 -52.0091L301.584 -41.805C292.73 -31.601 275.022 -11.1929 253.989 9.15422C232.955 29.5013 208.596 49.7874 190.888 70.1955C173.181 90.6036 162.125 111.134 156.057 131.755C149.99 152.377 148.911 173.09 148.372 183.446L147.832 193.803L227.651 195.267L231.516 184.971C235.381 174.676 243.112 154.084 250.842 133.493C258.572 112.902 266.303 92.3113 274.033 71.7202C281.763 51.1292 289.494 30.5381 297.224 9.94708C304.954 -10.644 312.685 -31.235 316.55 -41.5306L320.415 -51.8261L310.438 -52.0091Z" fill="#C44849"/>
<path d="M145.568 51.1973C144.604 50.9199 143.9 50.5801 143.459 50.1777C143.021 49.7715 142.803 49.2715 142.803 48.6777C142.803 48.0059 143.07 47.4512 143.605 47.0137C144.145 46.5723 144.844 46.3516 145.703 46.3516C146.289 46.3516 146.811 46.4648 147.268 46.6914C147.729 46.918 148.084 47.2305 148.334 47.6289C148.588 48.0273 148.715 48.4629 148.715 48.9355H147.584C147.584 48.4199 147.42 48.0156 147.092 47.7227C146.764 47.4258 146.301 47.2773 145.703 47.2773C145.148 47.2773 144.715 47.4004 144.402 47.6465C144.094 47.8887 143.939 48.2266 143.939 48.6602C143.939 49.0078 144.086 49.3027 144.379 49.5449C144.676 49.7832 145.178 50.002 145.885 50.2012C146.596 50.4004 147.15 50.6211 147.549 50.8633C147.951 51.1016 148.248 51.3809 148.439 51.7012C148.635 52.0215 148.732 52.3984 148.732 52.832C148.732 53.5234 148.463 54.0781 147.924 54.4961C147.385 54.9102 146.664 55.1172 145.762 55.1172C145.176 55.1172 144.629 55.0059 144.121 54.7832C143.613 54.5566 143.221 54.248 142.943 53.8574C142.67 53.4668 142.533 53.0234 142.533 52.5273H143.664C143.664 53.043 143.854 53.4512 144.232 53.752C144.615 54.0488 145.125 54.1973 145.762 54.1973C146.355 54.1973 146.811 54.0762 147.127 53.834C147.443 53.5918 147.602 53.2617 147.602 52.8438C147.602 52.4258 147.455 52.1035 147.162 51.877C146.869 51.6465 146.338 51.4199 145.568 51.1973ZM151.029 48.6602L151.059 49.3633C151.523 48.8164 152.15 48.543 152.939 48.543C153.826 48.543 154.43 48.8828 154.75 49.5625C154.961 49.2578 155.234 49.0117 155.57 48.8242C155.91 48.6367 156.311 48.543 156.771 48.543C158.162 48.543 158.869 49.2793 158.893 50.752V55H157.809V50.8164C157.809 50.3633 157.705 50.0254 157.498 49.8027C157.291 49.5762 156.943 49.4629 156.455 49.4629C156.053 49.4629 155.719 49.584 155.453 49.8262C155.188 50.0645 155.033 50.3867 154.99 50.793V55H153.9V50.8457C153.9 49.9238 153.449 49.4629 152.547 49.4629C151.836 49.4629 151.35 49.7656 151.088 50.3711V55H150.004V48.6602H151.029ZM160.246 51.7715C160.246 51.1504 160.367 50.5918 160.609 50.0957C160.855 49.5996 161.195 49.2168 161.629 48.9473C162.066 48.6777 162.564 48.543 163.123 48.543C163.986 48.543 164.684 48.8418 165.215 49.4395C165.75 50.0371 166.018 50.832 166.018 51.8242V51.9004C166.018 52.5176 165.898 53.0723 165.66 53.5645C165.426 54.0527 165.088 54.4336 164.646 54.707C164.209 54.9805 163.705 55.1172 163.135 55.1172C162.275 55.1172 161.578 54.8184 161.043 54.2207C160.512 53.623 160.246 52.832 160.246 51.8477V51.7715ZM161.336 51.9004C161.336 52.6035 161.498 53.168 161.822 53.5938C162.15 54.0195 162.588 54.2324 163.135 54.2324C163.686 54.2324 164.123 54.0176 164.447 53.5879C164.771 53.1543 164.934 52.5488 164.934 51.7715C164.934 51.0762 164.768 50.5137 164.436 50.084C164.107 49.6504 163.67 49.4336 163.123 49.4336C162.588 49.4336 162.156 49.6465 161.828 50.0723C161.5 50.498 161.336 51.1074 161.336 51.9004ZM167.09 51.7715C167.09 51.1504 167.211 50.5918 167.453 50.0957C167.699 49.5996 168.039 49.2168 168.473 48.9473C168.91 48.6777 169.408 48.543 169.967 48.543C170.83 48.543 171.527 48.8418 172.059 49.4395C172.594 50.0371 172.861 50.832 172.861 51.8242V51.9004C172.861 52.5176 172.742 53.0723 172.504 53.5645C172.27 54.0527 171.932 54.4336 171.49 54.707C171.053 54.9805 170.549 55.1172 169.979 55.1172C169.119 55.1172 168.422 54.8184 167.887 54.2207C167.355 53.623 167.09 52.832 167.09 51.8477V51.7715ZM168.18 51.9004C168.18 52.6035 168.342 53.168 168.666 53.5938C168.994 54.0195 169.432 54.2324 169.979 54.2324C170.529 54.2324 170.967 54.0176 171.291 53.5879C171.615 53.1543 171.777 52.5488 171.777 51.7715C171.777 51.0762 171.611 50.5137 171.279 50.084C170.951 49.6504 170.514 49.4336 169.967 49.4336C169.432 49.4336 169 49.6465 168.672 50.0723C168.344 50.498 168.18 51.1074 168.18 51.9004ZM175.691 47.125V48.6602H176.875V49.498H175.691V53.4297C175.691 53.6836 175.744 53.875 175.85 54.0039C175.955 54.1289 176.135 54.1914 176.389 54.1914C176.514 54.1914 176.686 54.168 176.904 54.1211V55C176.619 55.0781 176.342 55.1172 176.072 55.1172C175.588 55.1172 175.223 54.9707 174.977 54.6777C174.73 54.3848 174.607 53.9688 174.607 53.4297V49.498H173.453V48.6602H174.607V47.125H175.691ZM179.23 49.4277C179.711 48.8379 180.336 48.543 181.105 48.543C182.445 48.543 183.121 49.2988 183.133 50.8105V55H182.049V50.8047C182.045 50.3477 181.939 50.0098 181.732 49.791C181.529 49.5723 181.211 49.4629 180.777 49.4629C180.426 49.4629 180.117 49.5566 179.852 49.7441C179.586 49.9316 179.379 50.1777 179.23 50.4824V55H178.146V46H179.23V49.4277ZM140.236 61.3945H137.494V69H136.375V61.3945H133.639V60.4688H140.236V61.3945ZM143.951 63.6328C143.787 63.6055 143.609 63.5918 143.418 63.5918C142.707 63.5918 142.225 63.8945 141.971 64.5V69H140.887V62.6602H141.941L141.959 63.3926C142.314 62.8262 142.818 62.543 143.471 62.543C143.682 62.543 143.842 62.5703 143.951 62.625V63.6328ZM148.633 69C148.57 68.875 148.52 68.6523 148.48 68.332C147.977 68.8555 147.375 69.1172 146.676 69.1172C146.051 69.1172 145.537 68.9414 145.135 68.5898C144.736 68.2344 144.537 67.7852 144.537 67.2422C144.537 66.582 144.787 66.0703 145.287 65.707C145.791 65.3398 146.498 65.1562 147.408 65.1562H148.463V64.6582C148.463 64.2793 148.35 63.9785 148.123 63.7559C147.896 63.5293 147.562 63.416 147.121 63.416C146.734 63.416 146.41 63.5137 146.148 63.709C145.887 63.9043 145.756 64.1406 145.756 64.418H144.666C144.666 64.1016 144.777 63.7969 145 63.5039C145.227 63.207 145.531 62.9727 145.914 62.8008C146.301 62.6289 146.725 62.543 147.186 62.543C147.916 62.543 148.488 62.7266 148.902 63.0938C149.316 63.457 149.531 63.959 149.547 64.5996V67.5176C149.547 68.0996 149.621 68.5625 149.77 68.9062V69H148.633ZM146.834 68.1738C147.174 68.1738 147.496 68.0859 147.801 67.9102C148.105 67.7344 148.326 67.5059 148.463 67.2246V65.9238H147.613C146.285 65.9238 145.621 66.3125 145.621 67.0898C145.621 67.4297 145.734 67.6953 145.961 67.8867C146.188 68.0781 146.479 68.1738 146.834 68.1738ZM152.271 62.6602L152.307 63.457C152.791 62.8477 153.424 62.543 154.205 62.543C155.545 62.543 156.221 63.2988 156.232 64.8105V69H155.148V64.8047C155.145 64.3477 155.039 64.0098 154.832 63.791C154.629 63.5723 154.311 63.4629 153.877 63.4629C153.525 63.4629 153.217 63.5566 152.951 63.7441C152.686 63.9316 152.479 64.1777 152.33 64.4824V69H151.246V62.6602H152.271ZM161.559 67.3184C161.559 67.0254 161.447 66.7988 161.225 66.6387C161.006 66.4746 160.621 66.334 160.07 66.2168C159.523 66.0996 159.088 65.959 158.764 65.7949C158.443 65.6309 158.205 65.4355 158.049 65.209C157.896 64.9824 157.82 64.7129 157.82 64.4004C157.82 63.8809 158.039 63.4414 158.477 63.082C158.918 62.7227 159.48 62.543 160.164 62.543C160.883 62.543 161.465 62.7285 161.91 63.0996C162.359 63.4707 162.584 63.9453 162.584 64.5234H161.494C161.494 64.2266 161.367 63.9707 161.113 63.7559C160.863 63.541 160.547 63.4336 160.164 63.4336C159.77 63.4336 159.461 63.5195 159.238 63.6914C159.016 63.8633 158.904 64.0879 158.904 64.3652C158.904 64.627 159.008 64.8242 159.215 64.957C159.422 65.0898 159.795 65.2168 160.334 65.3379C160.877 65.459 161.316 65.6035 161.652 65.7715C161.988 65.9395 162.236 66.1426 162.396 66.3809C162.561 66.6152 162.643 66.9023 162.643 67.2422C162.643 67.8086 162.416 68.2637 161.963 68.6074C161.51 68.9473 160.922 69.1172 160.199 69.1172C159.691 69.1172 159.242 69.0273 158.852 68.8477C158.461 68.668 158.154 68.418 157.932 68.0977C157.713 67.7734 157.604 67.4238 157.604 67.0488H158.688C158.707 67.4121 158.852 67.7012 159.121 67.916C159.395 68.127 159.754 68.2324 160.199 68.2324C160.609 68.2324 160.938 68.1504 161.184 67.9863C161.434 67.8184 161.559 67.5957 161.559 67.3184ZM165.232 69H164.148V62.6602H165.232V69ZM164.061 60.9785C164.061 60.8027 164.113 60.6543 164.219 60.5332C164.328 60.4121 164.488 60.3516 164.699 60.3516C164.91 60.3516 165.07 60.4121 165.18 60.5332C165.289 60.6543 165.344 60.8027 165.344 60.9785C165.344 61.1543 165.289 61.3008 165.18 61.418C165.07 61.5352 164.91 61.5938 164.699 61.5938C164.488 61.5938 164.328 61.5352 164.219 61.418C164.113 61.3008 164.061 61.1543 164.061 60.9785ZM168.443 61.125V62.6602H169.627V63.498H168.443V67.4297C168.443 67.6836 168.496 67.875 168.602 68.0039C168.707 68.1289 168.887 68.1914 169.141 68.1914C169.266 68.1914 169.438 68.168 169.656 68.1211V69C169.371 69.0781 169.094 69.1172 168.824 69.1172C168.34 69.1172 167.975 68.9707 167.729 68.6777C167.482 68.3848 167.359 67.9688 167.359 67.4297V63.498H166.205V62.6602H167.359V61.125H168.443ZM172.076 69H170.992V62.6602H172.076V69ZM170.904 60.9785C170.904 60.8027 170.957 60.6543 171.062 60.5332C171.172 60.4121 171.332 60.3516 171.543 60.3516C171.754 60.3516 171.914 60.4121 172.023 60.5332C172.133 60.6543 172.188 60.8027 172.188 60.9785C172.188 61.1543 172.133 61.3008 172.023 61.418C171.914 61.5352 171.754 61.5938 171.543 61.5938C171.332 61.5938 171.172 61.5352 171.062 61.418C170.957 61.3008 170.904 61.1543 170.904 60.9785ZM173.529 65.7715C173.529 65.1504 173.65 64.5918 173.893 64.0957C174.139 63.5996 174.479 63.2168 174.912 62.9473C175.35 62.6777 175.848 62.543 176.406 62.543C177.27 62.543 177.967 62.8418 178.498 63.4395C179.033 64.0371 179.301 64.832 179.301 65.8242V65.9004C179.301 66.5176 179.182 67.0723 178.943 67.5645C178.709 68.0527 178.371 68.4336 177.93 68.707C177.492 68.9805 176.988 69.1172 176.418 69.1172C175.559 69.1172 174.861 68.8184 174.326 68.2207C173.795 67.623 173.529 66.832 173.529 65.8477V65.7715ZM174.619 65.9004C174.619 66.6035 174.781 67.168 175.105 67.5938C175.434 68.0195 175.871 68.2324 176.418 68.2324C176.969 68.2324 177.406 68.0176 177.73 67.5879C178.055 67.1543 178.217 66.5488 178.217 65.7715C178.217 65.0762 178.051 64.5137 177.719 64.084C177.391 63.6504 176.953 63.4336 176.406 63.4336C175.871 63.4336 175.439 63.6465 175.111 64.0723C174.783 64.498 174.619 65.1074 174.619 65.9004ZM181.686 62.6602L181.721 63.457C182.205 62.8477 182.838 62.543 183.619 62.543C184.959 62.543 185.635 63.2988 185.646 64.8105V69H184.562V64.8047C184.559 64.3477 184.453 64.0098 184.246 63.791C184.043 63.5723 183.725 63.4629 183.291 63.4629C182.939 63.4629 182.631 63.5566 182.365 63.7441C182.1 63.9316 181.893 64.1777 181.744 64.4824V69H180.66V62.6602H181.686ZM190.973 67.3184C190.973 67.0254 190.861 66.7988 190.639 66.6387C190.42 66.4746 190.035 66.334 189.484 66.2168C188.938 66.0996 188.502 65.959 188.178 65.7949C187.857 65.6309 187.619 65.4355 187.463 65.209C187.311 64.9824 187.234 64.7129 187.234 64.4004C187.234 63.8809 187.453 63.4414 187.891 63.082C188.332 62.7227 188.895 62.543 189.578 62.543C190.297 62.543 190.879 62.7285 191.324 63.0996C191.773 63.4707 191.998 63.9453 191.998 64.5234H190.908C190.908 64.2266 190.781 63.9707 190.527 63.7559C190.277 63.541 189.961 63.4336 189.578 63.4336C189.184 63.4336 188.875 63.5195 188.652 63.6914C188.43 63.8633 188.318 64.0879 188.318 64.3652C188.318 64.627 188.422 64.8242 188.629 64.957C188.836 65.0898 189.209 65.2168 189.748 65.3379C190.291 65.459 190.73 65.6035 191.066 65.7715C191.402 65.9395 191.65 66.1426 191.811 66.3809C191.975 66.6152 192.057 66.9023 192.057 67.2422C192.057 67.8086 191.83 68.2637 191.377 68.6074C190.924 68.9473 190.336 69.1172 189.613 69.1172C189.105 69.1172 188.656 69.0273 188.266 68.8477C187.875 68.668 187.568 68.418 187.346 68.0977C187.127 67.7734 187.018 67.4238 187.018 67.0488H188.102C188.121 67.4121 188.266 67.7012 188.535 67.916C188.809 68.127 189.168 68.2324 189.613 68.2324C190.023 68.2324 190.352 68.1504 190.598 67.9863C190.848 67.8184 190.973 67.5957 190.973 67.3184Z" fill="#F5F2F8"/>
<path d="M156.825 82.7417C157.408 82.15 157.992 81.6167 158.25 81.725C158.667 81.8917 158.25 82.5833 158 82.9917C157.792 83.3417 155.617 86.2333 155.617 88.25C155.617 89.3167 156.017 90.2 156.733 90.7333C157.358 91.2 158.183 91.3417 158.933 91.1167C159.825 90.8583 160.558 89.95 161.483 88.8083C162.492 87.5667 163.842 85.9417 164.883 85.9417C166.242 85.9417 166.258 86.7833 166.35 87.4333C163.2 87.9667 161.867 90.4917 161.867 91.9083C161.867 93.325 163.067 94.4833 164.542 94.4833C165.9 94.4833 168.117 93.375 168.45 89.4H170.5V87.3167H168.442C168.317 85.9417 167.533 83.8167 165.083 83.8167C163.208 83.8167 161.6 85.4083 160.967 86.1833C160.483 86.7917 159.25 88.25 159.058 88.45C158.85 88.7 158.492 89.15 158.133 89.15C157.758 89.15 157.533 88.4583 157.833 87.55C158.125 86.6417 159 85.1667 159.375 84.6167C160.025 83.6667 160.458 83.0167 160.458 81.8833C160.458 80.075 159.092 79.5 158.367 79.5C157.267 79.5 156.308 80.3333 156.1 80.5417C155.8 80.8417 155.55 81.0917 155.367 81.3167L156.825 82.7417ZM164.567 92.4583C164.308 92.4583 163.95 92.2417 163.95 91.8583C163.95 91.3583 164.558 90.025 166.342 89.5583C166.092 91.8 165.15 92.4583 164.567 92.4583Z" fill="#ECF6F3"/>
</g>
</g>
<defs>
<filter id="filter0_d" x="0" y="0" width="226" height="146" filterUnits="userSpaceOnUse" color-interpolation-filters="sRGB">
<feFlood flood-opacity="0" result="BackgroundImageFix"/>
<feColorMatrix in="SourceAlpha" type="matrix" values="0 0 0 0 0 0 0 0 0 0 0 0 0 0 0 0 0 0 127 0"/>
<feMorphology radius="5" operator="dilate" in="SourceAlpha" result="effect1_dropShadow"/>
<feOffset dy="4"/>
<feGaussianBlur stdDeviation="4"/>
<feColorMatrix type="matrix" values="0 0 0 0 0 0 0 0 0 0 0 0 0 0 0 0 0 0 0.3 0"/>
<feBlend mode="normal" in2="BackgroundImageFix" result="effect1_dropShadow"/>
<feBlend mode="normal" in="SourceGraphic" in2="effect1_dropShadow" result="shape"/>
</filter>
<clipPath id="clip0">
<rect x="13" y="9" width="200" height="120" rx="10" fill="white"/>
</clipPath>
</defs>
</svg>
