<svg width="226" height="146" viewBox="0 0 226 146" fill="none" xmlns="http://www.w3.org/2000/svg">
<g filter="url(#filter0_d)">
<g clip-path="url(#clip0)">
<rect x="13" y="9" width="200" height="120" rx="10" fill="white"/>
<path d="M113 9H203C208.523 9 213 13.4772 213 19V119C213 124.523 208.523 129 203 129H113V9Z" fill="#66B796"/>
<path fill-rule="evenodd" clip-rule="evenodd" d="M120.937 149.606L124.178 143.355C127.418 137.103 133.899 124.6 139.445 110.609C144.992 96.6189 149.604 81.1412 156.085 68.6379C162.566 56.1347 170.915 46.6058 180.665 39.3078C190.416 32.0097 201.568 26.9425 207.144 24.4089L212.719 21.8753L235.141 57.5683L230.499 61.5891C225.857 65.6099 216.574 73.6515 207.29 81.6932C198.007 89.7348 188.724 97.7765 179.44 105.818C170.157 113.86 160.873 121.901 151.59 129.943C142.307 137.985 133.023 146.026 128.381 150.047L123.74 154.068L120.937 149.606Z" fill="#55AA87"/>
<path fill-rule="evenodd" clip-rule="evenodd" d="M126.797 171.538L130.037 165.286C133.277 159.035 139.758 146.531 145.305 132.541C150.851 118.551 155.464 103.073 161.944 90.5696C168.425 78.0663 176.774 68.5374 186.525 61.2394C196.275 53.9414 207.427 48.8741 213.003 46.3405L218.579 43.8069L241 79.4999L236.358 83.5207C231.717 87.5415 222.433 95.5832 213.15 103.625C203.866 111.666 194.583 119.708 185.3 127.75C176.016 135.791 166.733 143.833 157.449 151.875C148.166 159.916 138.883 167.958 134.241 171.979L129.599 176L126.797 171.538Z" fill="#4E9C7C"/>
<path d="M136.926 54.3945H134.184V62H133.064V54.3945H130.328V53.4688H136.926V54.3945ZM137.148 58.7715C137.148 58.1504 137.27 57.5918 137.512 57.0957C137.758 56.5996 138.098 56.2168 138.531 55.9473C138.969 55.6777 139.467 55.543 140.025 55.543C140.889 55.543 141.586 55.8418 142.117 56.4395C142.652 57.0371 142.92 57.832 142.92 58.8242V58.9004C142.92 59.5176 142.801 60.0723 142.562 60.5645C142.328 61.0527 141.99 61.4336 141.549 61.707C141.111 61.9805 140.607 62.1172 140.037 62.1172C139.178 62.1172 138.48 61.8184 137.945 61.2207C137.414 60.623 137.148 59.832 137.148 58.8477V58.7715ZM138.238 58.9004C138.238 59.6035 138.4 60.168 138.725 60.5938C139.053 61.0195 139.49 61.2324 140.037 61.2324C140.588 61.2324 141.025 61.0176 141.35 60.5879C141.674 60.1543 141.836 59.5488 141.836 58.7715C141.836 58.0762 141.67 57.5137 141.338 57.084C141.01 56.6504 140.572 56.4336 140.025 56.4336C139.49 56.4336 139.059 56.6465 138.73 57.0723C138.402 57.498 138.238 58.1074 138.238 58.9004ZM146.535 58.8184H143.676V57.9336H146.535V58.8184ZM147.766 62V53.4688H150.174C150.916 53.4688 151.572 53.6328 152.143 53.9609C152.713 54.2891 153.152 54.7559 153.461 55.3613C153.773 55.9668 153.932 56.6621 153.936 57.4473V57.9922C153.936 58.7969 153.779 59.502 153.467 60.1074C153.158 60.7129 152.715 61.1777 152.137 61.502C151.562 61.8262 150.893 61.9922 150.127 62H147.766ZM148.891 54.3945V61.0801H150.074C150.941 61.0801 151.615 60.8105 152.096 60.2715C152.58 59.7324 152.822 58.9648 152.822 57.9688V57.4707C152.822 56.502 152.594 55.75 152.137 55.2148C151.684 54.6758 151.039 54.4023 150.203 54.3945H148.891ZM155.184 58.7715C155.184 58.1504 155.305 57.5918 155.547 57.0957C155.793 56.5996 156.133 56.2168 156.566 55.9473C157.004 55.6777 157.502 55.543 158.061 55.543C158.924 55.543 159.621 55.8418 160.152 56.4395C160.688 57.0371 160.955 57.832 160.955 58.8242V58.9004C160.955 59.5176 160.836 60.0723 160.598 60.5645C160.363 61.0527 160.025 61.4336 159.584 61.707C159.146 61.9805 158.643 62.1172 158.072 62.1172C157.213 62.1172 156.516 61.8184 155.98 61.2207C155.449 60.623 155.184 59.832 155.184 58.8477V58.7715ZM156.273 58.9004C156.273 59.6035 156.436 60.168 156.76 60.5938C157.088 61.0195 157.525 61.2324 158.072 61.2324C158.623 61.2324 159.061 61.0176 159.385 60.5879C159.709 60.1543 159.871 59.5488 159.871 58.7715C159.871 58.0762 159.705 57.5137 159.373 57.084C159.045 56.6504 158.607 56.4336 158.061 56.4336C157.525 56.4336 157.094 56.6465 156.766 57.0723C156.438 57.498 156.273 58.1074 156.273 58.9004ZM166.592 61.0801H170.635V62H165.461V53.4688H166.592V61.0801ZM172.926 62H171.842V55.6602H172.926V62ZM171.754 53.9785C171.754 53.8027 171.807 53.6543 171.912 53.5332C172.021 53.4121 172.182 53.3516 172.393 53.3516C172.604 53.3516 172.764 53.4121 172.873 53.5332C172.982 53.6543 173.037 53.8027 173.037 53.9785C173.037 54.1543 172.982 54.3008 172.873 54.418C172.764 54.5352 172.604 54.5938 172.393 54.5938C172.182 54.5938 172.021 54.5352 171.912 54.418C171.807 54.3008 171.754 54.1543 171.754 53.9785ZM178.357 60.3184C178.357 60.0254 178.246 59.7988 178.023 59.6387C177.805 59.4746 177.42 59.334 176.869 59.2168C176.322 59.0996 175.887 58.959 175.562 58.7949C175.242 58.6309 175.004 58.4355 174.848 58.209C174.695 57.9824 174.619 57.7129 174.619 57.4004C174.619 56.8809 174.838 56.4414 175.275 56.082C175.717 55.7227 176.279 55.543 176.963 55.543C177.682 55.543 178.264 55.7285 178.709 56.0996C179.158 56.4707 179.383 56.9453 179.383 57.5234H178.293C178.293 57.2266 178.166 56.9707 177.912 56.7559C177.662 56.541 177.346 56.4336 176.963 56.4336C176.568 56.4336 176.26 56.5195 176.037 56.6914C175.814 56.8633 175.703 57.0879 175.703 57.3652C175.703 57.627 175.807 57.8242 176.014 57.957C176.221 58.0898 176.594 58.2168 177.133 58.3379C177.676 58.459 178.115 58.6035 178.451 58.7715C178.787 58.9395 179.035 59.1426 179.195 59.3809C179.359 59.6152 179.441 59.9023 179.441 60.2422C179.441 60.8086 179.215 61.2637 178.762 61.6074C178.309 61.9473 177.721 62.1172 176.998 62.1172C176.49 62.1172 176.041 62.0273 175.65 61.8477C175.26 61.668 174.953 61.418 174.73 61.0977C174.512 60.7734 174.402 60.4238 174.402 60.0488H175.486C175.506 60.4121 175.65 60.7012 175.92 60.916C176.193 61.127 176.553 61.2324 176.998 61.2324C177.408 61.2324 177.736 61.1504 177.982 60.9863C178.232 60.8184 178.357 60.5957 178.357 60.3184ZM182.324 54.125V55.6602H183.508V56.498H182.324V60.4297C182.324 60.6836 182.377 60.875 182.482 61.0039C182.588 61.1289 182.768 61.1914 183.021 61.1914C183.146 61.1914 183.318 61.168 183.537 61.1211V62C183.252 62.0781 182.975 62.1172 182.705 62.1172C182.221 62.1172 181.855 61.9707 181.609 61.6777C181.363 61.3848 181.24 60.9688 181.24 60.4297V56.498H180.086V55.6602H181.24V54.125H182.324Z" fill="#F5F2F8"/>
<path d="M162.833 72.4997H159.35C159 71.533 158.083 70.833 157 70.833C155.917 70.833 155 71.533 154.65 72.4997H151.167C150.25 72.4997 149.5 73.2497 149.5 74.1663V85.833C149.5 86.7497 150.25 87.4997 151.167 87.4997H162.833C163.75 87.4997 164.5 86.7497 164.5 85.833V74.1663C164.5 73.2497 163.75 72.4997 162.833 72.4997ZM157 72.4997C157.458 72.4997 157.833 72.8747 157.833 73.333C157.833 73.7913 157.458 74.1663 157 74.1663C156.542 74.1663 156.167 73.7913 156.167 73.333C156.167 72.8747 156.542 72.4997 157 72.4997ZM155.333 84.1663L152 80.833L153.175 79.658L155.333 81.808L160.825 76.3163L162 77.4997L155.333 84.1663Z" fill="#ECF6F3"/>
<path d="M33.7012 58.7734H30.127L29.3242 61H28.1641L31.4219 52.4688H32.4062L35.6699 61H34.5156L33.7012 58.7734ZM30.4668 57.8477H33.3672L31.9141 53.8574L30.4668 57.8477ZM47.8551 53.3945H45.1129V61H43.9937V53.3945H41.2574V52.4688H47.8551V53.3945ZM49.2777 57.7715C49.2777 57.1504 49.3988 56.5918 49.641 56.0957C49.8871 55.5996 50.227 55.2168 50.6605 54.9473C51.098 54.6777 51.5961 54.543 52.1547 54.543C53.018 54.543 53.7152 54.8418 54.2465 55.4395C54.7816 56.0371 55.0492 56.832 55.0492 57.8242V57.9004C55.0492 58.5176 54.9301 59.0723 54.6918 59.5645C54.4574 60.0527 54.1195 60.4336 53.6781 60.707C53.2406 60.9805 52.7367 61.1172 52.1664 61.1172C51.307 61.1172 50.6098 60.8184 50.0746 60.2207C49.5434 59.623 49.2777 58.832 49.2777 57.8477V57.7715ZM50.3676 57.9004C50.3676 58.6035 50.5297 59.168 50.8539 59.5938C51.182 60.0195 51.6195 60.2324 52.1664 60.2324C52.7172 60.2324 53.1547 60.0176 53.4789 59.5879C53.8031 59.1543 53.9652 58.5488 53.9652 57.7715C53.9652 57.0762 53.7992 56.5137 53.4672 56.084C53.1391 55.6504 52.7016 55.4336 52.1547 55.4336C51.6195 55.4336 51.1879 55.6465 50.8598 56.0723C50.5316 56.498 50.3676 57.1074 50.3676 57.9004ZM57.3449 57.7773C57.3449 56.8047 57.5754 56.0234 58.0363 55.4336C58.4973 54.8398 59.1008 54.543 59.8469 54.543C60.5891 54.543 61.177 54.7969 61.6105 55.3047V52H62.6945V61H61.6984L61.6457 60.3203C61.2121 60.8516 60.6086 61.1172 59.8352 61.1172C59.1008 61.1172 58.5012 60.8164 58.0363 60.2148C57.5754 59.6133 57.3449 58.8281 57.3449 57.8594V57.7773ZM58.4289 57.9004C58.4289 58.6191 58.5773 59.1816 58.8742 59.5879C59.1711 59.9941 59.5812 60.1973 60.1047 60.1973C60.7922 60.1973 61.2941 59.8887 61.6105 59.2715V56.3594C61.2863 55.7617 60.7883 55.4629 60.1164 55.4629C59.5852 55.4629 59.1711 55.668 58.8742 56.0781C58.5773 56.4883 58.4289 57.0957 58.4289 57.9004ZM65.2949 57.7715C65.2949 57.1504 65.416 56.5918 65.6582 56.0957C65.9043 55.5996 66.2441 55.2168 66.6777 54.9473C67.1152 54.6777 67.6133 54.543 68.1719 54.543C69.0352 54.543 69.7324 54.8418 70.2637 55.4395C70.7988 56.0371 71.0664 56.832 71.0664 57.8242V57.9004C71.0664 58.5176 70.9473 59.0723 70.709 59.5645C70.4746 60.0527 70.1367 60.4336 69.6953 60.707C69.2578 60.9805 68.7539 61.1172 68.1836 61.1172C67.3242 61.1172 66.627 60.8184 66.0918 60.2207C65.5605 59.623 65.2949 58.832 65.2949 57.8477V57.7715ZM66.3848 57.9004C66.3848 58.6035 66.5469 59.168 66.8711 59.5938C67.1992 60.0195 67.6367 60.2324 68.1836 60.2324C68.7344 60.2324 69.1719 60.0176 69.4961 59.5879C69.8203 59.1543 69.9824 58.5488 69.9824 57.7715C69.9824 57.0762 69.8164 56.5137 69.4844 56.084C69.1562 55.6504 68.7188 55.4336 68.1719 55.4336C67.6367 55.4336 67.2051 55.6465 66.877 56.0723C66.5488 56.498 66.3848 57.1074 66.3848 57.9004ZM78.9801 61H77.8961V52H78.9801V61ZM83.098 61H82.0141V54.6602H83.098V61ZM81.9262 52.9785C81.9262 52.8027 81.9789 52.6543 82.0844 52.5332C82.1937 52.4121 82.3539 52.3516 82.5648 52.3516C82.7758 52.3516 82.9359 52.4121 83.0453 52.5332C83.1547 52.6543 83.2094 52.8027 83.2094 52.9785C83.2094 53.1543 83.1547 53.3008 83.0453 53.418C82.9359 53.5352 82.7758 53.5938 82.5648 53.5938C82.3539 53.5938 82.1937 53.5352 82.0844 53.418C81.9789 53.3008 81.9262 53.1543 81.9262 52.9785ZM89.7297 59.3184C89.7297 59.0254 89.6184 58.7988 89.3957 58.6387C89.177 58.4746 88.7922 58.334 88.2414 58.2168C87.6945 58.0996 87.259 57.959 86.9348 57.7949C86.6145 57.6309 86.3762 57.4355 86.2199 57.209C86.0676 56.9824 85.9914 56.7129 85.9914 56.4004C85.9914 55.8809 86.2102 55.4414 86.6477 55.082C87.0891 54.7227 87.6516 54.543 88.3352 54.543C89.0539 54.543 89.6359 54.7285 90.0812 55.0996C90.5305 55.4707 90.7551 55.9453 90.7551 56.5234H89.6652C89.6652 56.2266 89.5383 55.9707 89.2844 55.7559C89.0344 55.541 88.718 55.4336 88.3352 55.4336C87.9406 55.4336 87.632 55.5195 87.4094 55.6914C87.1867 55.8633 87.0754 56.0879 87.0754 56.3652C87.0754 56.627 87.1789 56.8242 87.3859 56.957C87.593 57.0898 87.966 57.2168 88.5051 57.3379C89.048 57.459 89.4875 57.6035 89.8234 57.7715C90.1594 57.9395 90.4074 58.1426 90.5676 58.3809C90.7316 58.6152 90.8137 58.9023 90.8137 59.2422C90.8137 59.8086 90.5871 60.2637 90.134 60.6074C89.6809 60.9473 89.093 61.1172 88.3703 61.1172C87.8625 61.1172 87.4133 61.0273 87.0227 60.8477C86.632 60.668 86.3254 60.418 86.1027 60.0977C85.884 59.7734 85.7746 59.4238 85.7746 59.0488H86.8586C86.8781 59.4121 87.0227 59.7012 87.2922 59.916C87.5656 60.127 87.925 60.2324 88.3703 60.2324C88.7805 60.2324 89.1086 60.1504 89.3547 59.9863C89.6047 59.8184 89.7297 59.5957 89.7297 59.3184ZM94.8965 53.125V54.6602H96.0801V55.498H94.8965V59.4297C94.8965 59.6836 94.9492 59.875 95.0547 60.0039C95.1602 60.1289 95.3398 60.1914 95.5938 60.1914C95.7188 60.1914 95.8906 60.168 96.1094 60.1211V61C95.8242 61.0781 95.5469 61.1172 95.2773 61.1172C94.793 61.1172 94.4277 60.9707 94.1816 60.6777C93.9355 60.3848 93.8125 59.9688 93.8125 59.4297V55.498H92.6582V54.6602H93.8125V53.125H94.8965ZM29.8398 68.6602L29.8691 69.3633C30.334 68.8164 30.9609 68.543 31.75 68.543C32.6367 68.543 33.2402 68.8828 33.5605 69.5625C33.7715 69.2578 34.0449 69.0117 34.3809 68.8242C34.7207 68.6367 35.1211 68.543 35.582 68.543C36.9727 68.543 37.6797 69.2793 37.7031 70.752V75H36.6191V70.8164C36.6191 70.3633 36.5156 70.0254 36.3086 69.8027C36.1016 69.5762 35.7539 69.4629 35.2656 69.4629C34.8633 69.4629 34.5293 69.584 34.2637 69.8262C33.998 70.0645 33.8438 70.3867 33.8008 70.793V75H32.7109V70.8457C32.7109 69.9238 32.2598 69.4629 31.3574 69.4629C30.6465 69.4629 30.1602 69.7656 29.8984 70.3711V75H28.8145V68.6602H29.8398ZM44.4578 75C44.3953 74.875 44.3445 74.6523 44.3055 74.332C43.8016 74.8555 43.2 75.1172 42.5008 75.1172C41.8758 75.1172 41.3621 74.9414 40.9598 74.5898C40.5613 74.2344 40.3621 73.7852 40.3621 73.2422C40.3621 72.582 40.6121 72.0703 41.1121 71.707C41.616 71.3398 42.323 71.1562 43.2332 71.1562H44.2879V70.6582C44.2879 70.2793 44.1746 69.9785 43.948 69.7559C43.7215 69.5293 43.3875 69.416 42.9461 69.416C42.5594 69.416 42.2352 69.5137 41.9734 69.709C41.7117 69.9043 41.5809 70.1406 41.5809 70.418H40.491C40.491 70.1016 40.6023 69.7969 40.825 69.5039C41.0516 69.207 41.3562 68.9727 41.7391 68.8008C42.1258 68.6289 42.5496 68.543 43.0105 68.543C43.741 68.543 44.3133 68.7266 44.7273 69.0938C45.1414 69.457 45.3562 69.959 45.3719 70.5996V73.5176C45.3719 74.0996 45.4461 74.5625 45.5945 74.9062V75H44.4578ZM42.659 74.1738C42.9988 74.1738 43.3211 74.0859 43.6258 73.9102C43.9305 73.7344 44.1512 73.5059 44.2879 73.2246V71.9238H43.4383C42.1102 71.9238 41.4461 72.3125 41.4461 73.0898C41.4461 73.4297 41.5594 73.6953 41.7859 73.8867C42.0125 74.0781 42.3035 74.1738 42.659 74.1738ZM48.0074 71.7773C48.0074 70.8047 48.2379 70.0234 48.6988 69.4336C49.1598 68.8398 49.7633 68.543 50.5094 68.543C51.2516 68.543 51.8395 68.7969 52.273 69.3047V66H53.357V75H52.3609L52.3082 74.3203C51.8746 74.8516 51.2711 75.1172 50.4977 75.1172C49.7633 75.1172 49.1637 74.8164 48.6988 74.2148C48.2379 73.6133 48.0074 72.8281 48.0074 71.8594V71.7773ZM49.0914 71.9004C49.0914 72.6191 49.2398 73.1816 49.5367 73.5879C49.8336 73.9941 50.2437 74.1973 50.7672 74.1973C51.4547 74.1973 51.9566 73.8887 52.273 73.2715V70.3594C51.9488 69.7617 51.4508 69.4629 50.7789 69.4629C50.2477 69.4629 49.8336 69.668 49.5367 70.0781C49.2398 70.4883 49.0914 71.0957 49.0914 71.9004ZM58.8754 75.1172C58.016 75.1172 57.3168 74.8359 56.7777 74.2734C56.2387 73.707 55.9691 72.9512 55.9691 72.0059V71.8066C55.9691 71.1777 56.0883 70.6172 56.3266 70.125C56.5688 69.6289 56.9047 69.2422 57.3344 68.9648C57.768 68.6836 58.2367 68.543 58.7406 68.543C59.5648 68.543 60.2055 68.8145 60.6625 69.3574C61.1195 69.9004 61.348 70.6777 61.348 71.6895V72.1406H57.0531C57.0688 72.7656 57.2504 73.2715 57.598 73.6582C57.9496 74.041 58.3949 74.2324 58.934 74.2324C59.3168 74.2324 59.641 74.1543 59.9066 73.998C60.1723 73.8418 60.4047 73.6348 60.6039 73.377L61.266 73.8926C60.7348 74.709 59.9379 75.1172 58.8754 75.1172ZM58.7406 69.4336C58.3031 69.4336 57.9359 69.5938 57.6391 69.9141C57.3422 70.2305 57.1586 70.6758 57.0883 71.25H60.2641V71.168C60.2328 70.6172 60.0844 70.1914 59.8188 69.8906C59.5531 69.5859 59.1938 69.4336 58.7406 69.4336ZM71.8984 74.373C71.4766 74.8691 70.8574 75.1172 70.041 75.1172C69.3652 75.1172 68.8496 74.9219 68.4941 74.5312C68.1426 74.1367 67.9648 73.5547 67.9609 72.7852V68.6602H69.0449V72.7559C69.0449 73.7168 69.4355 74.1973 70.2168 74.1973C71.0449 74.1973 71.5957 73.8887 71.8691 73.2715V68.6602H72.9531V75H71.9219L71.8984 74.373ZM79.4969 73.3184C79.4969 73.0254 79.3855 72.7988 79.1629 72.6387C78.9441 72.4746 78.5594 72.334 78.0086 72.2168C77.4617 72.0996 77.0262 71.959 76.702 71.7949C76.3816 71.6309 76.1434 71.4355 75.9871 71.209C75.8348 70.9824 75.7586 70.7129 75.7586 70.4004C75.7586 69.8809 75.9773 69.4414 76.4148 69.082C76.8563 68.7227 77.4188 68.543 78.1023 68.543C78.8211 68.543 79.4031 68.7285 79.8484 69.0996C80.2977 69.4707 80.5223 69.9453 80.5223 70.5234H79.4324C79.4324 70.2266 79.3055 69.9707 79.0516 69.7559C78.8016 69.541 78.4852 69.4336 78.1023 69.4336C77.7078 69.4336 77.3992 69.5195 77.1766 69.6914C76.9539 69.8633 76.8426 70.0879 76.8426 70.3652C76.8426 70.627 76.9461 70.8242 77.1531 70.957C77.3602 71.0898 77.7332 71.2168 78.2723 71.3379C78.8152 71.459 79.2547 71.6035 79.5906 71.7715C79.9266 71.9395 80.1746 72.1426 80.3348 72.3809C80.4988 72.6152 80.5809 72.9023 80.5809 73.2422C80.5809 73.8086 80.3543 74.2637 79.9012 74.6074C79.448 74.9473 78.8602 75.1172 78.1375 75.1172C77.6297 75.1172 77.1805 75.0273 76.7898 74.8477C76.3992 74.668 76.0926 74.418 75.8699 74.0977C75.6512 73.7734 75.5418 73.4238 75.5418 73.0488H76.6258C76.6453 73.4121 76.7898 73.7012 77.0594 73.916C77.3328 74.127 77.6922 74.2324 78.1375 74.2324C78.5477 74.2324 78.8758 74.1504 79.1219 73.9863C79.3719 73.8184 79.4969 73.5957 79.4969 73.3184ZM84.3707 75H83.2867V68.6602H84.3707V75ZM83.1988 66.9785C83.1988 66.8027 83.2516 66.6543 83.357 66.5332C83.4664 66.4121 83.6266 66.3516 83.8375 66.3516C84.0484 66.3516 84.2086 66.4121 84.318 66.5332C84.4273 66.6543 84.482 66.8027 84.482 66.9785C84.482 67.1543 84.4273 67.3008 84.318 67.418C84.2086 67.5352 84.0484 67.5938 83.8375 67.5938C83.6266 67.5938 83.4664 67.5352 83.357 67.418C83.2516 67.3008 83.1988 67.1543 83.1988 66.9785ZM88.3363 68.6602L88.3715 69.457C88.8559 68.8477 89.4887 68.543 90.2699 68.543C91.6098 68.543 92.2855 69.2988 92.2973 70.8105V75H91.2133V70.8047C91.2094 70.3477 91.1039 70.0098 90.8969 69.791C90.6937 69.5723 90.3754 69.4629 89.9418 69.4629C89.5902 69.4629 89.2816 69.5566 89.016 69.7441C88.7504 69.9316 88.5434 70.1777 88.3949 70.4824V75H87.3109V68.6602H88.3363ZM94.8742 71.7773C94.8742 70.7891 95.1027 70.0039 95.5598 69.4219C96.0168 68.8359 96.6223 68.543 97.3762 68.543C98.1496 68.543 98.7531 68.8164 99.1867 69.3633L99.2395 68.6602H100.23V74.8477C100.23 75.668 99.9855 76.3145 99.4973 76.7871C99.0129 77.2598 98.3605 77.4961 97.5402 77.4961C97.0832 77.4961 96.6359 77.3984 96.1984 77.2031C95.7609 77.0078 95.427 76.7402 95.1965 76.4004L95.759 75.75C96.2238 76.3242 96.7922 76.6113 97.4641 76.6113C97.9914 76.6113 98.4016 76.4629 98.6945 76.166C98.9914 75.8691 99.1398 75.4512 99.1398 74.9121V74.3672C98.7063 74.8672 98.1145 75.1172 97.3645 75.1172C96.6223 75.1172 96.0207 74.8184 95.5598 74.2207C95.1027 73.623 94.8742 72.8086 94.8742 71.7773ZM95.9641 71.9004C95.9641 72.6152 96.1105 73.1777 96.4035 73.5879C96.6965 73.9941 97.1066 74.1973 97.634 74.1973C98.3176 74.1973 98.8195 73.8867 99.1398 73.2656V70.3711C98.8078 69.7656 98.3098 69.4629 97.6457 69.4629C97.1184 69.4629 96.7063 69.668 96.4094 70.0781C96.1125 70.4883 95.9641 71.0957 95.9641 71.9004ZM32.1191 85.5488H30.1152V89H28.9844V80.4688H31.8086C32.7695 80.4688 33.5078 80.6875 34.0234 81.125C34.543 81.5625 34.8027 82.1992 34.8027 83.0352C34.8027 83.5664 34.6582 84.0293 34.3691 84.4238C34.084 84.8184 33.6855 85.1133 33.1738 85.3086L35.1777 88.9297V89H33.9707L32.1191 85.5488ZM30.1152 84.6289H31.8438C32.4023 84.6289 32.8457 84.4844 33.1738 84.1953C33.5059 83.9062 33.6719 83.5195 33.6719 83.0352C33.6719 82.5078 33.5137 82.1035 33.1973 81.8223C32.8848 81.541 32.4316 81.3984 31.8379 81.3945H30.1152V84.6289ZM40.0457 89.1172C39.1863 89.1172 38.4871 88.8359 37.948 88.2734C37.409 87.707 37.1395 86.9512 37.1395 86.0059V85.8066C37.1395 85.1777 37.2586 84.6172 37.4969 84.125C37.7391 83.6289 38.075 83.2422 38.5047 82.9648C38.9383 82.6836 39.407 82.543 39.9109 82.543C40.7352 82.543 41.3758 82.8145 41.8328 83.3574C42.2898 83.9004 42.5184 84.6777 42.5184 85.6895V86.1406H38.2234C38.2391 86.7656 38.4207 87.2715 38.7684 87.6582C39.1199 88.041 39.5652 88.2324 40.1043 88.2324C40.4871 88.2324 40.8113 88.1543 41.077 87.998C41.3426 87.8418 41.575 87.6348 41.7742 87.377L42.4363 87.8926C41.9051 88.709 41.1082 89.1172 40.0457 89.1172ZM39.9109 83.4336C39.4734 83.4336 39.1062 83.5938 38.8094 83.9141C38.5125 84.2305 38.3289 84.6758 38.2586 85.25H41.4344V85.168C41.4031 84.6172 41.2547 84.1914 40.9891 83.8906C40.7234 83.5859 40.3641 83.4336 39.9109 83.4336ZM48.8922 89C48.8297 88.875 48.7789 88.6523 48.7398 88.332C48.2359 88.8555 47.6344 89.1172 46.9352 89.1172C46.3102 89.1172 45.7965 88.9414 45.3941 88.5898C44.9957 88.2344 44.7965 87.7852 44.7965 87.2422C44.7965 86.582 45.0465 86.0703 45.5465 85.707C46.0504 85.3398 46.7574 85.1562 47.6676 85.1562H48.7223V84.6582C48.7223 84.2793 48.609 83.9785 48.3824 83.7559C48.1559 83.5293 47.8219 83.416 47.3805 83.416C46.9937 83.416 46.6695 83.5137 46.4078 83.709C46.1461 83.9043 46.0152 84.1406 46.0152 84.418H44.9254C44.9254 84.1016 45.0367 83.7969 45.2594 83.5039C45.4859 83.207 45.7906 82.9727 46.1734 82.8008C46.5602 82.6289 46.984 82.543 47.4449 82.543C48.1754 82.543 48.7477 82.7266 49.1617 83.0938C49.5758 83.457 49.7906 83.959 49.8062 84.5996V87.5176C49.8062 88.0996 49.8805 88.5625 50.0289 88.9062V89H48.8922ZM47.0934 88.1738C47.4332 88.1738 47.7555 88.0859 48.0602 87.9102C48.3648 87.7344 48.5855 87.5059 48.7223 87.2246V85.9238H47.8727C46.5445 85.9238 45.8805 86.3125 45.8805 87.0898C45.8805 87.4297 45.9937 87.6953 46.2203 87.8867C46.4469 88.0781 46.7379 88.1738 47.0934 88.1738ZM55.2484 88.2324C55.6352 88.2324 55.973 88.1152 56.2621 87.8809C56.5512 87.6465 56.7113 87.3535 56.7426 87.002H57.768C57.7484 87.3652 57.6234 87.7109 57.393 88.0391C57.1625 88.3672 56.8539 88.6289 56.4672 88.8242C56.0844 89.0195 55.6781 89.1172 55.2484 89.1172C54.3852 89.1172 53.6977 88.8301 53.1859 88.2559C52.6781 87.6777 52.4242 86.8887 52.4242 85.8887V85.707C52.4242 85.0898 52.5375 84.541 52.7641 84.0605C52.9906 83.5801 53.3148 83.207 53.7367 82.9414C54.1625 82.6758 54.6645 82.543 55.2426 82.543C55.9535 82.543 56.5434 82.7559 57.0121 83.1816C57.4848 83.6074 57.7367 84.1602 57.768 84.8398H56.7426C56.7113 84.4297 56.5551 84.0938 56.2738 83.832C55.9965 83.5664 55.6527 83.4336 55.2426 83.4336C54.6918 83.4336 54.2641 83.6328 53.9594 84.0312C53.6586 84.4258 53.5082 84.998 53.5082 85.748V85.9531C53.5082 86.6836 53.6586 87.2461 53.9594 87.6406C54.2602 88.0352 54.6898 88.2324 55.2484 88.2324ZM61.6574 81.125V82.6602H62.841V83.498H61.6574V87.4297C61.6574 87.6836 61.7102 87.875 61.8156 88.0039C61.9211 88.1289 62.1008 88.1914 62.3547 88.1914C62.4797 88.1914 62.6516 88.168 62.8703 88.1211V89C62.5852 89.0781 62.3078 89.1172 62.0383 89.1172C61.5539 89.1172 61.1887 88.9707 60.9426 88.6777C60.6965 88.3848 60.5734 87.9688 60.5734 87.4297V83.498H59.4191V82.6602H60.5734V81.125H61.6574Z" fill="#573B64"/>
</g>
</g>
<defs>
<filter id="filter0_d" x="0" y="0" width="226" height="146" filterUnits="userSpaceOnUse" color-interpolation-filters="sRGB">
<feFlood flood-opacity="0" result="BackgroundImageFix"/>
<feColorMatrix in="SourceAlpha" type="matrix" values="0 0 0 0 0 0 0 0 0 0 0 0 0 0 0 0 0 0 127 0"/>
<feMorphology radius="5" operator="dilate" in="SourceAlpha" result="effect1_dropShadow"/>
<feOffset dy="4"/>
<feGaussianBlur stdDeviation="4"/>
<feColorMatrix type="matrix" values="0 0 0 0 0 0 0 0 0 0 0 0 0 0 0 0 0 0 0.3 0"/>
<feBlend mode="normal" in2="BackgroundImageFix" result="effect1_dropShadow"/>
<feBlend mode="normal" in="SourceGraphic" in2="effect1_dropShadow" result="shape"/>
</filter>
<clipPath id="clip0">
<rect x="13" y="9" width="200" height="120" rx="10" fill="white"/>
</clipPath>
</defs>
</svg>
